{
.appVersion = "3306";
.formatVersion = 3;
axes = (
{
name = Weight;
tag = wght;
}
);
classes = (
{
code = "zero one two three four five six seven eight nine";
name = ordn;
},
{
code = "A B C D E F G H I J K L M N O P Q R S T U V W X Y Z Thorn Eth AE OE Ibreve uni01E2 uni01CD uni01D1 uni01D3 uni01CF uni01D5 uni01D7 uni01DB Gcaron uni01E8 uni01EA uni01EC uni01F4 uni01F8 Aringacute AEacute uni0226 uni022A uni022C uni022E uni0232 uni021E IJ uni01DE uni01D9 uni1E8A Ygrave Ecedilla Oslashacute Adotmacron Agrave Aacute Acircumflex Atilde Adieresis Aring Ccedilla Egrave Eacute Ecircumflex Edieresis Igrave Iacute Icircumflex Idieresis Ntilde Ograve Oacute Ocircumflex Otilde Odieresis Oslash Ugrave Uacute Ucircumflex Udieresis Yacute Amacron Abreve Aogonek Cacute Ccircumflex Cdotaccent Ccaron Dcaron Dcroat Emacron Ebreve Edotaccent Eogonek Ecaron Gcircumflex Gbreve Gdotaccent Gcommaaccent Hcircumflex Hbar Itilde Imacron Iogonek Idotaccent Jcircumflex Kcommaaccent Lacute Lcaron Ldot Lslash Nacute Ncaron Omacron Obreve Ohungarumlaut Racute Rcaron Sacute Scircumflex Lcommaaccent Ncommaaccent Rcommaaccent Scaron Scedilla Tcedilla Tcaron Tbar Utilde Umacron Ubreve Uring Uhungarumlaut Uogonek Wcircumflex Ycircumflex Ydieresis Zacute Zdotaccent Zcaron Wgrave Wacute Wdieresis Scommaaccent Tcommaaccent Etilde Jacute Germandbls Ytilde";
name = Uppercase;
}
);
customParameters = (
{
name = glyphOrder;
value = (
.notdef,
NULL,
CR,
space,
zero,
one,
two,
three,
four,
five,
six,
seven,
eight,
nine,
A,
B,
C,
D,
E,
F,
G,
H,
I,
J,
K,
L,
M,
N,
O,
P,
Q,
R,
S,
T,
U,
V,
W,
X,
Y,
Z,
a,
b,
c,
d,
e,
f,
g,
h,
i,
j,
k,
l,
m,
n,
o,
p,
q,
r,
s,
t,
u,
v,
w,
x,
y,
z,
exclam,
quotedbl,
numbersign,
dollar,
percent,
ampersand,
quotesingle,
parenleft,
parenright,
asterisk,
plus,
comma,
hyphen,
period,
slash,
colon,
semicolon,
less,
equal,
greater,
question,
at,
bracketleft,
backslash,
bracketright,
asciicircum,
underscore,
grave,
braceleft,
bar,
braceright,
asciitilde,
exclamdown,
cent,
sterling,
yen,

glyphs = (
{
glyphname = .notdef;
layers = (
{
layerId = "2812E460-E84E-4210-9915-0404F05954BE";
shapes = (
{
closed = 1;
nodes = (
(485,18,l),
(485,417,l),
(93,417,l),
(93,18,l)
);
},
{
closed = 1;
nodes = (
(120,388,l),
(459,388,l),
(459,49,l),
(120,49,l)
);
}
);
width = 600;
},
{
layerId = "18664310-B513-4AD7-8363-6A03F31309A0";
shapes = (
{
closed = 1;
nodes = (
(480,27,l),
(480,410,l),
(99,410,l),
(99,27,l)
);
},
{
closed = 1;
nodes = (
(120,388,l),
(459,388,l),
(459,49,l),
(120,49,l)
);
}
);
width = 600;
},
{
layerId = "80C3F940-DAE7-4929-9C43-6EF0A304A7E9";
shapes = (
{
closed = 1;
nodes = (
(477,32,l),
(477,406,l),
(103,406,l),
(103,32,l)
);
},
{
closed = 1;
nodes = (
(120,388,l),
(459,388,l),
(459,49,l),
(120,49,l)
);
}
);
width = 600;
}
);
},
{
glyphname = zero;
kernLeft = six;
kernRight = zero;
layers = (
{
layerId = "2812E460-E84E-4210-9915-0404F05954BE";
shapes = (
{
closed = 1;
nodes = (
(504,1,o),
(577,155,o),
(577,347,cs),
(577,537,o),
(504,700,o),
(307,700,cs),
(111,700,o),
(38,537,o),
(38,347,cs),
(38,155,o),
(111,1,o),
(307,1,cs)
);
},
{
closed = 1;
nodes = (
(227,43,o),
(233,168,o),
(233,347,cs),
(233,524,o),
(226,658,o),
(307,658,cs),
(377,658,o),
(382,524,o),
(382,347,cs),
(382,168,o),
(388,43,o),
(307,43,cs)
);
}
);
width = 615;
},
{
layerId = "18664310-B513-4AD7-8363-6A03F31309A0";
shapes = (
{
closed = 1;
nodes = (
(485,-3,o),
(563,151,o),
(563,343,cs),
(563,534,o),
(485,696,o),
(308,696,cs),
(131,696,o),
(52,534,o),
(52,343,cs),
(52,151,o),
(130,-3,o),
(308,-3,cs)
);
},
{
closed = 1;
nodes = (
(179,27,o),
(160,165,o),
(160,343,cs),
(160,520,o),
(180,667,o),
(308,667,cs),
(433,667,o),
(455,520,o),
(455,343,cs),
(455,165,o),
(438,27,o),
(308,27,cs)
);
}
);
width = 616;
},
{
layerId = "80C3F940-DAE7-4929-9C43-6EF0A304A7E9";
shapes = (
{
closed = 1;
nodes = (
(474,-5,o),
(555,149,o),
(555,341,cs),
(555,532,o),
(473,694,o),
(308,694,cs),
(143,694,o),
(61,532,o),
(61,341,cs),
(61,149,o),
(142,-5,o),
(308,-5,cs)
);
},
{
closed = 1;
nodes = (
(150,17,o),
(116,163,o),
(116,341,cs),
(116,518,o),
(152,673,o),
(309,673,cs),
(466,673,o),
(499,518,o),
(499,341,cs),
(499,163,o),
(468,17,o),
(309,17,cs)
);
}
);
width = 616;
}
);
unicode = 48;
},
{
glyphname = one;
layers = (
{
hints = (
{
horizontal = 1;
place = (-6,39);
type = Stem;
},
{
horizontal = 1;
place = (452,39);
type = Stem;
},
{
place = (146,130);
type = Stem;
}
);
layerId = "2812E460-E84E-4210-9915-0404F05954BE";
shapes = (
{
closed = 1;
nodes = (
(276,0,ls),
(281,0,o),
(285,4,o),
(285,9,cs),
(285,677,ls),
(285,687,o),
(280,690,o),
(273,684,c),
(192,628,o),
(107,608,o),
(35,607,cs),
(29,607,o),
(25,603,o),
(25,597,cs),
(25,588,ls),
(25,582,o),
(28,578,o),
(35,578,cs),
(96,578,o),
(99,504,o),
(99,464,cs),
(99,9,ls),
(99,4,o),
(103,0,o),
(108,0,cs)
);
}
);
width = 341;
},
{
hints = (
{
horizontal = 1;
place = (-6,39);
type = Stem;
},
{
horizontal = 1;
place = (452,39);
type = Stem;
},
{
place = (121,130);
type = Stem;
}
);
layerId = "18664310-B513-4AD7-8363-6A03F31309A0";
shapes = (
{
closed = 1;
nodes = (
(278,0,ls),
(283,0,o),
(287,4,o),
(287,9,cs),
(287,690,ls),
(287,699,o),
(278,701,o),
(274,693,cs),
(231,619,o),
(146,603,o),
(81,601,c),
(77,601,o),
(75,599,o),
(75,595,cs),
(75,589,ls),
(75,585,o),
(77,582,o),
(81,582,cs),
(118,582,o),
(189,559,o),
(189,464,cs),
(189,9,ls),
(189,4,o),
(193,0,o),
(198,0,cs)
);
}
);
width = 357;
},
{
hints = (
{
horizontal = 1;
place = (-6,39);
type = Stem;
},
{
horizontal = 1;
place = (452,39);
type = Stem;
},
{
place = (106,130);
type = Stem;
}
);
layerId = "80C3F940-DAE7-4929-9C43-6EF0A304A7E9";
shapes = (
{
closed = 1;
nodes = (
(279,0,ls),
(284,0,o),
(288,4,o),
(288,9,cs),
(288,698,ls),
(288,706,o),
(277,707,o),
(275,699,cs),
(255,613,o),
(170,600,o),
(109,598,c),
(106,598,o),
(105,596,o),
(105,594,cs),
(105,589,ls),
(105,587,o),
(106,585,o),
(109,585,cs),
(131,585,o),
(243,592,o),
(243,464,cs),
(243,9,ls),
(243,4,o),
(247,0,o),
(252,0,cs)
);
}
);
width = 367;
}
);
unicode = 49;
},
{
glyphname = two;
layers = (
{
hints = (
{
horizontal = 1;
place = (0,90);
type = Stem;
},
{
horizontal = 1;
place = (468,100);
type = Stem;
},
{
place = (430,130);
type = Stem;
}
);
layerId = "2812E460-E84E-4210-9915-0404F05954BE";
shapes = (
{
closed = 1;
nodes = (
(487,0,ls),
(492,0,o),
(496,4,o),
(496,9,cs),
(496,165,ls),
(496,170,o),
(492,174,o),
(487,174,cs),
(261,174,ls),
(253,174,o),
(252,178,o),
(258,183,cs),
(338,256,o),
(492,380,o),
(493,508,cs),
(493,604,o),
(428,687,o),
(302,687,cs),
(177,687,o),
(94,592,o),
(71,495,cs),
(70,490,o),
(72,485,o),
(78,484,c),
(83,482,o),
(88,485,o),
(91,490,cs),
(116,536,o),
(147,560,o),
(203,561,cs),
(262,563,o),
(319,511,o),
(319,452,cs),
(320,339,o),
(197,166,o),
(43,35,cs),
(39,31,o),
(36,25,o),
(36,20,cs),
(36,9,ls),
(36,4,o),
(40,0,o),
(45,0,cs)
);
}
);
width = 527;
},
{
hints = (
{
horizontal = 1;
place = (0,90);
type = Stem;
},
{
horizontal = 1;
place = (468,100);
type = Stem;
},
{
place = (471,130);
type = Stem;
}
);
layerId = "18664310-B513-4AD7-8363-6A03F31309A0";
shapes = (
{
closed = 1;
nodes = (
(480,0,ls),
(485,0,o),
(489,4,o),
(489,9,cs),
(489,84,ls),
(489,89,o),
(485,93,o),
(480,93,cs),
(170,93,ls),
(162,93,o),
(161,97,o),
(167,102,cs),
(327,254,o),
(486,357,o),
(484,514,cs),
(483,607,o),
(415,698,o),
(285,698,c),
(146,699,o),
(78,594,o),
(72,492,c),
(72,487,o),
(74,481,o),
(79,481,c),
(84,480,o),
(87,483,o),
(88,488,cs),
(102,569,o),
(145,636,o),
(238,635,cs),
(327,634,o),
(383,562,o),
(382,486,cs),
(381,360,o),
(290,255,o),
(57,36,cs),
(53,32,o),
(50,26,o),
(50,21,cs),
(50,9,ls),
(50,4,o),
(54,0,o),
(59,0,cs)
);
}
);
width = 534;
},
{
hints = (
{
horizontal = 1;
place = (0,90);
type = Stem;
},
{
horizontal = 1;
place = (468,100);
type = Stem;
},
{
place = (495,130);
type = Stem;
}
);
layerId = "80C3F940-DAE7-4929-9C43-6EF0A304A7E9";
shapes = (
{
closed = 1;
nodes = (
(476,0,ls),
(481,0,o),
(485,4,o),
(485,9,cs),
(485,36,ls),
(485,41,o),
(481,45,o),
(476,45,cs),
(116,45,ls),
(108,45,o),
(107,49,o),
(113,54,cs),
(320,253,o),
(482,343,o),
(479,517,cs),
(477,609,o),
(407,704,o),
(275,705,cs),
(128,706,o),
(68,595,o),
(73,490,c),
(73,485,o),
(75,479,o),
(79,479,cs),
(84,479,o),
(86,482,o),
(86,487,c),
(93,589,o),
(144,681,o),
(259,679,cs),
(366,677,o),
(421,593,o),
(420,507,cs),
(418,373,o),
(346,308,o),
(66,37,cs),
(62,33,o),
(59,27,o),
(59,22,cs),
(59,9,ls),
(59,4,o),
(63,0,o),
(68,0,cs)
);
}
);
width = 538;
}
);
unicode = 50;
},
{
glyphname = three;
kernRight = three;
layers = (
{
hints = (
{
horizontal = 1;
place = (-224,47);
type = Stem;
},
{
horizontal = 1;
place = (467,90);
type = Stem;
},
{
place = (491,130);
type = Stem;
}
);
layerId = "2812E460-E84E-4210-9915-0404F05954BE";
shapes = (
{
closed = 1;
nodes = (
(368,3,o),
(492,80,o),
(493,206,cs),
(493,268,o),
(449,368,o),
(315,386,cs),
(310,387,o),
(309,395,o),
(314,397,cs),
(403,434,o),
(428,480,o),
(427,545,cs),
(427,610,o),
(377,678,o),
(273,686,cs),
(168,694,o),
(60,630,o),
(61,505,cs),
(61,494,o),
(64,491,o),
(69,491,cs),
(74,491,o),
(77,495,o),
(78,504,cs),
(97,615,o),
(172,617,o),
(205,613,c),
(272,607,o),
(307,556,o),
(303,497,cs),
(298,423,o),
(206,386,o),
(124,337,c),
(119,335,o),
(118,329,o),
(118,324,cs),
(118,318,ls),
(118,313,o),
(124,310,o),
(129,311,cs),
(244,330,o),
(290,278,o),
(308,192,cs),
(325,104,o),
(303,48,o),
(258,42,c),
(217,35,o),
(181,73,o),
(160,165,cs),
(159,170,o),
(155,172,o),
(150,169,cs),
(122,150,o),
(67,117,o),
(40,100,cs),
(36,97,o),
(34,92,o),
(37,87,c),
(81,32,o),
(147,-3,o),
(256,0,cs)
);
}
);
width = 520;
},
{
hints = (
{
horizontal = 1;
place = (-224,47);
type = Stem;
},
{
horizontal = 1;
place = (467,90);
type = Stem;
},
{
place = (497,130);
type = Stem;
}
);
layerId = "18664310-B513-4AD7-8363-6A03F31309A0";
shapes = (
{
closed = 1;
nodes = (
(392,1,o),
(502,85,o),
(499,219,cs),
(498,299,o),
(433,377,o),
(324,380,c),
(319,381,o),
(318,384,o),
(323,387,cs),
(387,420,o),
(448,470,o),
(450,544,cs),
(452,619,o),
(401,695,o),
(279,698,cs),
(150,701,o),
(74,615,o),
(73,489,cs),
(73,482,o),
(75,477,o),
(80,477,cs),
(84,477,o),
(87,480,o),
(88,487,cs),
(101,611,o),
(172,657,o),
(247,657,cs),
(318,656,o),
(372,607,o),
(368,527,cs),
(363,453,o),
(290,376,o),
(176,355,c),
(171,355,o),
(170,349,o),
(170,345,cs),
(170,323,ls),
(170,318,o),
(174,315,o),
(180,317,c),
(285,373,o),
(379,322,o),
(395,214,cs),
(409,113,o),
(349,32,o),
(274,28,cs),
(198,24,o),
(143,84,o),
(130,196,c),
(130,201,o),
(127,203,o),
(123,199,cs),
(107,185,o),
(72,149,o),
(55,130,c),
(51,127,o),
(49,122,o),
(52,117,cs),
(91,48,o),
(155,-1,o),
(271,0,cs)
);
}
);
width = 541;
},
{
hints = (
{
horizontal = 1;
place = (-224,47);
type = Stem;
},
{
horizontal = 1;
place = (467,90);
type = Stem;
},
{
place = (500,130);
type = Stem;
}
);
layerId = "80C3F940-DAE7-4929-9C43-6EF0A304A7E9";
shapes = (
{
closed = 1;
nodes = (
(406,0,o),
(509,88,o),
(503,227,cs),
(500,317,o),
(424,383,o),
(330,377,c),
(324,377,o),
(323,378,o),
(329,381,cs),
(378,411,o),
(459,464,o),
(464,543,cs),
(468,625,o),
(415,705,o),
(282,705,cs),
(139,705,o),
(82,606,o),
(80,480,cs),
(80,475,o),
(82,469,o),
(86,469,cs),
(89,469,o),
(93,471,o),
(93,477,c),
(102,609,o),
(172,680,o),
(272,683,cs),
(345,685,o),
(411,637,o),
(406,544,cs),
(402,471,o),
(340,370,o),
(207,366,c),
(202,366,o),
(201,361,o),
(201,357,cs),
(201,325,ls),
(201,321,o),
(205,317,o),
(210,321,cs),
(310,399,o),
(433,349,o),
(447,227,cs),
(459,119,o),
(378,22,o),
(284,20,cs),
(187,18,o),
(120,90,o),
(113,215,c),
(113,220,o),
(110,221,o),
(107,217,cs),
(98,206,o),
(75,168,o),
(64,149,cs),
(61,144,o),
(59,140,o),
(61,135,cs),
(96,59,o),
(160,0,o),
(279,0,cs)
);
}
);
width = 553;
}
);
unicode = 51;
},
{
glyphname = four;
layers = (
{
layerId = "2812E460-E84E-4210-9915-0404F05954BE";
shapes = (
{
closed = 1;
nodes = (
(430,0,ls),
(435,0,o),
(439,4,o),
(439,9,cs),
(439,162,ls),
(439,167,o),
(443,171,o),
(448,171,cs),
(542,171,ls),
(547,171,o),
(551,175,o),
(551,180,cs),
(551,226,ls),
(551,231,o),
(547,235,o),
(542,235,cs),
(449,235,ls),
(444,235,o),
(440,239,o),
(440,244,cs),
(440,677,ls),
(440,683,o),
(436,687,o),
(430,687,cs),
(410,687,ls),
(404,687,o),
(398,684,o),
(394,679,cs),
(28,181,ls),
(24,176,o),
(26,173,o),
(32,173,cs),
(245,173,ls),
(250,173,o),
(254,169,o),
(254,164,cs),
(254,9,ls),
(254,4,o),
(258,0,o),
(263,0,cs)
);
},
{
closed = 1;
nodes = (
(151,237,ls),
(144,237,o),
(143,240,o),
(147,245,cs),
(247,383,ls),
(251,388,o),
(254,387,o),
(254,380,cs),
(254,246,ls),
(254,241,o),
(250,237,o),
(245,237,cs)
);
}
);
width = 572;
},
{
layerId = "18664310-B513-4AD7-8363-6A03F31309A0";
shapes = (
{
closed = 1;
nodes = (
(447,0,ls),
(452,0,o),
(456,4,o),
(456,9,cs),
(456,181,ls),
(456,186,o),
(460,190,o),
(465,190,cs),
(558,190,ls),
(563,190,o),
(567,194,o),
(567,199,cs),
(567,227,ls),
(567,232,o),
(563,236,o),
(558,236,cs),
(465,236,ls),
(460,236,o),
(456,240,o),
(456,245,cs),
(456,688,ls),
(456,694,o),
(452,698,o),
(446,698,cs),
(434,698,ls),
(428,698,o),
(422,695,o),
(418,690,cs),
(42,200,ls),
(38,195,o),
(40,192,o),
(46,192,cs),
(349,192,ls),
(354,192,o),
(358,188,o),
(358,183,cs),
(358,9,ls),
(358,4,o),
(362,0,o),
(367,0,cs)
);
},
{
closed = 1;
nodes = (
(125,238,ls),
(118,238,o),
(117,240,o),
(121,246,cs),
(351,542,ls),
(355,548,o),
(358,546,o),
(358,539,cs),
(358,247,ls),
(358,242,o),
(354,238,o),
(349,238,cs)
);
}
);
width = 602;
},
{
layerId = "80C3F940-DAE7-4929-9C43-6EF0A304A7E9";
shapes = (
{
closed = 1;
nodes = (
(457,0,ls),
(462,0,o),
(466,4,o),
(466,9,cs),
(466,192,ls),
(466,197,o),
(470,201,o),
(475,201,cs),
(567,201,ls),
(572,201,o),
(576,205,o),
(576,210,cs),
(576,227,ls),
(576,232,o),
(572,236,o),
(567,236,cs),
(475,236,ls),
(470,236,o),
(466,240,o),
(466,245,cs),
(466,694,ls),
(466,700,o),
(462,704,o),
(456,704,cs),
(449,704,ls),
(443,704,o),
(437,701,o),
(433,696,cs),
(51,211,ls),
(47,206,o),
(49,203,o),
(55,203,cs),
(412,203,ls),
(417,203,o),
(421,199,o),
(421,194,cs),
(421,9,ls),
(421,4,o),
(425,0,o),
(430,0,cs)
);
},
{
closed = 1;
nodes = (
(109,238,ls),
(102,238,o),
(101,240,o),
(105,246,cs),
(414,638,ls),
(418,644,o),
(421,642,o),
(421,635,cs),
(421,247,ls),
(421,242,o),
(417,238,o),
(412,238,cs)
);
}
);
width = 620;
}
);
unicode = 52;
},
{
glyphname = five;
layers = (
{
layerId = "2812E460-E84E-4210-9915-0404F05954BE";
shapes = (
{
closed = 1;
nodes = (
(363,0,o),
(503,81,o),
(504,220,cs),
(505,363,o),
(383,446,o),
(158,478,c),
(153,478,o),
(150,483,o),
(152,488,cs),
(156,500,o),
(162,510,o),
(168,529,cs),
(169,534,o),
(174,538,o),
(179,538,cs),
(461,537,ls),
(466,537,o),
(470,541,o),
(470,546,cs),
(470,678,ls),
(470,683,o),
(466,687,o),
(461,687,cs),
(175,687,ls),
(170,687,o),
(165,683,o),
(164,678,cs),
(148,625,o),
(87,395,o),
(73,347,c),
(70,343,o),
(73,339,o),
(79,337,c),
(269,297,o),
(323,278,o),
(328,164,cs),
(330,111,o),
(309,43,o),
(250,43,cs),
(211,43,o),
(173,79,o),
(171,166,cs),
(171,171,o),
(166,173,o),
(162,170,cs),
(123,145,o),
(92,128,o),
(51,101,cs),
(47,98,o),
(44,93,o),
(48,88,cs),
(114,13,o),
(185,0,o),
(250,0,cs)
);
}
);
width = 536;
},
{
layerId = "18664310-B513-4AD7-8363-6A03F31309A0";
shapes = (
{
closed = 1;
nodes = (
(397,0,o),
(510,85,o),
(510,224,c),
(511,402,o),
(336,494,o),
(133,424,c),
(129,422,o),
(126,429,o),
(127,434,cs),
(132,459,o),
(153,583,o),
(157,605,cs),
(158,610,o),
(163,614,o),
(168,614,cs),
(466,613,ls),
(471,613,o),
(475,617,o),
(475,622,cs),
(475,689,ls),
(475,694,o),
(471,698,o),
(466,698,cs),
(159,698,ls),
(154,698,o),
(148,694,o),
(147,689,cs),
(136,635,o),
(91,409,o),
(80,355,c),
(78,350,o),
(81,344,o),
(86,345,c),
(268,406,o),
(407,373,o),
(409,198,cs),
(410,91,o),
(349,29,o),
(274,29,cs),
(197,29,o),
(145,88,o),
(140,197,c),
(140,202,o),
(136,203,o),
(133,199,c),
(109,176,o),
(87,153,o),
(64,130,c),
(61,126,o),
(59,122,o),
(62,117,cs),
(112,28,o),
(191,0,o),
(274,0,cs)
);
}
);
width = 557;
},
{
layerId = "80C3F940-DAE7-4929-9C43-6EF0A304A7E9";
shapes = (
{
closed = 1;
nodes = (
(418,0,o),
(514,88,o),
(514,227,cs),
(514,426,o),
(308,523,o),
(118,392,cs),
(114,389,o),
(111,396,o),
(112,402,cs),
(117,435,o),
(147,627,o),
(151,650,cs),
(152,656,o),
(157,659,o),
(162,659,cs),
(469,658,ls),
(474,658,o),
(478,662,o),
(478,667,cs),
(478,695,ls),
(478,700,o),
(474,704,o),
(469,704,cs),
(149,704,ls),
(144,704,o),
(138,701,o),
(137,695,cs),
(129,641,o),
(93,418,o),
(84,360,cs),
(83,354,o),
(86,347,o),
(90,350,cs),
(268,472,o),
(458,430,o),
(458,219,cs),
(458,79,o),
(373,21,o),
(288,21,cs),
(188,21,o),
(128,94,o),
(122,215,c),
(122,220,o),
(118,221,o),
(115,216,cs),
(101,195,o),
(84,168,o),
(72,148,cs),
(69,143,o),
(68,140,o),
(70,135,cs),
(111,37,o),
(194,0,o),
(289,0,cs)
);
}
);
width = 569;
}
);
unicode = 53;
},
{
glyphname = six;
kernLeft = six;
layers = (
{
layerId = "2812E460-E84E-4210-9915-0404F05954BE";
shapes = (
{
closed = 1;
nodes = (
(524,37,o),
(595,151,o),
(557,285,c),
(517,413,o),
(379,455,o),
(248,397,cs),
(242,394,o),
(239,397,o),
(242,403,cs),
(289,512,o),
(409,659,o),
(545,681,cs),
(569,685,o),
(562,698,o),
(546,698,c),
(204,709,o),
(5,417,o),
(43,217,cs),
(76,46,o),
(233,-24,o),
(385,7,cs)
);
},
{
closed = 1;
nodes = (
(321,30,o),
(266,98,o),
(241,174,cs),
(216,245,o),
(216,345,o),
(264,359,cs),
(315,374,o),
(361,308,o),
(386,232,cs),
(412,156,o),
(421,66,o),
(370,48,cs)
);
}
);
width = 600;
},
{
layerId = "18664310-B513-4AD7-8363-6A03F31309A0";
shapes = (
{
closed = 1;
nodes = (
(467,14,o),
(553,112,o),
(539,249,cs),
(524,423,o),
(345,484,o),
(197,411,cs),
(191,408,o),
(189,410,o),
(191,417,cs),
(222,521,o),
(330,635,o),
(505,687,cs),
(526,693,o),
(516,704,o),
(503,702,cs),
(179,657,o),
(9,384,o),
(65,177,cs),
(101,37,o),
(224,-9,o),
(335,3,cs)
);
},
{
closed = 1;
nodes = (
(262,15,o),
(189,85,o),
(168,189,cs),
(147,292,o),
(183,388,o),
(265,402,cs),
(350,417,o),
(417,351,o),
(439,246,cs),
(461,139,o),
(428,50,o),
(346,33,cs)
);
}
);
width = 591;
},
{
layerId = "80C3F940-DAE7-4929-9C43-6EF0A304A7E9";
shapes = (
{
closed = 1;
nodes = (
(433,0,o),
(528,88,o),
(528,227,cs),
(528,429,o),
(324,501,o),
(167,419,cs),
(161,416,o),
(159,418,o),
(161,425,cs),
(182,526,o),
(283,621,o),
(481,691,cs),
(500,698,o),
(489,707,o),
(477,704,cs),
(164,626,o),
(11,364,o),
(78,153,cs),
(116,32,o),
(218,0,o),
(305,0,cs)
);
},
{
closed = 1;
nodes = (
(227,6,o),
(143,77,o),
(124,198,cs),
(105,320,o),
(163,414,o),
(265,428,cs),
(371,443,o),
(451,377,o),
(471,254,cs),
(491,129,o),
(432,41,o),
(331,24,cs)
);
}
);
width = 585;
}
);
unicode = 54;
},
{
glyphname = seven;
layers = (
{
layerId = "2812E460-E84E-4210-9915-0404F05954BE";
shapes = (
{
closed = 1;
nodes = (
(263,0,ls),
(268,0,o),
(271,4,o),
(272,9,c),
(286,191,o),
(437,554,o),
(480,677,c),
(483,683,o),
(481,687,o),
(474,687,cs),
(22,687,ls),
(17,687,o),
(13,683,o),
(13,678,cs),
(13,543,ls),
(13,538,o),
(17,534,o),
(22,534,cs),
(364,534,ls),
(371,534,o),
(373,532,o),
(369,525,cs),
(250,329,o),
(122,160,o),
(76,9,cs),
(75,4,o),
(78,0,o),
(84,0,cs)
);
}
);
width = 495;
},
{
layerId = "18664310-B513-4AD7-8363-6A03F31309A0";
shapes = (
{
closed = 1;
nodes = (
(240,0,ls),
(245,0,o),
(249,4,o),
(249,9,c),
(215,271,o),
(365,545,o),
(486,688,cs),
(490,692,o),
(487,698,o),
(480,698,cs),
(36,698,ls),
(31,698,o),
(27,694,o),
(27,689,cs),
(27,621,ls),
(27,616,o),
(31,612,o),
(36,612,cs),
(393,612,ls),
(400,612,o),
(402,608,o),
(398,603,cs),
(261,438,o),
(143,239,o),
(121,9,c),
(121,4,o),
(123,0,o),
(129,0,cs)
);
}
);
width = 516;
},
{
layerId = "80C3F940-DAE7-4929-9C43-6EF0A304A7E9";
shapes = (
{
closed = 1;
nodes = (
(226,0,ls),
(231,0,o),
(236,4,o),
(235,9,cs),
(173,319,o),
(322,539,o),
(489,694,cs),
(494,698,o),
(490,704,o),
(483,704,cs),
(45,704,ls),
(40,704,o),
(36,700,o),
(36,695,cs),
(36,668,ls),
(36,663,o),
(40,659,o),
(45,659,cs),
(410,659,ls),
(417,659,o),
(419,654,o),
(415,650,cs),
(267,504,o),
(156,287,o),
(148,9,c),
(148,4,o),
(150,0,o),
(156,0,cs)
);
}
);
width = 528;
}
);
unicode = 55;
},
{
glyphname = eight;
kernRight = three;
layers = (
{
layerId = "2812E460-E84E-4210-9915-0404F05954BE";
shapes = (
{
closed = 1;
nodes = (
(358,4,o),
(429,47,o),
(469,108,c),
(534,216,o),
(487,326,o),
(388,394,c),
(385,397,o),
(383,401,o),
(387,404,cs),
(438,442,o),
(467,488,o),
(465,548,cs),
(464,574,o),
(447,620,o),
(426,641,cs),
(386,681,o),
(330,699,o),
(258,699,cs),
(199,699,o),
(147,676,o),
(109,636,cs),
(75,600,o),
(52,551,o),
(52,495,cs),
(51,431,o),
(66,387,o),
(117,347,cs),
(121,344,o),
(121,339,o),
(116,337,c),
(64,308,o),
(27,261,o),
(26,198,cs),
(26,90,o),
(123,-5,o),
(271,0,cs)
);
},
{
closed = 1;
nodes = (
(224,63,o),
(196,89,o),
(170,114,c),
(126,165,o),
(119,246,o),
(166,303,cs),
(170,307,o),
(175,308,o),
(180,305,cs),
(220,282,o),
(271,249,o),
(306,229,c),
(346,204,o),
(365,160,o),
(362,123,c),
(361,92,o),
(342,64,o),
(315,53,cs),
(299,46,o),
(273,45,o),
(256,51,cs)
);
},
{
closed = 1;
nodes = (
(264,463,o),
(171,527,o),
(174,574,c),
(177,599,o),
(188,618,o),
(201,633,cs),
(227,664,o),
(268,666,o),
(305,652,cs),
(385,622,o),
(404,518,o),
(339,437,cs),
(335,432,o),
(329,431,o),
(324,433,cs)
);
}
);
width = 520;
},
{
layerId = "18664310-B513-4AD7-8363-6A03F31309A0";
shapes = (
{
closed = 1;
nodes = (
(386,0,o),
(473,61,o),
(491,150,c),
(518,250,o),
(466,323,o),
(366,381,cs),
(362,383,o),
(361,387,o),
(366,390,cs),
(444,437,o),
(475,484,o),
(473,545,cs),
(472,583,o),
(456,621,o),
(425,650,cs),
(388,685,o),
(332,702,o),
(274,702,cs),
(208,702,o),
(154,682,o),
(113,639,cs),
(78,603,o),
(61,550,o),
(72,495,cs),
(84,430,o),
(130,397,o),
(183,361,cs),
(188,358,o),
(187,355,o),
(182,353,cs),
(97,319,o),
(39,265,o),
(40,189,cs),
(43,76,o),
(139,-2,o),
(274,-1,cs)
);
},
{
closed = 1;
nodes = (
(184,48,o),
(138,95,o),
(129,151,c),
(114,213,o),
(140,280,o),
(214,332,cs),
(219,336,o),
(224,336,o),
(229,334,cs),
(276,313,o),
(346,266,o),
(377,235,cs),
(410,202,o),
(421,158,o),
(412,122,cs),
(402,83,o),
(370,52,o),
(336,39,cs),
(300,26,o),
(263,28,o),
(236,35,cs)
);
},
{
closed = 1;
nodes = (
(245,446,o),
(174,488,o),
(158,532,c),
(143,565,o),
(148,603,o),
(172,631,cs),
(212,680,o),
(289,687,o),
(344,655,c),
(424,613,o),
(433,494,o),
(335,409,cs),
(331,405,o),
(325,404,o),
(320,407,cs)
);
}
);
width = 539;
},
{
layerId = "80C3F940-DAE7-4929-9C43-6EF0A304A7E9";
shapes = (
{
closed = 1;
nodes = (
(403,-2,o),
(499,70,o),
(504,175,cs),
(509,270,o),
(453,321,o),
(353,373,cs),
(348,375,o),
(348,378,o),
(353,381,cs),
(448,434,o),
(480,482,o),
(478,543,cs),
(477,588,o),
(461,621,o),
(424,655,cs),
(389,687,o),
(333,704,o),
(284,704,cs),
(213,704,o),
(158,685,o),
(115,641,cs),
(80,605,o),
(67,549,o),
(84,495,cs),
(104,430,o),
(168,403,o),
(223,370,cs),
(228,367,o),
(227,364,o),
(222,362,cs),
(117,326,o),
(46,268,o),
(49,184,cs),
(53,68,o),
(149,0,o),
(276,-1,cs)
);
},
{
closed = 1;
nodes = (
(160,39,o),
(103,98,o),
(105,173,cs),
(107,242,o),
(153,301,o),
(243,350,cs),
(248,353,o),
(254,353,o),
(259,351,cs),
(310,331,o),
(391,276,o),
(420,238,cs),
(449,201,o),
(454,157,o),
(442,122,cs),
(427,77,o),
(387,45,o),
(348,31,cs),
(301,14,o),
(257,18,o),
(224,25,cs)
);
},
{
closed = 1;
nodes = (
(234,436,o),
(176,465,o),
(148,507,cs),
(123,545,o),
(124,594,o),
(154,630,cs),
(203,689,o),
(301,699,o),
(368,657,cs),
(448,607,o),
(450,479,o),
(332,392,cs),
(328,389,o),
(322,388,o),
(317,391,cs)
);
}
);
width = 550;
}
);
unicode = 56;
},
{
glyphname = nine;
kernRight = zero;
layers = (
{
layerId = "2812E460-E84E-4210-9915-0404F05954BE";
shapes = (
{
closed = 1;
nodes = (
(396,-23,o),
(595,270,o),
(557,469,cs),
(524,641,o),
(367,710,o),
(215,680,cs),
(75,650,o),
(4,536,o),
(43,401,cs),
(83,273,o),
(221,231,o),
(352,289,cs),
(358,292,o),
(361,289,o),
(358,283,cs),
(310,174,o),
(191,29,o),
(55,7,c),
(31,2,o),
(38,-11,o),
(54,-12,cs)
);
},
{
closed = 1;
nodes = (
(285,312,o),
(239,378,o),
(213,454,cs),
(188,530,o),
(179,620,o),
(230,638,cs),
(279,656,o),
(333,589,o),
(359,512,cs),
(384,442,o),
(384,341,o),
(336,327,cs)
);
}
);
width = 601;
},
{
layerId = "18664310-B513-4AD7-8363-6A03F31309A0";
shapes = (
{
closed = 1;
nodes = (
(412,42,o),
(582,316,o),
(526,522,cs),
(490,662,o),
(367,708,o),
(256,697,cs),
(123,686,o),
(37,588,o),
(52,450,cs),
(67,276,o),
(246,215,o),
(393,288,cs),
(399,291,o),
(402,289,o),
(399,282,c),
(368,178,o),
(260,65,o),
(86,13,c),
(65,6,o),
(74,-4,o),
(88,-3,c)
);
},
{
closed = 1;
nodes = (
(241,282,o),
(173,348,o),
(151,453,cs),
(129,560,o),
(163,649,o),
(245,666,cs),
(328,684,o),
(401,615,o),
(423,510,cs),
(444,408,o),
(408,311,o),
(326,297,cs)
);
}
);
width = 591;
},
{
layerId = "80C3F940-DAE7-4929-9C43-6EF0A304A7E9";
shapes = (
{
closed = 1;
nodes = (
(421,81,o),
(574,343,o),
(507,554,cs),
(469,675,o),
(367,707,o),
(280,707,cs),
(152,707,o),
(57,619,o),
(57,480,cs),
(57,278,o),
(261,206,o),
(418,288,cs),
(424,291,o),
(426,289,o),
(424,282,cs),
(403,181,o),
(302,86,o),
(104,16,cs),
(85,9,o),
(96,0,o),
(108,3,cs)
);
},
{
closed = 1;
nodes = (
(214,264,o),
(134,330,o),
(114,453,cs),
(94,578,o),
(153,666,o),
(254,683,cs),
(358,701,o),
(442,630,o),
(461,509,cs),
(480,387,o),
(422,293,o),
(320,279,cs)
);
}
);
width = 585;
}
);
unicode = 57;
},
{
glyphname = A;
kernLeft = A;
kernRight = A;
layers = (
{
layerId = "2812E460-E84E-4210-9915-0404F05954BE";
shapes = (
{
closed = 1;
nodes = (
(182,0,ls),
(188,0,o),
(189,3,o),
(185,7,cs),
(161,36,o),
(139,89,o),
(137,143,cs),
(136,163,o),
(138,182,o),
(144,202,c),
(152,224,ls),
(154,229,o),
(159,232,o),
(164,232,cs),
(379,232,ls),
(384,232,o),
(389,228,o),
(391,223,cs),
(477,9,ls),
(479,4,o),
(484,0,o),
(489,0,cs),
(667,0,ls),
(672,0,o),
(675,4,o),
(673,9,cs),
(397,697,ls),
(395,702,o),
(391,705,o),
(386,703,cs),
(233,648,l),
(228,645,o),
(225,640,o),
(227,635,cs),
(248,584,ls),
(250,579,o),
(250,571,o),
(248,566,cs),
(8,8,ls),
(6,3,o),
(9,0,o),
(14,0,cs)
);
},
{
closed = 1;
nodes = (
(186,276,ls),
(181,276,o),
(178,279,o),
(180,284,cs),
(273,502,ls),
(275,507,o),
(277,506,o),
(279,501,cs),
(367,285,ls),
(369,280,o),
(366,276,o),
(361,276,cs)
);
}
);
width = 681;
},
{
layerId = "18664310-B513-4AD7-8363-6A03F31309A0";
shapes = (
{
closed = 1;
nodes = (
(131,0,ls),
(137,0,o),
(138,3,o),
(134,7,cs),
(108,32,o),
(86,71,o),
(93,122,c),
(95,142,o),
(105,174,o),
(112,194,c),
(121,216,ls),
(123,221,o),
(128,224,o),
(133,224,cs),
(422,224,ls),
(427,224,o),
(432,220,o),
(434,215,cs),
(516,9,ls),
(518,4,o),
(523,0,o),
(528,0,cs),
(614,0,ls),
(619,0,o),
(622,4,o),
(620,9,cs),
(344,698,ls),
(342,703,o),
(338,706,o),
(333,704,cs),
(253,675,ls),
(249,673,o),
(249,669,o),
(250,666,cs),
(259,645,ls),
(261,641,o),
(261,637,o),
(259,633,cs),
(2,8,ls),
(0,3,o),
(3,0,o),
(8,0,cs)
);
},
{
closed = 1;
nodes = (
(145,250,ls),
(140,250,o),
(137,253,o),
(139,258,cs),
(276,598,ls),
(278,603,o),
(280,602,o),
(282,597,cs),
(417,259,ls),
(419,254,o),
(416,250,o),
(411,250,cs)
);
}
);
width = 622;
},
{
layerId = "80C3F940-DAE7-4929-9C43-6EF0A304A7E9";
shapes = (
{
closed = 1;
nodes = (
(100,0,ls),
(106,0,o),
(107,3,o),
(103,7,cs),
(76,30,o),
(54,60,o),
(66,109,cs),
(71,130,o),
(85,169,o),
(93,189,cs),
(102,211,ls),
(104,216,o),
(109,219,o),
(114,219,cs),
(448,219,ls),
(453,219,o),
(458,215,o),
(460,210,cs),
(539,9,ls),
(541,4,o),
(546,0,o),
(551,0,cs),
(582,0,ls),
(587,0,o),
(590,4,o),
(588,9,cs),
(312,698,ls),
(310,703,o),
(306,706,o),
(301,704,cs),
(265,691,ls),
(262,690,o),
(263,687,o),
(264,685,cs),
(266,681,ls),
(267,678,o),
(267,676,o),
(266,673,cs),
(-2,8,ls),
(-4,3,o),
(-1,0,o),
(4,0,cs)
);
},
{
closed = 1;
nodes = (
(120,234,ls),
(115,234,o),
(112,237,o),
(114,242,cs),
(278,655,ls),
(280,660,o),
(282,659,o),
(284,654,cs),
(447,243,ls),
(449,238,o),
(446,234,o),
(441,234,cs)
);
}
);
width = 586;
}
);
unicode = 65;
},
{
glyphname = B;
kernLeft = B;
kernRight = B;
layers = (
{
layerId = "2812E460-E84E-4210-9915-0404F05954BE";
shapes = (
{
closed = 1;
nodes = (
(363,0,ls),
(483,0,o),
(686,42,o),
(689,205,cs),
(690,328,o),
(575,365,o),
(514,373,cs),
(499,375,o),
(497,379,o),
(512,385,cs),
(563,406,o),
(645,452,o),
(643,536,cs),
(640,658,o),
(531,704,o),
(370,704,cs),
(69,704,ls),
(63,704,o),
(60,701,o),
(60,695,cs),
(60,9,ls),
(60,3,o),
(63,0,o),
(69,0,cs)
);
},
{
closed = 1;
nodes = (
(255,45,ls),
(249,45,o),
(246,48,o),
(246,54,cs),
(246,333,ls),
(246,339,o),
(249,342,o),
(255,342,cs),
(332,342,ls),
(390,342,o),
(488,319,o),
(493,184,cs),
(497,63,o),
(396,45,o),
(331,45,cs)
);
},
{
closed = 1;
nodes = (
(255,386,ls),
(249,386,o),
(246,389,o),
(246,395,cs),
(246,650,ls),
(246,656,o),
(249,659,o),
(255,659,cs),
(306,659,ls),
(386,659,o),
(446,608,o),
(447,503,cs),
(449,398,o),
(379,386,o),
(299,386,cs)
);
}
);
width = 710;
},
{
layerId = "18664310-B513-4AD7-8363-6A03F31309A0";
shapes = (
{
closed = 1;
nodes = (
(327,0,ls),
(444,0,o),
(609,37,o),
(601,205,cs),
(596,315,o),
(496,356,o),
(433,366,cs),
(416,369,o),
(415,371,o),
(431,377,cs),
(487,397,o),
(565,452,o),
(557,545,cs),
(547,663,o),
(447,704,o),
(305,704,cs),
(94,704,ls),
(88,704,o),
(85,701,o),
(85,695,cs),
(85,9,ls),
(85,3,o),
(88,0,o),
(94,0,cs)
);
},
{
closed = 1;
nodes = (
(192,26,ls),
(186,26,o),
(183,29,o),
(183,35,cs),
(183,339,ls),
(183,345,o),
(186,348,o),
(192,348,cs),
(311,348,ls),
(398,348,o),
(487,314,o),
(494,186,cs),
(501,42,o),
(377,26,o),
(315,26,cs)
);
},
{
closed = 1;
nodes = (
(192,377,ls),
(186,377,o),
(183,380,o),
(183,386,cs),
(183,669,ls),
(183,675,o),
(186,678,o),
(192,678,cs),
(282,678,ls),
(355,678,o),
(442,645,o),
(451,532,cs),
(460,425,o),
(386,377,o),
(298,377,cs)
);
}
);
width = 641;
},
{
layerId = "80C3F940-DAE7-4929-9C43-6EF0A304A7E9";
shapes = (
{
closed = 1;
nodes = (
(305,0,ls),
(420,0,o),
(563,34,o),
(548,205,cs),
(539,307,o),
(448,351,o),
(384,362,cs),
(366,365,o),
(366,366,o),
(383,372,cs),
(442,392,o),
(517,452,o),
(505,551,cs),
(491,666,o),
(397,704,o),
(266,704,cs),
(109,704,ls),
(103,704,o),
(100,701,o),
(100,695,cs),
(100,9,ls),
(100,3,o),
(103,0,o),
(109,0,cs)
);
},
{
closed = 1;
nodes = (
(154,15,ls),
(148,15,o),
(145,18,o),
(145,24,cs),
(145,343,ls),
(145,349,o),
(148,352,o),
(154,352,cs),
(298,352,ls),
(403,352,o),
(486,311,o),
(494,187,cs),
(504,29,o),
(365,15,o),
(305,15,cs)
);
},
{
closed = 1;
nodes = (
(154,372,ls),
(148,372,o),
(145,375,o),
(145,381,cs),
(145,680,ls),
(145,686,o),
(148,689,o),
(154,689,cs),
(267,689,ls),
(336,689,o),
(439,667,o),
(453,550,cs),
(466,441,o),
(390,372,o),
(298,372,cs)
);
}
);
width = 600;
}
);
unicode = 66;
},
{
glyphname = C;
kernLeft = C;
kernRight = C;
layers = (
{
layerId = "2812E460-E84E-4210-9915-0404F05954BE";
shapes = (
{
closed = 1;
nodes = (
(531,-20,o),
(627,17,o),
(696,84,cs),
(700,88,o),
(699,91,o),
(697,97,cs),
(642,281,ls),
(640,287,o),
(631,286,o),
(632,279,c),
(629,118,o),
(551,37,o),
(462,25,cs),
(329,7,o),
(263,114,o),
(234,322,cs),
(206,517,o),
(233,656,o),
(375,675,cs),
(489,690,o),
(566,615,o),
(606,460,cs),
(608,451,o),
(615,452,o),
(618,461,cs),
(670,628,ls),
(672,633,o),
(670,639,o),
(666,642,cs),
(600,692,o),
(516,720,o),
(419,720,cs),
(195,720,o),
(28,573,o),
(28,350,c),
(27,127,o),
(195,-20,o),
(418,-20,cs)
);
}
);
width = 724;
},
{
layerId = "18664310-B513-4AD7-8363-6A03F31309A0";
shapes = (
{
closed = 1;
nodes = (
(534,-19,o),
(642,24,o),
(711,91,cs),
(715,95,o),
(714,98,o),
(712,104,cs),
(674,228,ls),
(672,234,o),
(665,233,o),
(664,226,cs),
(639,85,o),
(555,23,o),
(466,11,cs),
(323,-8,o),
(192,97,o),
(168,313,cs),
(139,576,o),
(268,674,o),
(374,690,cs),
(493,708,o),
(592,633,o),
(632,500,c),
(634,491,o),
(641,492,o),
(644,501,cs),
(681,621,ls),
(683,626,o),
(681,632,o),
(677,635,cs),
(611,685,o),
(518,721,o),
(421,721,cs),
(205,721,o),
(54,569,o),
(55,350,cs),
(56,132,o),
(203,-19,o),
(421,-19,cs)
);
}
);
width = 755;
},
{
layerId = "80C3F940-DAE7-4929-9C43-6EF0A304A7E9";
shapes = (
{
closed = 1;
nodes = (
(536,-19,o),
(651,28,o),
(720,95,cs),
(724,99,o),
(723,102,o),
(721,108,cs),
(693,196,ls),
(691,202,o),
(685,201,o),
(683,194,cs),
(645,65,o),
(558,15,o),
(469,3,cs),
(320,-17,o),
(149,87,o),
(128,307,cs),
(99,612,o),
(289,685,o),
(374,699,cs),
(495,719,o),
(608,644,o),
(647,524,cs),
(650,515,o),
(656,516,o),
(659,525,cs),
(687,617,ls),
(689,622,o),
(687,628,o),
(683,631,cs),
(617,681,o),
(519,721,o),
(422,721,cs),
(211,721,o),
(69,567,o),
(71,350,cs),
(73,135,o),
(208,-19,o),
(423,-19,cs)
);
}
);
width = 773;
}
);
unicode = 67;
},
{
glyphname = D;
kernLeft = D;
kernRight = D;
layers = (
{
layerId = "2812E460-E84E-4210-9915-0404F05954BE";
shapes = (
{
closed = 1;
nodes = (
(281,0,ls),
(526,0,o),
(727,70,o),
(727,356,cs),
(727,635,o),
(506,703,o),
(274,703,cs),
(69,703,ls),
(64,703,o),
(60,699,o),
(60,694,cs),
(60,9,ls),
(60,4,o),
(64,0,o),
(69,0,cs)
);
},
{
closed = 1;
nodes = (
(295,44,ls),
(260,44,o),
(246,62,o),
(246,103,cs),
(246,653,ls),
(246,658,o),
(250,662,o),
(255,662,cs),
(279,662,ls),
(360,662,o),
(522,628,o),
(532,356,cs),
(542,77,o),
(395,44,o),
(310,44,cs)
);
}
);
width = 755;
},
{
layerId = "18664310-B513-4AD7-8363-6A03F31309A0";
shapes = (
{
closed = 1;
nodes = (
(291,0,ls),
(503,0,o),
(675,114,o),
(675,356,cs),
(675,599,o),
(499,704,o),
(285,704,cs),
(94,704,ls),
(89,704,o),
(85,700,o),
(85,695,cs),
(85,9,ls),
(85,4,o),
(89,0,o),
(94,0,cs)
);
},
{
closed = 1;
nodes = (
(232,26,ls),
(197,26,o),
(183,44,o),
(183,85,cs),
(183,670,ls),
(183,675,o),
(187,679,o),
(192,679,cs),
(283,679,ls),
(399,679,o),
(558,628,o),
(568,356,cs),
(578,77,o),
(384,26,o),
(299,26,cs)
);
}
);
width = 729;
},
{
layerId = "80C3F940-DAE7-4929-9C43-6EF0A304A7E9";
shapes = (
{
closed = 1;
nodes = (
(297,0,ls),
(489,0,o),
(644,140,o),
(644,356,cs),
(644,578,o),
(495,704,o),
(291,704,cs),
(109,704,ls),
(104,704,o),
(100,700,o),
(100,695,cs),
(100,9,ls),
(100,4,o),
(104,0,o),
(109,0,cs)
);
},
{
closed = 1;
nodes = (
(194,15,ls),
(159,15,o),
(145,33,o),
(145,74,cs),
(145,680,ls),
(145,685,o),
(149,689,o),
(154,689,cs),
(285,689,ls),
(423,689,o),
(579,628,o),
(589,356,cs),
(599,77,o),
(378,15,o),
(293,15,cs)
);
}
);
width = 714;
}
);
unicode = 68;
},
{
glyphname = E;
kernLeft = E;
kernRight = E;
layers = (
{
layerId = "2812E460-E84E-4210-9915-0404F05954BE";
shapes = (
{
closed = 1;
nodes = (
(505,0,ls),
(510,0,o),
(515,4,o),
(516,9,cs),
(521,37,o),
(544,156,o),
(551,193,cs),
(553,203,o),
(544,205,o),
(539,197,cs),
(519,160,o),
(432,44,o),
(309,44,cs),
(295,44,ls),
(258,44,o),
(246,64,o),
(246,103,cs),
(246,325,ls),
(246,330,o),
(250,334,o),
(255,334,cs),
(439,334,ls),
(444,334,o),
(448,338,o),
(448,343,cs),
(448,374,ls),
(448,379,o),
(444,383,o),
(439,383,cs),
(253,383,ls),
(248,383,o),
(244,387,o),
(244,392,cs),
(244,650,ls),
(244,655,o),
(248,659,o),
(253,659,cs),
(276,659,ls),
(399,659,o),
(486,544,o),
(506,507,cs),
(511,499,o),
(520,501,o),
(518,511,cs),
(511,547,o),
(488,667,o),
(483,695,cs),
(482,700,o),
(477,704,o),
(472,704,cs),
(68,704,ls),
(63,704,o),
(60,700,o),
(60,695,cs),
(60,9,ls),
(60,4,o),
(64,0,o),
(69,0,cs)
);
}
);
width = 582;
},
{
layerId = "18664310-B513-4AD7-8363-6A03F31309A0";
shapes = (
{
closed = 1;
nodes = (
(501,0,ls),
(506,0,o),
(511,4,o),
(512,9,cs),
(517,38,o),
(528,100,o),
(535,139,cs),
(537,150,o),
(528,151,o),
(523,143,cs),
(498,98,o),
(428,29,o),
(305,29,cs),
(232,29,ls),
(195,29,o),
(183,49,o),
(183,88,cs),
(183,334,ls),
(183,339,o),
(187,343,o),
(192,343,cs),
(407,343,ls),
(412,343,o),
(416,347,o),
(416,352,cs),
(416,365,ls),
(416,370,o),
(412,374,o),
(407,374,cs),
(191,374,ls),
(186,374,o),
(182,378,o),
(182,383,cs),
(182,669,ls),
(182,674,o),
(186,678,o),
(191,678,cs),
(265,678,ls),
(388,678,o),
(460,604,o),
(485,564,cs),
(490,556,o),
(499,558,o),
(497,568,cs),
(490,605,o),
(478,666,o),
(472,695,cs),
(471,700,o),
(466,704,o),
(461,704,cs),
(93,704,ls),
(88,704,o),
(85,700,o),
(85,695,cs),
(85,9,ls),
(85,4,o),
(89,0,o),
(94,0,cs)
);
}
);
width = 579;
},
{
layerId = "80C3F940-DAE7-4929-9C43-6EF0A304A7E9";
shapes = (
{
closed = 1;
nodes = (
(499,0,ls),
(504,0,o),
(509,4,o),
(510,9,cs),
(514,38,o),
(519,67,o),
(526,107,cs),
(528,118,o),
(519,119,o),
(514,111,cs),
(486,61,o),
(426,20,o),
(303,20,cs),
(194,20,ls),
(157,20,o),
(145,40,o),
(145,79,cs),
(145,340,ls),
(145,345,o),
(149,349,o),
(154,349,cs),
(388,349,ls),
(393,349,o),
(397,353,o),
(397,358,cs),
(397,359,ls),
(397,364,o),
(393,368,o),
(388,368,cs),
(154,368,ls),
(149,368,o),
(145,372,o),
(145,377,cs),
(145,680,ls),
(145,685,o),
(149,689,o),
(154,689,cs),
(259,689,ls),
(382,689,o),
(445,640,o),
(473,598,cs),
(478,590,o),
(487,592,o),
(485,602,cs),
(477,640,o),
(472,666,o),
(466,695,cs),
(465,700,o),
(460,704,o),
(455,704,cs),
(108,704,ls),
(103,704,o),
(100,700,o),
(100,695,cs),
(100,9,ls),
(100,4,o),
(104,0,o),
(109,0,cs)
);
}
);
width = 577;
}
);
unicode = 69;
},
{
glyphname = F;
kernLeft = E;
kernRight = E;
layers = (
{
layerId = "2812E460-E84E-4210-9915-0404F05954BE";
shapes = (
{
closed = 1;
nodes = (
(236,0,ls),
(241,0,o),
(245,4,o),
(245,9,cs),
(245,325,ls),
(245,330,o),
(249,334,o),
(254,334,cs),
(439,334,ls),
(444,334,o),
(448,338,o),
(448,343,cs),
(448,374,ls),
(448,379,o),
(444,383,o),
(439,383,cs),
(253,383,ls),
(248,383,o),
(244,387,o),
(244,392,cs),
(244,650,ls),
(244,655,o),
(248,659,o),
(253,659,cs),
(287,659,ls),
(413,659,o),
(496,539,o),
(512,508,cs),
(517,499,o),
(527,501,o),
(525,512,cs),
(517,548,o),
(494,668,o),
(489,695,cs),
(488,700,o),
(483,704,o),
(478,704,cs),
(68,704,ls),
(63,704,o),
(60,700,o),
(60,695,cs),
(60,9,ls),
(60,4,o),
(64,0,o),
(69,0,cs)
);
}
);
width = 560;
},
{
layerId = "18664310-B513-4AD7-8363-6A03F31309A0";
shapes = (
{
closed = 1;
nodes = (
(174,0,ls),
(179,0,o),
(183,4,o),
(183,9,cs),
(183,334,ls),
(183,339,o),
(187,343,o),
(192,343,cs),
(407,343,ls),
(412,343,o),
(416,347,o),
(416,352,cs),
(416,365,ls),
(416,370,o),
(412,374,o),
(407,374,cs),
(191,374,ls),
(186,374,o),
(182,378,o),
(182,383,cs),
(182,669,ls),
(182,674,o),
(186,678,o),
(191,678,cs),
(253,678,ls),
(362,678,o),
(452,625,o),
(491,559,cs),
(495,552,o),
(503,555,o),
(502,564,cs),
(496,601,o),
(485,665,o),
(480,695,cs),
(479,700,o),
(474,704,o),
(469,704,cs),
(93,704,ls),
(88,704,o),
(85,700,o),
(85,695,cs),
(85,9,ls),
(85,4,o),
(89,0,o),
(94,0,cs)
);
}
);
width = 547;
},
{
layerId = "80C3F940-DAE7-4929-9C43-6EF0A304A7E9";
shapes = (
{
closed = 1;
nodes = (
(137,0,ls),
(142,0,o),
(146,4,o),
(146,9,cs),
(146,340,ls),
(146,345,o),
(150,349,o),
(155,349,cs),
(388,349,ls),
(393,349,o),
(397,353,o),
(397,358,cs),
(397,359,ls),
(397,364,o),
(393,368,o),
(388,368,cs),
(154,368,ls),
(149,368,o),
(145,372,o),
(145,377,cs),
(145,680,ls),
(145,685,o),
(149,689,o),
(154,689,cs),
(233,689,ls),
(331,689,o),
(425,677,o),
(478,590,cs),
(482,584,o),
(489,587,o),
(488,595,cs),
(483,633,o),
(479,663,o),
(474,695,cs),
(473,700,o),
(468,704,o),
(463,704,cs),
(108,704,ls),
(103,704,o),
(100,700,o),
(100,695,cs),
(100,9,ls),
(100,4,o),
(104,0,o),
(109,0,cs)
);
}
);
width = 539;
}
);
unicode = 70;
},
{
glyphname = G;
kernLeft = G;
kernRight = G;
layers = (
{
layerId = "2812E460-E84E-4210-9915-0404F05954BE";
shapes = (
{
closed = 1;
nodes = (
(526,-20,o),
(617,15,o),
(681,72,cs),
(685,76,o),
(688,82,o),
(688,87,cs),
(688,330,ls),
(688,335,o),
(684,339,o),
(679,339,cs),
(514,339,ls),
(509,339,o),
(505,335,o),
(505,330,cs),
(504,43,ls),
(504,37,o),
(501,32,o),
(496,29,c),
(483,25,o),
(473,25,o),
(462,24,cs),
(333,7,o),
(263,110,o),
(234,320,cs),
(206,528,o),
(246,658,o),
(378,675,cs),
(496,691,o),
(569,606,o),
(607,450,cs),
(608,446,o),
(611,447,o),
(612,451,cs),
(670,628,ls),
(672,633,o),
(670,640,o),
(666,643,cs),
(600,694,o),
(516,720,o),
(419,720,cs),
(194,720,o),
(29,571,o),
(28,353,cs),
(26,130,o),
(192,-20,o),
(419,-20,cs)
);
}
);
width = 743;
},
{
layerId = "18664310-B513-4AD7-8363-6A03F31309A0";
shapes = (
{
closed = 1;
nodes = (
(518,-19,o),
(617,6,o),
(695,71,cs),
(699,75,o),
(702,80,o),
(702,88,cs),
(702,338,ls),
(702,343,o),
(698,347,o),
(693,347,cs),
(615,347,ls),
(610,347,o),
(606,343,o),
(606,338,cs),
(605,88,ls),
(605,81,o),
(603,75,o),
(600,72,c),
(588,51,o),
(527,19,o),
(468,12,cs),
(307,-7,o),
(192,109,o),
(167,320,cs),
(143,533,o),
(231,670,o),
(377,689,cs),
(490,705,o),
(588,640,o),
(632,496,cs),
(634,489,o),
(639,490,o),
(641,497,cs),
(681,621,ls),
(683,626,o),
(680,633,o),
(676,636,cs),
(610,686,o),
(517,721,o),
(420,721,cs),
(209,721,o),
(48,575,o),
(55,339,cs),
(60,121,o),
(217,-19,o),
(418,-19,cs)
);
}
);
width = 773;
},
{
layerId = "80C3F940-DAE7-4929-9C43-6EF0A304A7E9";
shapes = (
{
closed = 1;
nodes = (
(513,-19,o),
(617,1,o),
(704,71,cs),
(708,74,o),
(711,79,o),
(711,88,cs),
(711,343,ls),
(711,348,o),
(707,352,o),
(702,352,cs),
(675,352,ls),
(670,352,o),
(666,348,o),
(666,343,cs),
(666,115,ls),
(666,107,o),
(664,101,o),
(663,98,cs),
(651,66,o),
(560,15,o),
(472,5,cs),
(292,-15,o),
(149,109,o),
(127,320,cs),
(105,536,o),
(222,677,o),
(376,698,cs),
(487,713,o),
(599,660,o),
(647,524,cs),
(650,515,o),
(656,516,o),
(659,525,cs),
(687,617,ls),
(689,622,o),
(686,629,o),
(682,632,cs),
(616,681,o),
(518,721,o),
(421,721,cs),
(218,721,o),
(60,577,o),
(71,331,cs),
(81,116,o),
(232,-19,o),
(418,-19,cs)
);
}
);
width = 791;
}
);
unicode = 71;
},
{
glyphname = H;
kernLeft = H;
kernRight = H;
layers = (
{
layerId = "2812E460-E84E-4210-9915-0404F05954BE";
shapes = (
{
closed = 1;
nodes = (
(237,0,ls),
(242,0,o),
(246,4,o),
(246,9,cs),
(246,329,ls),
(246,334,o),
(250,338,o),
(255,338,cs),
(495,338,ls),
(500,338,o),
(504,334,o),
(504,329,cs),
(504,9,ls),
(504,4,o),
(508,0,o),
(513,0,cs),
(680,0,ls),
(685,0,o),
(689,4,o),
(689,9,cs),
(689,695,ls),
(689,700,o),
(685,704,o),
(680,704,cs),
(513,704,ls),
(508,704,o),
(504,700,o),
(504,695,cs),
(504,395,ls),
(504,390,o),
(500,386,o),
(495,386,cs),
(255,386,ls),
(250,386,o),
(246,390,o),
(246,395,cs),
(246,695,ls),
(246,700,o),
(242,704,o),
(237,704,cs),
(69,704,ls),
(64,704,o),
(60,700,o),
(60,695,cs),
(60,9,ls),
(60,4,o),
(64,0,o),
(69,0,cs)
);
}
);
width = 749;
},
{
layerId = "18664310-B513-4AD7-8363-6A03F31309A0";
shapes = (
{
closed = 1;
nodes = (
(174,0,ls),
(179,0,o),
(183,4,o),
(183,9,cs),
(183,336,ls),
(183,341,o),
(187,345,o),
(192,345,cs),
(546,345,ls),
(551,345,o),
(555,341,o),
(555,336,cs),
(555,9,ls),
(555,4,o),
(559,0,o),
(564,0,cs),
(644,0,ls),
(649,0,o),
(653,4,o),
(653,9,cs),
(653,695,ls),
(653,700,o),
(649,704,o),
(644,704,cs),
(564,704,ls),
(559,704,o),
(555,700,o),
(555,695,cs),
(555,384,ls),
(555,379,o),
(551,375,o),
(546,375,cs),
(192,375,ls),
(187,375,o),
(183,379,o),
(183,384,cs),
(183,695,ls),
(183,700,o),
(179,704,o),
(174,704,cs),
(94,704,ls),
(89,704,o),
(85,700,o),
(85,695,cs),
(85,9,ls),
(85,4,o),
(89,0,o),
(94,0,cs)
);
}
);
width = 738;
},
{
layerId = "80C3F940-DAE7-4929-9C43-6EF0A304A7E9";
shapes = (
{
closed = 1;
nodes = (
(136,0,ls),
(141,0,o),
(145,4,o),
(145,9,cs),
(145,340,ls),
(145,345,o),
(149,349,o),
(154,349,cs),
(577,349,ls),
(582,349,o),
(586,345,o),
(586,340,cs),
(586,9,ls),
(586,4,o),
(590,0,o),
(595,0,cs),
(622,0,ls),
(627,0,o),
(631,4,o),
(631,9,cs),
(631,695,ls),
(631,700,o),
(627,704,o),
(622,704,cs),
(595,704,ls),
(590,704,o),
(586,700,o),
(586,695,cs),
(586,377,ls),
(586,372,o),
(582,368,o),
(577,368,cs),
(154,368,ls),
(149,368,o),
(145,372,o),
(145,377,cs),
(145,695,ls),
(145,700,o),
(141,704,o),
(136,704,cs),
(109,704,ls),
(104,704,o),
(100,700,o),
(100,695,cs),
(100,9,ls),
(100,4,o),
(104,0,o),
(109,0,cs)
);
}
);
width = 731;
}
);
unicode = 72;
},
{
glyphname = I;
kernLeft = I;
kernRight = I;
layers = (
{
hints = (
{
horizontal = 1;
place = (-6,23);
type = Stem;
},
{
horizontal = 1;
place = (789,45);
type = Stem;
},
{
place = (256,171);
type = Stem;
}
);
layerId = "2812E460-E84E-4210-9915-0404F05954BE";
shapes = (
{
closed = 1;
nodes = (
(237,0,ls),
(242,0,o),
(246,4,o),
(246,9,cs),
(246,695,ls),
(246,700,o),
(242,704,o),
(237,704,cs),
(69,704,ls),
(64,704,o),
(60,700,o),
(60,695,cs),
(60,9,ls),
(60,4,o),
(64,0,o),
(69,0,cs)
);
}
);
width = 306;
},
{
hints = (
{
horizontal = 1;
place = (-2,9);
type = Stem;
},
{
horizontal = 1;
place = (296,17);
type = Stem;
},
{
place = (96,64);
type = Stem;
}
);
layerId = "18664310-B513-4AD7-8363-6A03F31309A0";
shapes = (
{
closed = 1;
nodes = (
(174,0,ls),
(179,0,o),
(183,4,o),
(183,9,cs),
(183,695,ls),
(183,700,o),
(179,704,o),
(174,704,cs),
(94,704,ls),
(89,704,o),
(85,700,o),
(85,695,cs),
(85,9,ls),
(85,4,o),
(89,0,o),
(94,0,cs)
);
}
);
width = 268;
},
{
layerId = "80C3F940-DAE7-4929-9C43-6EF0A304A7E9";
shapes = (
{
closed = 1;
nodes = (
(136,0,ls),
(141,0,o),
(145,4,o),
(145,9,cs),
(145,695,ls),
(145,700,o),
(141,704,o),
(136,704,cs),
(109,704,ls),
(104,704,o),
(100,700,o),
(100,695,cs),
(100,9,ls),
(100,4,o),
(104,0,o),
(109,0,cs)
);
}
);
width = 245;
}
);
unicode = 73;
},
{
glyphname = J;
kernLeft = J;
kernRight = J;
layers = (
{
layerId = "2812E460-E84E-4210-9915-0404F05954BE";
shapes = (
{
closed = 1;
nodes = (
(398,-6,o),
(484,85,o),
(484,228,cs),
(484,695,ls),
(484,700,o),
(480,704,o),
(475,704,cs),
(307,704,ls),
(302,704,o),
(298,700,o),
(298,695,cs),
(298,229,ls),
(298,164,o),
(307,45,o),
(241,22,cs),
(152,-7,o),
(108,96,o),
(52,197,cs),
(48,205,o),
(38,202,o),
(38,193,c),
(39,167,o),
(45,78,o),
(46,40,c),
(46,35,o),
(50,28,o),
(54,25,cs),
(111,-20,o),
(187,-26,o),
(248,-20,cs)
);
}
);
width = 536;
},
{
layerId = "18664310-B513-4AD7-8363-6A03F31309A0";
shapes = (
{
closed = 1;
nodes = (
(379,-2,o),
(425,87,o),
(425,230,cs),
(425,695,ls),
(425,700,o),
(421,704,o),
(416,704,cs),
(336,704,ls),
(331,704,o),
(327,700,o),
(327,695,cs),
(327,231,ls),
(327,166,o),
(335,34,o),
(238,11,cs),
(141,-13,o),
(79,58,o),
(27,169,c),
(24,177,o),
(14,175,o),
(15,166,cs),
(17,138,o),
(22,79,o),
(25,42,c),
(25,37,o),
(27,31,o),
(31,28,cs),
(90,-14,o),
(171,-25,o),
(232,-18,cs)
);
}
);
width = 507;
},
{
layerId = "80C3F940-DAE7-4929-9C43-6EF0A304A7E9";
shapes = (
{
closed = 1;
nodes = (
(368,1,o),
(390,88,o),
(390,231,cs),
(390,695,ls),
(390,700,o),
(386,704,o),
(381,704,cs),
(354,704,ls),
(349,704,o),
(345,700,o),
(345,695,cs),
(345,232,ls),
(345,167,o),
(352,27,o),
(236,4,cs),
(134,-16,o),
(61,35,o),
(12,152,cs),
(9,160,o),
(0,159,o),
(1,150,cs),
(4,120,o),
(8,80,o),
(12,43,cs),
(13,38,o),
(13,33,o),
(17,30,cs),
(78,-10,o),
(162,-25,o),
(223,-17,cs)
);
}
);
width = 490;
}
);
unicode = 74;
},
{
glyphname = K;
kernLeft = K;
kernRight = K;
layers = (
{
layerId = "2812E460-E84E-4210-9915-0404F05954BE";
shapes = (
{
closed = 1;
nodes = (
(237,0,ls),
(242,0,o),
(246,4,o),
(246,9,cs),
(246,270,ls),
(246,275,o),
(249,283,o),
(252,287,cs),
(287,331,ls),
(290,335,o),
(294,334,o),
(297,329,cs),
(461,8,ls),
(464,3,o),
(469,0,o),
(474,0,cs),
(670,0,ls),
(675,0,o),
(678,3,o),
(675,8,cs),
(420,474,ls),
(417,479,o),
(419,486,o),
(422,489,cs),
(596,697,ls),
(599,701,o),
(598,704,o),
(593,704,cs),
(418,704,ls),
(413,704,o),
(411,701,o),
(414,696,cs),
(445,644,o),
(425,564,o),
(368,497,cs),
(323,443,o),
(268,377,o),
(252,356,cs),
(248,352,o),
(246,353,o),
(246,358,cs),
(246,695,ls),
(246,700,o),
(242,704,o),
(237,704,cs),
(69,704,ls),
(64,704,o),
(60,700,o),
(60,695,cs),
(60,9,ls),
(60,4,o),
(64,0,o),
(69,0,cs)
);
}
);
width = 685;
},
{
layerId = "18664310-B513-4AD7-8363-6A03F31309A0";
shapes = (
{
closed = 1;
nodes = (
(174,0,ls),
(179,0,o),
(183,4,o),
(183,9,cs),
(183,269,ls),
(183,276,o),
(185,281,o),
(189,286,cs),
(273,377,ls),
(276,380,o),
(280,380,o),
(283,375,cs),
(522,8,ls),
(526,2,o),
(530,0,o),
(535,0,cs),
(629,0,ls),
(634,0,o),
(638,3,o),
(634,8,cs),
(346,447,l),
(343,453,o),
(344,458,o),
(348,462,cs),
(564,697,ls),
(568,701,o),
(566,704,o),
(561,704,cs),
(433,704,ls),
(428,704,o),
(427,702,o),
(428,696,c),
(444,640,o),
(426,585,o),
(382,536,cs),
(328,477,o),
(222,363,o),
(189,327,cs),
(185,323,o),
(183,324,o),
(183,329,cs),
(183,695,ls),
(183,700,o),
(179,704,o),
(174,704,cs),
(94,704,ls),
(89,704,o),
(85,700,o),
(85,695,cs),
(85,9,ls),
(85,4,o),
(89,0,o),
(94,0,cs)
);
}
);
width = 639;
},
{
layerId = "80C3F940-DAE7-4929-9C43-6EF0A304A7E9";
shapes = (
{
closed = 1;
nodes = (
(136,0,ls),
(141,0,o),
(145,4,o),
(145,9,cs),
(145,269,ls),
(145,277,o),
(147,280,o),
(151,285,cs),
(264,404,ls),
(267,407,o),
(271,407,o),
(274,403,cs),
(558,8,ls),
(563,2,o),
(566,0,o),
(571,0,cs),
(605,0,ls),
(610,0,o),
(614,3,o),
(610,8,cs),
(302,431,ls),
(298,437,o),
(299,441,o),
(304,446,cs),
(545,697,ls),
(549,701,o),
(547,704,o),
(542,704,cs),
(442,704,ls),
(437,704,o),
(436,702,o),
(437,696,cs),
(443,637,o),
(426,597,o),
(391,560,cs),
(331,497,o),
(195,355,o),
(151,309,cs),
(147,305,o),
(145,306,o),
(145,311,cs),
(145,695,ls),
(145,700,o),
(141,704,o),
(136,704,cs),
(109,704,ls),
(104,704,o),
(100,700,o),
(100,695,cs),
(100,9,ls),
(100,4,o),
(104,0,o),
(109,0,cs)
);
}
);
width = 612;
}
);
unicode = 75;
},
{
glyphname = L;
kernLeft = L;
kernRight = L;
layers = (
{
layerId = "2812E460-E84E-4210-9915-0404F05954BE";
shapes = (
{
closed = 1;
nodes = (
(489,0,ls),
(494,0,o),
(499,4,o),
(500,9,cs),
(535,191,ls),
(537,201,o),
(526,204,o),
(521,196,cs),
(501,162,o),
(415,44,o),
(312,44,cs),
(295,44,ls),
(259,44,o),
(246,63,o),
(246,103,cs),
(246,695,ls),
(246,700,o),
(242,704,o),
(237,704,cs),
(69,704,ls),
(64,704,o),
(60,700,o),
(60,695,cs),
(60,9,ls),
(60,4,o),
(64,0,o),
(69,0,cs)
);
}
);
width = 551;
},
{
layerId = "18664310-B513-4AD7-8363-6A03F31309A0";
shapes = (
{
closed = 1;
nodes = (
(500,0,ls),
(505,0,o),
(510,4,o),
(511,9,cs),
(536,146,ls),
(538,157,o),
(527,160,o),
(522,151,cs),
(497,99,o),
(426,29,o),
(323,29,cs),
(232,29,ls),
(196,29,o),
(183,48,o),
(183,88,cs),
(183,695,ls),
(183,700,o),
(179,704,o),
(174,704,cs),
(94,704,ls),
(89,704,o),
(85,700,o),
(85,695,cs),
(85,9,ls),
(85,4,o),
(89,0,o),
(94,0,cs)
);
}
);
width = 542;
},
{
layerId = "80C3F940-DAE7-4929-9C43-6EF0A304A7E9";
shapes = (
{
closed = 1;
nodes = (
(507,0,ls),
(512,0,o),
(517,4,o),
(518,9,cs),
(536,119,ls),
(538,130,o),
(527,133,o),
(523,124,cs),
(495,61,o),
(433,20,o),
(330,20,cs),
(194,20,ls),
(158,20,o),
(145,39,o),
(145,79,cs),
(145,695,ls),
(145,700,o),
(141,704,o),
(136,704,cs),
(109,704,ls),
(104,704,o),
(100,700,o),
(100,695,cs),
(100,9,ls),
(100,4,o),
(104,0,o),
(109,0,cs)
);
}
);
width = 537;
}
);
unicode = 76;
},
{
glyphname = M;
kernLeft = M;
kernRight = M;
layers = (
{
layerId = "2812E460-E84E-4210-9915-0404F05954BE";
shapes = (
{
closed = 1;
nodes = (
(226,0,ls),
(232,0,o),
(235,7,o),
(229,11,cs),
(171,51,o),
(108,129,o),
(108,229,cs),
(108,526,ls),
(108,548,o),
(110,549,o),
(120,528,cs),
(371,8,ls),
(373,3,o),
(379,0,o),
(384,0,cs),
(470,0,ls),
(475,0,o),
(480,4,o),
(482,9,cs),
(667,541,ls),
(671,553,o),
(674,553,o),
(674,540,cs),
(674,9,ls),
(674,4,o),
(678,0,o),
(683,0,cs),
(851,0,ls),
(856,0,o),
(860,4,o),
(860,9,cs),
(860,695,ls),
(860,700,o),
(856,704,o),
(851,704,cs),
(682,704,ls),
(677,704,o),
(672,700,o),
(670,695,cs),
(496,194,ls),
(492,183,o),
(489,183,o),
(484,193,cs),
(242,696,ls),
(240,701,o),
(235,704,o),
(230,704,cs),
(72,704,ls),
(67,704,o),
(63,700,o),
(63,695,cs),
(63,9,ls),
(63,4,o),
(67,0,o),
(72,0,cs)
);
}
);
width = 920;
},
{
layerId = "18664310-B513-4AD7-8363-6A03F31309A0";
shapes = (
{
closed = 1;
nodes = (
(201,0,ls),
(207,0,o),
(209,7,o),
(203,10,cs),
(126,54,o),
(100,136,o),
(100,236,cs),
(100,612,ls),
(100,626,o),
(104,628,o),
(111,614,c),
(370,7,ls),
(372,2,o),
(376,0,o),
(381,0,cs),
(414,0,ls),
(419,0,o),
(424,4,o),
(426,9,cs),
(652,592,ls),
(657,604,o),
(659,604,o),
(659,591,cs),
(659,9,ls),
(659,4,o),
(663,0,o),
(668,0,cs),
(748,0,ls),
(753,0,o),
(757,4,o),
(757,9,cs),
(757,695,ls),
(757,700,o),
(753,704,o),
(748,704,cs),
(673,704,ls),
(668,704,o),
(663,700,o),
(661,695,cs),
(437,118,ls),
(433,107,o),
(429,107,o),
(425,117,cs),
(177,696,ls),
(175,701,o),
(170,704,o),
(165,704,cs),
(83,704,ls),
(78,704,o),
(74,700,o),
(74,695,cs),
(74,9,ls),
(74,4,o),
(78,0,o),
(83,0,cs)
);
}
);
width = 842;
},
{
layerId = "80C3F940-DAE7-4929-9C43-6EF0A304A7E9";
shapes = (
{
closed = 1;
nodes = (
(186,0,ls),
(192,0,o),
(194,7,o),
(188,10,cs),
(99,56,o),
(95,140,o),
(95,240,cs),
(95,663,ls),
(95,673,o),
(100,676,o),
(105,665,cs),
(370,7,ls),
(372,2,o),
(374,0,o),
(379,0,cs),
(380,0,ls),
(385,0,o),
(390,4,o),
(392,9,cs),
(643,623,ls),
(648,635,o),
(650,635,o),
(650,622,cs),
(650,9,ls),
(650,4,o),
(654,0,o),
(659,0,cs),
(686,0,ls),
(691,0,o),
(695,4,o),
(695,9,cs),
(695,695,ls),
(695,700,o),
(691,704,o),
(686,704,cs),
(668,704,ls),
(663,704,o),
(658,700,o),
(656,695,cs),
(401,72,ls),
(397,61,o),
(393,61,o),
(389,71,cs),
(138,696,ls),
(136,701,o),
(131,704,o),
(126,704,cs),
(89,704,ls),
(84,704,o),
(80,700,o),
(80,695,cs),
(80,9,ls),
(80,4,o),
(84,0,o),
(89,0,cs)
);
}
);
width = 795;
}
);
unicode = 77;
},
{
glyphname = N;
kernLeft = N;
kernRight = N;
layers = (
{
anchors = (
{
name = left;
pos = (-17,269);
},
{
name = left.1;
pos = (4,232);
}
);
layerId = "2812E460-E84E-4210-9915-0404F05954BE";
shapes = (
{
closed = 1;
nodes = (
(213,0,ls),
(220,0,o),
(221,3,o),
(215,7,cs),
(150,53,o),
(106,108,o),
(106,230,cs),
(106,543,ls),
(106,553,o),
(110,554,o),
(116,547,cs),
(583,7,ls),
(586,3,o),
(593,0,o),
(598,0,cs),
(624,0,ls),
(629,0,o),
(633,4,o),
(633,9,cs),
(633,695,ls),
(633,700,o),
(629,704,o),
(624,704,cs),
(482,704,ls),
(475,704,o),
(473,702,o),
(479,697,cs),
(548,638,o),
(588,542,o),
(588,477,cs),
(588,303,ls),
(588,294,o),
(584,293,o),
(578,300,cs),
(236,697,ls),
(233,701,o),
(226,704,o),
(221,704,cs),
(-5,704,ls),
(-13,704,o),
(-15,701,o),
(-11,695,cs),
(56,609,ls),
(58,606,o),
(62,598,o),
(62,593,cs),
(62,9,ls),
(62,4,o),
(66,0,o),
(71,0,cs)
);
}
);
width = 695;
},
{
anchors = (
{
name = left;
pos = (-17,269);
},
{
name = left.1;
pos = (4,232);
}
);
layerId = "18664310-B513-4AD7-8363-6A03F31309A0";
shapes = (
{
closed = 1;
nodes = (
(210,0,ls),
(217,0,o),
(218,4,o),
(212,8,cs),
(141,56,o),
(115,108,o),
(115,230,cs),
(115,599,ls),
(115,609,o),
(119,610,o),
(125,603,cs),
(590,7,ls),
(593,3,o),
(600,0,o),
(605,0,cs),
(616,0,ls),
(621,0,o),
(625,4,o),
(625,9,cs),
(625,695,ls),
(625,700,o),
(621,704,o),
(616,704,cs),
(503,704,ls),
(496,704,o),
(494,701,o),
(500,697,cs),
(572,644,o),
(599,564,o),
(599,491,cs),
(599,165,ls),
(599,156,o),
(594,155,o),
(589,162,cs),
(176,697,ls),
(173,701,o),
(166,704,o),
(161,704,cs),
(52,704,ls),
(45,704,o),
(43,700,o),
(48,695,c),
(83,652,ls),
(87,647,o),
(89,641,o),
(89,636,cs),
(89,9,ls),
(89,4,o),
(93,0,o),
(98,0,cs)
);
}
);
width = 698;
},
{
anchors = (
{
name = left;
pos = (-17,269);
},
{
name = left.1;
pos = (4,232);
}
);
layerId = "80C3F940-DAE7-4929-9C43-6EF0A304A7E9";
shapes = (
{
closed = 1;
nodes = (
(208,0,ls),
(215,0,o),
(216,4,o),
(210,8,cs),
(136,58,o),
(120,108,o),
(120,230,cs),
(120,633,ls),
(120,643,o),
(125,644,o),
(130,637,cs),
(594,7,ls),
(597,3,o),
(604,0,o),
(609,0,cs),
(611,0,ls),
(616,0,o),
(620,4,o),
(620,9,cs),
(620,695,ls),
(620,700,o),
(616,704,o),
(611,704,cs),
(515,704,ls),
(508,704,o),
(506,701,o),
(512,697,cs),
(586,647,o),
(605,577,o),
(605,500,cs),
(605,82,ls),
(605,73,o),
(600,72,o),
(595,79,cs),
(140,697,ls),
(137,701,o),
(130,704,o),
(125,704,cs),
(86,704,ls),
(80,704,o),
(78,700,o),
(83,695,cs),
(99,678,ls),
(105,672,o),
(105,667,o),
(105,662,cs),
(105,9,ls),
(105,4,o),
(109,0,o),
(114,0,cs)
);
}
);
width = 700;
}
);
unicode = 78;
},
{
glyphname = O;
kernLeft = O;
kernRight = O;
layers = (
{
layerId = "2812E460-E84E-4210-9915-0404F05954BE";
shapes = (
{
closed = 1;
nodes = (
(637,-19,o),
(804,128,o),
(804,350,cs),
(804,572,o),
(637,720,o),
(415,720,cs),
(193,720,o),
(28,572,o),
(28,350,cs),
(28,128,o),
(193,-19,o),
(415,-19,cs)
);
},
{
closed = 1;
nodes = (
(328,9,o),
(262,115,o),
(234,322,cs),
(207,528,o),
(244,657,o),
(373,674,cs),
(504,692,o),
(570,585,o),
(598,377,cs),
(626,171,o),
(588,44,o),
(459,27,cs)
);
}
);
width = 830;
},
{
layerId = "18664310-B513-4AD7-8363-6A03F31309A0";
shapes = (
{
closed = 1;
nodes = (
(656,-19,o),
(816,128,o),
(816,350,cs),
(816,572,o),
(656,720,o),
(434,720,cs),
(212,720,o),
(54,572,o),
(54,350,cs),
(54,128,o),
(212,-19,o),
(434,-19,cs)
);
},
{
closed = 1;
nodes = (
(336,-7,o),
(196,97,o),
(167,312,cs),
(138,533,o),
(238,668,o),
(389,688,cs),
(532,708,o),
(673,607,o),
(702,391,cs),
(732,170,o),
(630,33,o),
(479,13,cs)
);
}
);
width = 869;
},
{
layerId = "80C3F940-DAE7-4929-9C43-6EF0A304A7E9";
shapes = (
{
closed = 1;
nodes = (
(668,-19,o),
(823,128,o),
(823,350,cs),
(823,572,o),
(668,720,o),
(446,720,cs),
(224,720,o),
(70,572,o),
(70,350,cs),
(70,128,o),
(224,-19,o),
(446,-19,cs)
);
},
{
closed = 1;
nodes = (
(341,-16,o),
(156,86,o),
(127,306,cs),
(97,536,o),
(235,675,o),
(399,697,cs),
(549,717,o),
(735,620,o),
(765,400,cs),
(796,170,o),
(655,26,o),
(491,4,cs)
);
}
);
width = 893;
}
);
unicode = 79;
},
{
glyphname = P;
kernLeft = P;
kernRight = P;
layers = (
{
layerId = "2812E460-E84E-4210-9915-0404F05954BE";
shapes = (
{
closed = 1;
nodes = (
(236,0,ls),
(241,0,o),
(245,4,o),
(245,9,cs),
(246,291,ls),
(246,296,o),
(250,301,o),
(255,301,cs),
(311,301,ls),
(558,301,o),
(679,347,o),
(670,518,cs),
(662,683,o),
(491,708,o),
(356,708,cs),
(69,708,ls),
(64,708,o),
(60,704,o),
(60,699,cs),
(60,9,ls),
(60,4,o),
(64,0,o),
(69,0,cs)
);
},
{
closed = 1;
nodes = (
(255,345,ls),
(250,345,o),
(246,349,o),
(246,354,cs),
(246,655,ls),
(246,660,o),
(250,664,o),
(255,664,cs),
(322,664,ls),
(414,664,o),
(477,600,o),
(475,475,cs),
(474,373,o),
(373,345,o),
(311,345,cs)
);
}
);
width = 690;
},
{
layerId = "18664310-B513-4AD7-8363-6A03F31309A0";
shapes = (
{
closed = 1;
nodes = (
(172,0,ls),
(177,0,o),
(181,4,o),
(181,9,cs),
(182,264,ls),
(182,269,o),
(186,273,o),
(191,273,cs),
(275,273,ls),
(470,273,o),
(571,342,o),
(559,502,cs),
(549,642,o),
(422,686,o),
(275,686,cs),
(94,686,ls),
(89,686,o),
(85,682,o),
(85,677,cs),
(85,9,ls),
(85,4,o),
(89,0,o),
(94,0,cs)
);
},
{
closed = 1;
nodes = (
(191,302,ls),
(186,302,o),
(182,306,o),
(182,311,cs),
(182,652,ls),
(182,657,o),
(186,661,o),
(191,661,cs),
(248,661,ls),
(368,661,o),
(446,612,o),
(454,482,cs),
(461,369,o),
(387,302,o),
(283,302,cs)
);
}
);
width = 611;
},
{
layerId = "80C3F940-DAE7-4929-9C43-6EF0A304A7E9";
shapes = (
{
closed = 1;
nodes = (
(134,0,ls),
(139,0,o),
(142,4,o),
(142,9,cs),
(143,248,ls),
(143,253,o),
(147,256,o),
(152,256,cs),
(253,256,ls),
(417,256,o),
(506,339,o),
(492,492,cs),
(481,618,o),
(380,673,o),
(227,673,cs),
(109,673,ls),
(104,673,o),
(100,669,o),
(100,664,cs),
(100,9,ls),
(100,4,o),
(104,0,o),
(109,0,cs)
);
},
{
closed = 1;
nodes = (
(152,276,ls),
(147,276,o),
(143,280,o),
(143,285,cs),
(143,650,ls),
(143,655,o),
(147,659,o),
(152,659,cs),
(203,659,ls),
(340,659,o),
(428,619,o),
(441,486,cs),
(453,367,o),
(395,276,o),
(266,276,cs)
);
}
);
width = 564;
}
);
unicode = 80;
},
{
glyphname = Q;
kernLeft = Q;
kernRight = Q;
layers = (
{
anchors = (
{
name = right;
pos = (844,352);
}
);
layerId = "2812E460-E84E-4210-9915-0404F05954BE";
shapes = (
{
closed = 1;
nodes = (
(728,-198,o),
(733,-198,o),
(736,-192,cs),
(820,-44,ls),
(824,-38,o),
(822,-34,o),
(815,-33,cs),
(551,-12,ls),
(527,-10,o),
(527,-6,o),
(550,1,cs),
(701,48,o),
(804,177,o),
(804,350,cs),
(804,572,o),
(637,720,o),
(415,720,cs),
(193,720,o),
(28,572,o),
(28,350,cs),
(28,137,o),
(182,-10,o),
(394,-19,cs),
(415,-20,o),
(431,-20,o),
(436,-21,cs),
(492,-28,o),
(652,-59,o),
(725,-192,cs)
);
},
{
closed = 1;
nodes = (
(328,8,o),
(260,114,o),
(231,320,cs),
(203,527,o),
(239,658,o),
(371,675,cs),
(504,694,o),
(571,588,o),
(600,381,cs),
(629,173,o),
(593,45,o),
(459,26,cs)
);
}
);
width = 836;
},
{
anchors = (
{
name = right;
pos = (844,352);
}
);
layerId = "18664310-B513-4AD7-8363-6A03F31309A0";
shapes = (
{
closed = 1;
nodes = (
(770,-164,o),
(774,-163,o),
(777,-158,cs),
(838,-48,l),
(842,-42,o),
(839,-38,o),
(831,-37,cs),
(570,-12,ls),
(546,-10,o),
(546,-6,o),
(569,1,cs),
(719,48,o),
(816,177,o),
(816,350,cs),
(816,572,o),
(656,720,o),
(434,720,cs),
(212,720,o),
(54,572,o),
(54,350,cs),
(54,134,o),
(206,-14,o),
(421,-19,cs),
(434,-19,o),
(446,-19,o),
(453,-20,c),
(513,-21,o),
(681,-40,o),
(765,-158,cs)
);
},
{
closed = 1;
nodes = (
(330,-6,o),
(192,101,o),
(165,320,cs),
(138,537,o),
(243,669,o),
(390,689,cs),
(540,710,o),
(680,599,o),
(705,381,cs),
(730,164,o),
(625,31,o),
(478,12,cs)
);
}
);
width = 872;
},
{
anchors = (
{
name = right;
pos = (844,352);
}
);
layerId = "80C3F940-DAE7-4929-9C43-6EF0A304A7E9";
shapes = (
{
closed = 1;
nodes = (
(795,-144,o),
(798,-142,o),
(801,-137,cs),
(849,-51,ls),
(853,-44,o),
(849,-40,o),
(841,-39,cs),
(582,-12,ls),
(558,-10,o),
(558,-6,o),
(581,1,cs),
(730,48,o),
(823,177,o),
(823,350,cs),
(823,572,o),
(668,720,o),
(446,720,cs),
(224,720,o),
(70,572,o),
(70,350,cs),
(70,132,o),
(220,-16,o),
(437,-19,cs),
(446,-19,o),
(455,-19,o),
(463,-19,c),
(525,-17,o),
(698,-28,o),
(789,-137,cs)
);
},
{
closed = 1;
nodes = (
(331,-15,o),
(151,93,o),
(125,320,cs),
(99,543,o),
(245,675,o),
(402,697,cs),
(561,719,o),
(745,606,o),
(768,381,cs),
(791,159,o),
(644,22,o),
(490,4,cs)
);
}
);
width = 893;
}
);
unicode = 81;
},
{
glyphname = R;
kernLeft = R;
kernRight = R;
layers = (
{
layerId = "2812E460-E84E-4210-9915-0404F05954BE";
shapes = (
{
closed = 1;
nodes = (
(236,0,ls),
(241,0,o),
(245,4,o),
(245,9,cs),
(246,294,ls),
(246,299,o),
(251,303,o),
(257,303,cs),
(290,303,ls),
(295,303,o),
(301,300,o),
(303,295,cs),
(440,8,ls),
(442,3,o),
(448,0,o),
(453,0,cs),
(644,0,ls),
(651,0,o),
(652,4,o),
(649,10,cs),
(479,309,ls),
(476,314,o),
(479,318,o),
(484,319,cs),
(611,350,o),
(665,424,o),
(656,540,cs),
(646,675,o),
(491,704,o),
(352,704,cs),
(69,704,ls),
(64,704,o),
(60,700,o),
(60,695,cs),
(60,9,ls),
(60,4,o),
(64,0,o),
(69,0,cs)
);
},
{
closed = 1;
nodes = (
(256,347,ls),
(251,347,o),
(246,351,o),
(246,356,cs),
(246,650,ls),
(246,655,o),
(251,659,o),
(256,659,cs),
(323,659,ls),
(410,659,o),
(458,604,o),
(464,488,cs),
(468,388,o),
(380,347,o),
(314,347,cs)
);
}
);
width = 673;
},
{
layerId = "18664310-B513-4AD7-8363-6A03F31309A0";
shapes = (
{
closed = 1;
nodes = (
(173,0,ls),
(178,0,o),
(182,4,o),
(182,9,cs),
(183,303,ls),
(183,308,o),
(187,312,o),
(192,312,cs),
(297,312,ls),
(302,312,o),
(308,309,o),
(310,304,cs),
(454,8,ls),
(456,3,o),
(462,0,o),
(467,0,cs),
(556,0,ls),
(563,0,o),
(564,4,o),
(561,10,cs),
(401,314,ls),
(398,319,o),
(401,323,o),
(406,324,cs),
(519,352,o),
(564,425,o),
(555,529,cs),
(541,676,o),
(394,704,o),
(286,704,cs),
(94,704,ls),
(89,704,o),
(85,700,o),
(85,695,cs),
(85,9,ls),
(85,4,o),
(89,0,o),
(94,0,cs)
);
},
{
closed = 1;
nodes = (
(192,341,ls),
(187,341,o),
(183,345,o),
(183,350,cs),
(183,669,ls),
(183,674,o),
(188,678,o),
(193,678,cs),
(264,678,ls),
(364,678,o),
(442,630,o),
(450,504,cs),
(457,385,o),
(383,341,o),
(291,341,cs)
);
}
);
width = 571;
},
{
layerId = "80C3F940-DAE7-4929-9C43-6EF0A304A7E9";
shapes = (
{
closed = 1;
nodes = (
(135,0,ls),
(140,0,o),
(144,4,o),
(144,9,cs),
(145,309,ls),
(145,314,o),
(148,318,o),
(153,318,cs),
(301,318,ls),
(306,318,o),
(312,315,o),
(314,310,cs),
(462,8,ls),
(464,3,o),
(470,0,o),
(475,0,cs),
(503,0,ls),
(510,0,o),
(511,4,o),
(508,10,cs),
(354,317,ls),
(351,322,o),
(354,326,o),
(359,327,cs),
(464,353,o),
(504,426,o),
(494,523,cs),
(478,677,o),
(336,704,o),
(247,704,cs),
(109,704,ls),
(104,704,o),
(100,700,o),
(100,695,cs),
(100,9,ls),
(100,4,o),
(104,0,o),
(109,0,cs)
);
},
{
closed = 1;
nodes = (
(154,338,ls),
(149,338,o),
(145,342,o),
(145,347,cs),
(145,680,ls),
(145,685,o),
(150,689,o),
(155,689,cs),
(229,689,ls),
(336,689,o),
(433,646,o),
(442,514,cs),
(451,383,o),
(385,338,o),
(277,338,cs)
);
}
);
width = 510;
}
);
unicode = 82;
},
{
glyphname = S;
kernLeft = S;
kernRight = S;
layers = (
{
layerId = "2812E460-E84E-4210-9915-0404F05954BE";
shapes = (
{
closed = 1;
nodes = (
(407,-19,o),
(534,30,o),
(535,177,cs),
(536,301,o),
(448,359,o),
(370,426,cs),
(330,462,o),
(296,489,o),
(274,513,cs),
(256,533,o),
(247,554,o),
(242,578,c),
(239,618,o),
(256,646,o),
(278,660,cs),
(294,671,o),
(311,675,o),
(332,675,cs),
(360,675,o),
(381,666,o),
(401,650,c),
(438,623,o),
(467,566,o),
(502,483,cs),
(503,481,o),
(504,480,o),
(506,480,cs),
(509,480,o),
(512,482,o),
(512,485,c),
(510,511,o),
(507,604,o),
(503,658,c),
(504,662,o),
(499,669,o),
(495,672,cs),
(433,713,o),
(366,720,o),
(306,719,cs),
(191,719,o),
(60,652,o),
(58,522,cs),
(57,421,o),
(138,355,o),
(203,298,cs),
(255,252,o),
(301,217,o),
(322,192,cs),
(343,168,o),
(354,149,o),
(357,126,cs),
(359,112,o),
(360,100,o),
(355,87,cs),
(350,71,o),
(339,57,o),
(330,49,cs),
(313,34,o),
(293,25,o),
(268,25,cs),
(179,24,o),
(85,102,o),
(31,283,cs),
(30,286,o),
(25,291,o),
(23,291,cs),
(18,291,o),
(16,286,o),
(16,283,c),
(28,84,l),
(28,79,o),
(33,73,o),
(36,70,cs),
(108,14,o),
(191,-19,o),
(271,-19,cs)
);
}
);
width = 554;
},
{
layerId = "18664310-B513-4AD7-8363-6A03F31309A0";
shapes = (
{
closed = 1;
nodes = (
(406,-19,o),
(517,49,o),
(513,187,cs),
(510,292,o),
(423,345,o),
(323,407,cs),
(267,440,o),
(219,470,o),
(196,502,cs),
(176,529,o),
(167,565,o),
(178,602,cs),
(188,639,o),
(212,662,o),
(238,675,cs),
(259,685,o),
(287,689,o),
(309,688,c),
(335,688,o),
(362,681,o),
(387,664,cs),
(424,637,o),
(445,598,o),
(479,529,cs),
(480,526,o),
(483,525,o),
(485,525,cs),
(488,525,o),
(490,528,o),
(490,531,c),
(489,540,o),
(483,640,o),
(482,660,cs),
(481,667,o),
(480,671,o),
(475,674,cs),
(407,712,o),
(356,718,o),
(299,719,cs),
(206,721,o),
(76,664,o),
(81,527,cs),
(85,434,o),
(166,381,o),
(250,331,cs),
(307,296,o),
(356,264,o),
(380,240,c),
(403,219,o),
(418,193,o),
(422,167,cs),
(426,143,o),
(421,117,o),
(413,95,cs),
(405,75,o),
(392,54,o),
(371,39,c),
(343,17,o),
(307,12,o),
(273,14,cs),
(192,19,o),
(128,70,o),
(70,200,cs),
(69,203,o),
(65,207,o),
(62,207,cs),
(58,207,o),
(56,203,o),
(56,198,c),
(64,55,l),
(64,50,o),
(67,46,o),
(72,43,cs),
(140,3,o),
(202,-17,o),
(271,-18,cs)
);
}
);
width = 554;
},
{
layerId = "80C3F940-DAE7-4929-9C43-6EF0A304A7E9";
shapes = (
{
closed = 1;
nodes = (
(406,-19,o),
(506,60,o),
(499,194,cs),
(494,287,o),
(408,337,o),
(295,395,cs),
(230,427,o),
(173,458,o),
(149,495,cs),
(129,527,o),
(119,572,o),
(140,616,cs),
(157,652,o),
(185,671,o),
(214,684,cs),
(238,694,o),
(272,698,o),
(296,697,cs),
(321,696,o),
(351,690,o),
(379,671,cs),
(416,646,o),
(432,618,o),
(465,557,cs),
(467,553,o),
(470,552,o),
(472,552,cs),
(476,552,o),
(477,555,o),
(477,558,c),
(477,558,o),
(469,661,o),
(469,661,c),
(468,669,o),
(469,672,o),
(463,675,cs),
(391,711,o),
(349,717,o),
(295,719,cs),
(215,722,o),
(86,671,o),
(95,530,cs),
(101,442,o),
(182,396,o),
(278,351,cs),
(339,323,o),
(389,292,o),
(415,269,cs),
(438,250,o),
(456,219,o),
(461,192,cs),
(466,162,o),
(459,127,o),
(447,100,cs),
(438,78,o),
(423,52,o),
(396,33,cs),
(360,7,o),
(315,3,o),
(276,7,cs),
(199,15,o),
(154,50,o),
(94,150,cs),
(92,153,o),
(89,156,o),
(85,156,cs),
(81,156,o),
(79,153,o),
(79,147,c),
(86,38,l),
(86,33,o),
(88,30,o),
(93,28,cs),
(159,-4,o),
(209,-16,o),
(271,-17,cs)
);
}
);
width = 554;
}
);
unicode = 83;
},
{
glyphname = T;
kernLeft = T;
kernRight = T;
layers = (
{
layerId = "2812E460-E84E-4210-9915-0404F05954BE";
shapes = (
{
closed = 1;
nodes = (
(400,0,ls),
(405,0,o),
(409,4,o),
(409,9,cs),
(410,650,ls),
(410,655,o),
(414,659,o),
(419,659,c),
(533,654,o),
(587,539,o),
(603,507,c),
(608,499,o),
(617,500,o),
(615,511,cs),
(608,549,o),
(585,667,o),
(580,695,cs),
(579,700,o),
(574,704,o),
(569,704,cs),
(63,704,ls),
(58,704,o),
(53,700,o),
(52,695,cs),
(47,667,o),
(24,549,o),
(17,511,cs),
(15,500,o),
(24,499,o),
(29,507,c),
(44,539,o),
(99,654,o),
(213,659,c),
(218,659,o),
(222,655,o),
(222,650,cs),
(222,9,ls),
(222,4,o),
(226,0,o),
(231,0,cs)
);
}
);
width = 632;
},
{
layerId = "18664310-B513-4AD7-8363-6A03F31309A0";
shapes = (
{
closed = 1;
nodes = (
(341,0,ls),
(346,0,o),
(350,4,o),
(350,9,cs),
(351,669,ls),
(351,674,o),
(355,678,o),
(360,678,cs),
(484,676,o),
(546,619,o),
(584,564,c),
(589,555,o),
(598,558,o),
(596,568,cs),
(589,601,o),
(576,666,o),
(571,695,cs),
(570,700,o),
(565,704,o),
(560,704,cs),
(43,704,ls),
(38,704,o),
(33,701,o),
(32,695,cs),
(26,668,o),
(14,601,o),
(7,568,cs),
(5,559,o),
(13,556,o),
(19,564,cs),
(57,620,o),
(119,676,o),
(243,678,cs),
(248,678,o),
(252,674,o),
(252,669,cs),
(252,9,ls),
(252,4,o),
(256,0,o),
(261,0,cs)
);
}
);
width = 603;
},
{
layerId = "80C3F940-DAE7-4929-9C43-6EF0A304A7E9";
shapes = (
{
closed = 1;
nodes = (
(306,0,ls),
(311,0,o),
(315,4,o),
(315,9,cs),
(315,680,ls),
(315,685,o),
(319,689,o),
(324,689,cs),
(454,689,o),
(522,667,o),
(572,598,cs),
(578,589,o),
(586,593,o),
(584,602,cs),
(577,632,o),
(571,666,o),
(565,695,cs),
(564,700,o),
(559,704,o),
(554,704,cs),
(31,704,ls),
(26,704,o),
(21,701,o),
(20,695,cs),
(14,668,o),
(8,632,o),
(1,602,cs),
(-1,594,o),
(7,590,o),
(13,598,cs),
(65,668,o),
(131,689,o),
(261,689,cs),
(266,689,o),
(270,685,o),
(270,680,cs),
(270,9,ls),
(270,4,o),
(274,0,o),
(279,0,cs)
);
}
);
width = 585;
}
);
unicode = 84;
},
{
glyphname = U;
kernLeft = U;
kernRight = U;
layers = (
{
layerId = "2812E460-E84E-4210-9915-0404F05954BE";
shapes = (
{
closed = 1;
nodes = (
(547,-19,o),
(612,111,o),
(612,207,cs),
(612,695,ls),
(612,700,o),
(608,704,o),
(603,704,cs),
(451,704,ls),
(444,704,o),
(443,698,o),
(449,695,cs),
(508,666,o),
(566,586,o),
(566,492,cs),
(566,205,ls),
(566,152,o),
(525,59,o),
(436,44,cs),
(376,35,o),
(326,49,o),
(295,78,c),
(233,132,o),
(246,236,o),
(246,252,cs),
(246,695,ls),
(246,700,o),
(242,704,o),
(237,704,cs),
(69,704,ls),
(64,704,o),
(60,700,o),
(60,695,cs),
(60,205,ls),
(60,112,o),
(139,-19,o),
(335,-19,cs)
);
}
);
width = 675;
},
{
layerId = "18664310-B513-4AD7-8363-6A03F31309A0";
shapes = (
{
closed = 1;
nodes = (
(563,-20,o),
(622,119,o),
(622,234,cs),
(622,695,ls),
(622,700,o),
(618,704,o),
(613,704,cs),
(497,704,ls),
(490,704,o),
(488,699,o),
(494,695,cs),
(562,653,o),
(595,575,o),
(595,498,cs),
(595,235,ls),
(595,141,o),
(549,46,o),
(447,24,cs),
(387,12,o),
(310,16,o),
(257,54,cs),
(196,99,o),
(183,179,o),
(183,252,cs),
(183,695,ls),
(183,700,o),
(179,704,o),
(174,704,cs),
(94,704,ls),
(89,704,o),
(85,700,o),
(85,696,cs),
(85,233,ls),
(85,111,o),
(154,-20,o),
(354,-20,cs)
);
}
);
width = 696;
},
{
layerId = "80C3F940-DAE7-4929-9C43-6EF0A304A7E9";
shapes = (
{
closed = 1;
nodes = (
(572,-20,o),
(628,124,o),
(628,250,cs),
(628,695,ls),
(628,700,o),
(624,704,o),
(619,704,cs),
(524,704,ls),
(517,704,o),
(515,699,o),
(521,695,cs),
(594,645,o),
(613,568,o),
(613,502,cs),
(613,253,ls),
(613,135,o),
(563,38,o),
(453,12,cs),
(394,-2,o),
(301,-4,o),
(234,40,cs),
(174,79,o),
(145,145,o),
(145,252,cs),
(145,695,ls),
(145,700,o),
(141,704,o),
(136,704,cs),
(109,704,ls),
(104,704,o),
(100,700,o),
(100,696,cs),
(100,250,ls),
(100,110,o),
(163,-20,o),
(365,-20,cs)
);
}
);
width = 708;
}
);
unicode = 85;
},
{
glyphname = V;
kernLeft = V;
kernRight = V;
layers = (
{
layerId = "2812E460-E84E-4210-9915-0404F05954BE";
shapes = (
{
closed = 1;
nodes = (
(361,-19,ls),
(366,-19,o),
(371,-16,o),
(373,-11,cs),
(658,696,ls),
(660,701,o),
(657,704,o),
(652,704,cs),
(486,704,ls),
(475,704,o),
(474,701,o),
(483,694,cs),
(521,662,o),
(561,579,o),
(529,497,cs),
(497,416,o),
(424,233,o),
(411,205,cs),
(409,200,o),
(407,200,o),
(405,205,cs),
(208,696,ls),
(206,701,o),
(201,704,o),
(196,704,cs),
(14,704,ls),
(9,704,o),
(6,701,o),
(8,696,cs),
(290,-11,ls),
(292,-16,o),
(298,-19,o),
(303,-19,cs)
);
}
);
width = 666;
},
{
layerId = "18664310-B513-4AD7-8363-6A03F31309A0";
shapes = (
{
closed = 1;
nodes = (
(326,-19,ls),
(331,-19,o),
(336,-16,o),
(338,-11,cs),
(601,696,ls),
(603,701,o),
(600,704,o),
(595,704,cs),
(478,704,ls),
(470,704,o),
(469,701,o),
(475,696,cs),
(528,650,o),
(530,592,o),
(500,508,cs),
(468,421,o),
(381,187,o),
(346,89,cs),
(344,84,o),
(341,84,o),
(339,89,cs),
(109,696,ls),
(107,701,o),
(102,704,o),
(97,704,cs),
(10,704,ls),
(5,704,o),
(2,701,o),
(4,696,cs),
(274,-11,ls),
(276,-16,o),
(281,-19,o),
(286,-19,cs)
);
}
);
width = 605;
},
{
layerId = "80C3F940-DAE7-4929-9C43-6EF0A304A7E9";
shapes = (
{
closed = 1;
nodes = (
(305,-19,ls),
(310,-19,o),
(315,-16,o),
(317,-11,cs),
(567,696,ls),
(569,701,o),
(566,704,o),
(561,704,cs),
(473,704,ls),
(467,704,o),
(466,701,o),
(470,697,cs),
(532,643,o),
(512,600,o),
(482,515,cs),
(450,424,o),
(355,160,o),
(307,20,cs),
(305,15,o),
(302,15,o),
(300,20,cs),
(49,696,ls),
(47,701,o),
(42,704,o),
(37,704,cs),
(7,704,ls),
(2,704,o),
(-1,701,o),
(1,696,cs),
(264,-11,ls),
(266,-16,o),
(271,-19,o),
(276,-19,cs)
);
}
);
width = 568;
}
);
unicode = 86;
},
{
glyphname = W;
kernLeft = W;
kernRight = W;
layers = (
{
layerId = "2812E460-E84E-4210-9915-0404F05954BE";
shapes = (
{
closed = 1;
nodes = (
(300,-19,ls),
(305,-19,o),
(309,-15,o),
(312,-10,c),
(454,419,ls),
(456,424,o),
(458,424,o),
(460,419,cs),
(594,-10,ls),
(596,-15,o),
(601,-19,o),
(606,-19,cs),
(664,-19,ls),
(669,-19,o),
(674,-15,o),
(676,-10,cs),
(914,695,ls),
(916,700,o),
(913,704,o),
(908,704,cs),
(735,704,ls),
(727,704,o),
(725,701,o),
(732,696,cs),
(774,666,o),
(830,586,o),
(800,501,cs),
(769,411,o),
(725,284,o),
(714,252,cs),
(712,246,o),
(711,246,o),
(709,252,cs),
(567,695,ls),
(565,700,o),
(560,704,o),
(555,704,cs),
(377,704,ls),
(372,704,o),
(369,700,o),
(371,695,cs),
(432,507,ls),
(434,502,o),
(434,495,o),
(432,490,cs),
(401,400,o),
(360,282,o),
(349,245,cs),
(347,239,o),
(346,239,o),
(344,245,cs),
(207,695,ls),
(205,700,o),
(200,704,o),
(195,704,cs),
(16,704,ls),
(11,704,o),
(8,700,o),
(10,695,cs),
(229,-10,ls),
(231,-15,o),
(236,-19,o),
(241,-19,cs)
);
}
);
width = 924;
},
{
layerId = "18664310-B513-4AD7-8363-6A03F31309A0";
shapes = (
{
closed = 1;
nodes = (
(302,-19,ls),
(307,-19,o),
(312,-15,o),
(314,-10,cs),
(447,448,ls),
(449,454,o),
(451,454,o),
(453,448,cs),
(603,-10,ls),
(605,-15,o),
(610,-19,o),
(615,-19,cs),
(652,-19,ls),
(657,-19,o),
(663,-15,o),
(664,-10,cs),
(870,695,ls),
(872,701,o),
(869,704,o),
(864,704,cs),
(744,704,ls),
(736,704,o),
(734,701,o),
(741,696,c),
(786,657,o),
(809,582,o),
(784,495,cs),
(760,410,o),
(689,166,o),
(674,108,cs),
(673,104,o),
(670,104,o),
(669,108,cs),
(475,695,ls),
(473,700,o),
(468,704,o),
(463,704,cs),
(378,704,ls),
(373,704,o),
(370,700,o),
(372,695,cs),
(433,507,ls),
(435,502,o),
(435,495,o),
(433,490,cs),
(407,402,o),
(334,143,o),
(323,106,cs),
(322,102,o),
(320,102,o),
(318,106,cs),
(108,695,ls),
(106,700,o),
(101,704,o),
(96,704,cs),
(10,704,ls),
(5,704,o),
(2,700,o),
(4,695,cs),
(253,-10,ls),
(255,-15,o),
(260,-19,o),
(265,-19,cs)
);
}
);
width = 875;
},
{
layerId = "80C3F940-DAE7-4929-9C43-6EF0A304A7E9";
shapes = (
{
closed = 1;
nodes = (
(303,-19,ls),
(308,-19,o),
(314,-15,o),
(315,-10,cs),
(443,466,ls),
(445,472,o),
(447,472,o),
(449,466,cs),
(608,-10,ls),
(610,-15,o),
(615,-19,o),
(620,-19,cs),
(645,-19,ls),
(650,-19,o),
(656,-15,o),
(657,-10,cs),
(844,695,ls),
(846,701,o),
(843,704,o),
(838,704,cs),
(749,704,ls),
(742,704,o),
(740,701,o),
(746,696,cs),
(793,651,o),
(797,579,o),
(775,492,cs),
(754,410,o),
(668,95,o),
(650,22,cs),
(649,19,o),
(646,19,o),
(645,22,cs),
(420,695,ls),
(418,700,o),
(413,704,o),
(408,704,cs),
(379,704,ls),
(374,704,o),
(371,700,o),
(373,695,cs),
(434,507,ls),
(436,502,o),
(435,495,o),
(434,490,cs),
(411,403,o),
(319,60,o),
(308,23,cs),
(307,20,o),
(304,20,o),
(303,23,cs),
(49,695,ls),
(47,700,o),
(42,704,o),
(37,704,cs),
(7,704,ls),
(2,704,o),
(-1,700,o),
(1,695,cs),
(267,-10,ls),
(269,-15,o),
(274,-19,o),
(279,-19,cs)
);
}
);
width = 845;
}
);
unicode = 87;
},
{
glyphname = X;
kernLeft = X;
kernRight = X;
layers = (
{
layerId = "2812E460-E84E-4210-9915-0404F05954BE";
shapes = (
{
closed = 1;
nodes = (
(180,0,ls),
(185,0,o),
(188,3,o),
(185,8,cs),
(133,95,o),
(171,155,o),
(204,199,c),
(258,276,ls),
(261,280,o),
(265,281,o),
(268,276,cs),
(421,8,ls),
(424,3,o),
(429,0,o),
(434,0,cs),
(633,0,ls),
(638,0,o),
(641,3,o),
(638,8,cs),
(420,386,ls),
(417,391,o),
(417,397,o),
(420,401,cs),
(629,697,l),
(631,701,o),
(629,704,o),
(624,704,cs),
(460,704,ls),
(455,704,o),
(453,701,o),
(456,696,cs),
(510,604,o),
(469,548,o),
(437,502,cs),
(396,443,ls),
(393,439,o),
(389,439,o),
(386,444,cs),
(245,696,ls),
(242,701,o),
(235,704,o),
(230,704,cs),
(32,704,ls),
(27,704,o),
(25,701,o),
(28,696,cs),
(234,333,ls),
(237,328,o),
(236,322,o),
(233,318,cs),
(11,7,ls),
(8,3,o),
(10,0,o),
(15,0,cs)
);
}
);
width = 648;
},
{
layerId = "18664310-B513-4AD7-8363-6A03F31309A0";
shapes = (
{
closed = 1;
nodes = (
(134,0,ls),
(141,0,o),
(142,3,o),
(139,9,cs),
(93,89,o),
(156,162,o),
(191,207,cs),
(269,312,ls),
(272,316,o),
(276,316,o),
(279,311,cs),
(485,8,ls),
(489,3,o),
(494,0,o),
(499,0,cs),
(597,0,ls),
(602,0,o),
(605,3,o),
(602,8,cs),
(357,372,ls),
(354,377,o),
(353,383,o),
(357,388,cs),
(586,696,ls),
(589,700,o),
(588,704,o),
(583,704,cs),
(456,704,ls),
(451,704,o),
(449,701,o),
(452,695,c),
(501,619,o),
(433,537,o),
(400,493,cs),
(340,412,ls),
(336,407,o),
(333,407,o),
(330,412,cs),
(137,698,ls),
(134,702,o),
(129,704,o),
(124,704,cs),
(26,704,ls),
(21,704,o),
(19,701,o),
(22,696,cs),
(252,352,ls),
(256,347,o),
(255,341,o),
(252,337,cs),
(5,7,ls),
(2,3,o),
(4,0,o),
(9,0,cs)
);
}
);
width = 607;
},
{
layerId = "80C3F940-DAE7-4929-9C43-6EF0A304A7E9";
shapes = (
{
closed = 1;
nodes = (
(107,0,ls),
(114,0,o),
(115,3,o),
(112,9,cs),
(69,86,o),
(147,166,o),
(183,212,cs),
(276,333,ls),
(279,337,o),
(282,337,o),
(286,332,cs),
(524,8,ls),
(528,3,o),
(533,0,o),
(538,0,cs),
(576,0,ls),
(581,0,o),
(584,3,o),
(580,8,cs),
(319,363,ls),
(316,368,o),
(315,375,o),
(319,380,cs),
(560,695,ls),
(564,700,o),
(563,704,o),
(558,704,cs),
(454,704,ls),
(448,704,o),
(446,701,o),
(450,695,cs),
(495,628,o),
(411,530,o),
(378,487,cs),
(306,393,ls),
(302,388,o),
(300,388,o),
(296,393,cs),
(72,699,ls),
(69,703,o),
(66,704,o),
(61,704,cs),
(22,704,ls),
(17,704,o),
(15,701,o),
(18,696,cs),
(263,363,ls),
(267,358,o),
(266,352,o),
(263,348,cs),
(2,7,ls),
(-1,3,o),
(0,0,o),
(6,0,cs)
);
}
);
width = 582;
}
);
unicode = 88;
},
{
glyphname = Y;
kernLeft = Y;
kernRight = Y;
layers = (
{
layerId = "2812E460-E84E-4210-9915-0404F05954BE";
shapes = (
{
closed = 1;
nodes = (
(377,0,ls),
(382,0,o),
(386,4,o),
(386,9,cs),
(386,281,ls),
(386,286,o),
(388,293,o),
(390,298,cs),
(575,696,ls),
(577,701,o),
(575,704,o),
(570,704,cs),
(399,704,ls),
(390,704,o),
(389,702,o),
(397,697,cs),
(452,661,o),
(461,558,o),
(432,496,cs),
(407,444,o),
(381,383,o),
(370,358,cs),
(368,353,o),
(364,353,o),
(362,358,cs),
(204,696,ls),
(202,701,o),
(196,704,o),
(191,704,cs),
(14,704,ls),
(9,704,o),
(7,701,o),
(9,696,cs),
(196,299,ls),
(198,294,o),
(200,287,o),
(200,282,cs),
(200,9,ls),
(200,4,o),
(204,0,o),
(209,0,cs)
);
}
);
width = 584;
},
{
layerId = "18664310-B513-4AD7-8363-6A03F31309A0";
shapes = (
{
closed = 1;
nodes = (
(333,0,ls),
(338,0,o),
(342,4,o),
(342,9,cs),
(342,280,ls),
(342,285,o),
(343,292,o),
(346,297,cs),
(571,696,l),
(573,701,o),
(570,704,o),
(565,704,cs),
(445,704,ls),
(439,704,o),
(438,701,o),
(443,696,cs),
(492,643,o),
(470,574,o),
(436,514,cs),
(406,460,o),
(343,352,o),
(332,332,cs),
(329,327,o),
(326,327,o),
(323,332,cs),
(109,696,ls),
(106,701,o),
(101,704,o),
(96,704,cs),
(10,704,ls),
(5,704,o),
(2,701,o),
(5,696,cs),
(240,295,l),
(242,290,o),
(244,283,o),
(244,278,cs),
(244,9,ls),
(244,4,o),
(248,0,o),
(253,0,cs)
);
}
);
width = 575;
},
{
layerId = "80C3F940-DAE7-4929-9C43-6EF0A304A7E9";
shapes = (
{
closed = 1;
nodes = (
(306,0,ls),
(311,0,o),
(315,4,o),
(315,9,cs),
(315,280,ls),
(315,285,o),
(316,292,o),
(319,297,cs),
(568,696,ls),
(571,701,o),
(567,704,o),
(562,704,cs),
(473,704,ls),
(468,704,o),
(467,700,o),
(470,696,cs),
(516,632,o),
(475,584,o),
(439,525,cs),
(405,469,o),
(320,334,o),
(309,317,cs),
(306,312,o),
(303,312,o),
(300,317,cs),
(52,696,ls),
(49,701,o),
(44,704,o),
(39,704,cs),
(7,704,ls),
(2,704,o),
(-1,701,o),
(2,696,cs),
(266,292,ls),
(269,287,o),
(270,280,o),
(270,275,cs),
(270,9,ls),
(270,4,o),
(274,0,o),
(279,0,cs)
);
}
);
width = 570;
}
);
unicode = 89;
},
{
glyphname = Z;
kernLeft = Z;
kernRight = Z;
layers = (
{
layerId = "2812E460-E84E-4210-9915-0404F05954BE";
shapes = (
{
closed = 1;
nodes = (
(567,0,ls),
(572,0,o),
(577,4,o),
(578,9,cs),
(613,192,ls),
(615,202,o),
(606,204,o),
(601,196,cs),
(581,161,o),
(494,44,o),
(371,44,cs),
(273,44,ls),
(268,44,o),
(265,47,o),
(268,52,cs),
(632,696,ls),
(635,701,o),
(632,704,o),
(627,704,cs),
(98,704,ls),
(94,704,o),
(88,700,o),
(87,695,cs),
(82,667,o),
(60,549,o),
(52,511,cs),
(50,501,o),
(60,499,o),
(64,507,cs),
(83,543,o),
(170,659,o),
(294,659,cs),
(389,659,ls),
(394,659,o),
(397,656,o),
(394,651,cs),
(29,8,ls),
(26,3,o),
(29,0,o),
(34,0,cs)
);
}
);
width = 659;
},
{
layerId = "18664310-B513-4AD7-8363-6A03F31309A0";
shapes = (
{
closed = 1;
nodes = (
(552,0,ls),
(557,0,o),
(561,3,o),
(562,8,cs),
(587,141,ls),
(589,151,o),
(580,153,o),
(575,145,cs),
(549,98,o),
(479,29,o),
(356,29,cs),
(184,29,ls),
(179,29,o),
(176,32,o),
(179,37,cs),
(583,696,ls),
(586,701,o),
(583,704,o),
(578,704,cs),
(101,704,ls),
(96,704,o),
(91,700,o),
(90,695,cs),
(85,668,o),
(71,598,o),
(65,568,cs),
(63,558,o),
(72,556,o),
(77,564,cs),
(107,610,o),
(180,678,o),
(297,678,cs),
(442,678,ls),
(447,678,o),
(450,675,o),
(447,670,cs),
(43,8,ls),
(40,3,o),
(43,0,o),
(48,0,cs)
);
}
);
width = 636;
},
{
layerId = "80C3F940-DAE7-4929-9C43-6EF0A304A7E9";
shapes = (
{
closed = 1;
nodes = (
(543,0,ls),
(548,0,o),
(552,2,o),
(553,7,cs),
(571,111,ls),
(573,121,o),
(564,123,o),
(560,115,cs),
(530,60,o),
(470,20,o),
(347,20,cs),
(131,20,ls),
(126,20,o),
(123,23,o),
(126,28,cs),
(553,696,ls),
(556,701,o),
(553,704,o),
(548,704,cs),
(103,704,ls),
(97,704,o),
(93,700,o),
(92,695,cs),
(87,669,o),
(78,627,o),
(73,602,cs),
(71,592,o),
(79,590,o),
(85,598,cs),
(122,650,o),
(186,689,o),
(299,689,cs),
(474,689,ls),
(479,689,o),
(482,686,o),
(479,681,cs),
(52,8,ls),
(49,3,o),
(52,0,o),
(57,0,cs)
);
}
);
width = 622;
}
);
unicode = 90;
},
{
glyphname = a;
kernLeft = a;
kernRight = a;
layers = (
{
layerId = "2812E460-E84E-4210-9915-0404F05954BE";
shapes = (
{
closed = 1;
nodes = (
(476,47,ls),
(481,48,o),
(482,55,o),
(479,59,cs),
(464,84,o),
(443,107,o),
(443,145,cs),
(442,197,o),
(443,262,o),
(443,320,cs),
(443,430,o),
(354,489,o),
(254,487,cs),
(132,485,o),
(52,394,o),
(49,321,c),
(48,316,o),
(54,311,o),
(59,310,cs),
(98,303,o),
(153,295,o),
(175,294,c),
(180,293,o),
(182,296,o),
(181,301,cs),
(174,360,o),
(181,432,o),
(213,439,c),
(267,448,o),
(267,325,o),
(268,289,c),
(268,284,o),
(264,280,o),
(259,280,cs),
(141,277,o),
(-2,210,o),
(26,87,cs),
(53,-20,o),
(196,-13,o),
(260,37,cs),
(263,39,o),
(268,39,o),
(268,35,cs),
(268,4,ls),
(268,-1,o),
(275,-1,o),
(280,0,cs)
);
},
{
closed = 1;
nodes = (
(251,77,o),
(215,82,o),
(205,121,cs),
(191,180,o),
(230,232,o),
(259,241,cs),
(264,242,o),
(268,239,o),
(268,233,cs),
(268,90,ls),
(268,82,o),
(267,76,o),
(261,73,c)
);
}
);
width = 497;
},
{
layerId = "18664310-B513-4AD7-8363-6A03F31309A0";
shapes = (
{
closed = 1;
nodes = (
(447,30,l),
(453,32,o),
(453,35,o),
(449,40,cs),
(431,66,o),
(423,101,o),
(423,147,cs),
(423,200,o),
(423,248,o),
(423,313,cs),
(423,416,o),
(358,488,o),
(251,493,cs),
(151,496,o),
(71,431,o),
(50,381,c),
(47,376,o),
(49,372,o),
(53,369,cs),
(75,353,o),
(104,331,o),
(119,316,cs),
(122,312,o),
(128,314,o),
(127,319,cs),
(118,411,o),
(177,467,o),
(232,466,cs),
(313,464,o),
(333,374,o),
(329,293,c),
(329,288,o),
(325,284,o),
(320,284,cs),
(201,283,o),
(24,252,o),
(35,113,cs),
(45,-21,o),
(232,-29,o),
(321,55,cs),
(325,59,o),
(329,57,o),
(329,53,cs),
(329,8,ls),
(329,3,o),
(334,3,o),
(339,4,cs)
);
},
{
closed = 1;
nodes = (
(277,33,o),
(140,22,o),
(136,128,cs),
(131,225,o),
(232,258,o),
(320,260,cs),
(325,260,o),
(329,258,o),
(329,252,cs),
(329,100,ls),
(329,91,o),
(328,87,o),
(322,82,c)
);
}
);
width = 490;
},
{
layerId = "80C3F940-DAE7-4929-9C43-6EF0A304A7E9";
shapes = (
{
closed = 1;
nodes = (
(430,20,ls),
(436,22,o),
(435,23,o),
(431,29,cs),
(411,55,o),
(411,97,o),
(411,148,cs),
(411,202,o),
(411,239,o),
(411,309,cs),
(411,408,o),
(361,488,o),
(249,496,cs),
(162,502,o),
(83,453,o),
(51,417,cs),
(47,412,o),
(46,409,o),
(49,404,cs),
(61,383,o),
(74,353,o),
(85,329,cs),
(87,324,o),
(95,325,o),
(95,330,c),
(85,441,o),
(174,488,o),
(244,482,cs),
(341,474,o),
(372,403,o),
(365,296,c),
(365,291,o),
(361,286,o),
(356,286,cs),
(237,286,o),
(40,277,o),
(40,129,cs),
(40,-22,o),
(253,-38,o),
(357,66,cs),
(362,71,o),
(365,68,o),
(365,64,cs),
(365,10,ls),
(365,5,o),
(370,5,o),
(375,6,cs)
);
},
{
closed = 1;
nodes = (
(292,7,o),
(95,-14,o),
(95,132,cs),
(95,252,o),
(233,273,o),
(357,271,cs),
(362,271,o),
(366,269,o),
(366,263,cs),
(366,106,ls),
(366,97,o),
(364,94,o),
(359,88,cs)
);
}
);
width = 486;
}
);
unicode = 97;
},
{
glyphname = b;
kernLeft = b;
kernRight = b;
layers = (
{
anchors = (
{
name = left;
pos = (10,266);
},
{
name = left.1;
pos = (-8,223);
},
{
name = left.2;
pos = (2,317);
}
);
layerId = "2812E460-E84E-4210-9915-0404F05954BE";
shapes = (
{
closed = 1;
nodes = (
(442,-7,o),
(524,96,o),
(525,220,c),
(525,335,o),
(463,459,o),
(332,459,cs),
(303,459,o),
(271,456,o),
(238,437,cs),
(233,434,o),
(230,436,o),
(230,441,cs),
(230,697,ls),
(230,701,o),
(228,704,o),
(224,704,c),
(218,705,o),
(41,641,o),
(25,635,cs),
(20,633,o),
(17,629,o),
(20,624,cs),
(60,566,o),
(56,544,o),
(56,491,cs),
(56,-1,ls),
(56,-6,o),
(61,-8,o),
(66,-7,cs),
(85,-1,o),
(115,9,o),
(172,26,cs),
(177,27,o),
(184,26,o),
(189,24,cs),
(231,5,o),
(261,-7,o),
(310,-7,cs)
);
},
{
closed = 1;
nodes = (
(275,39,o),
(231,49,o),
(231,68,cs),
(231,133,o),
(231,338,o),
(231,380,cs),
(231,392,o),
(251,392,o),
(255,392,c),
(284,391,o),
(327,341,o),
(340,249,cs),
(348,197,o),
(370,36,o),
(283,38,c)
);
}
);
width = 548;
},
{
anchors = (
{
name = left;
pos = (10,266);
},
{
name = left.1;
pos = (-8,223);
},
{
name = left.2;
pos = (2,317);
}
);
layerId = "18664310-B513-4AD7-8363-6A03F31309A0";
shapes = (
{
closed = 1;
nodes = (
(443,-10,o),
(537,84,o),
(535,234,cs),
(533,364,o),
(449,473,o),
(319,473,cs),
(249,473,o),
(205,437,o),
(178,413,cs),
(174,409,o),
(170,412,o),
(170,417,cs),
(170,697,ls),
(170,703,o),
(166,704,o),
(162,703,cs),
(152,701,o),
(67,671,o),
(48,664,cs),
(43,662,o),
(41,660,o),
(44,654,c),
(76,603,o),
(77,573,o),
(77,520,cs),
(77,-4,ls),
(77,-9,o),
(82,-12,o),
(86,-9,cs),
(99,1,o),
(114,10,o),
(143,28,c),
(146,31,o),
(152,31,o),
(157,29,cs),
(202,9,o),
(261,-10,o),
(310,-10,cs)
);
},
{
closed = 1;
nodes = (
(251,13,o),
(170,69,o),
(170,119,cs),
(170,173,o),
(170,280,o),
(170,329,cs),
(171,383,o),
(210,435,o),
(278,438,cs),
(374,442,o),
(419,352,o),
(434,246,cs),
(449,150,o),
(416,20,o),
(316,17,c)
);
}
);
width = 575;
},
{
anchors = (
{
name = left;
pos = (10,266);
},
{
name = left.1;
pos = (-8,223);
},
{
name = left.2;
pos = (2,317);
}
);
layerId = "80C3F940-DAE7-4929-9C43-6EF0A304A7E9";
shapes = (
{
closed = 1;
nodes = (
(444,-12,o),
(545,77,o),
(541,242,cs),
(538,381,o),
(440,482,o),
(311,482,cs),
(217,482,o),
(166,426,o),
(142,398,cs),
(138,394,o),
(134,397,o),
(134,402,cs),
(134,697,ls),
(134,704,o),
(129,704,o),
(125,703,cs),
(113,699,o),
(83,689,o),
(62,682,cs),
(57,680,o),
(56,678,o),
(59,672,cs),
(86,625,o),
(89,590,o),
(89,537,cs),
(89,-6,ls),
(89,-11,o),
(95,-14,o),
(98,-10,cs),
(107,2,o),
(113,11,o),
(125,29,cs),
(128,33,o),
(133,34,o),
(138,32,cs),
(185,12,o),
(261,-12,o),
(310,-12,cs)
);
},
{
closed = 1;
nodes = (
(236,-2,o),
(134,81,o),
(134,150,cs),
(134,197,o),
(133,245,o),
(134,299,cs),
(135,378,o),
(185,461,o),
(292,466,cs),
(428,472,o),
(474,358,o),
(491,244,cs),
(509,122,o),
(443,10,o),
(336,4,cs)
);
}
);
width = 591;
}
);
unicode = 98;
},
{
glyphname = c;
kernLeft = c;
kernRight = c;
layers = (
{
layerId = "2812E460-E84E-4210-9915-0404F05954BE";
shapes = (
{
closed = 1;
nodes = (
(344,-9,o),
(407,46,o),
(435,113,cs),
(438,119,o),
(432,123,o),
(426,118,cs),
(391,91,o),
(358,75,o),
(326,75,cs),
(214,75,o),
(199,226,o),
(201,314,c),
(204,372,o),
(202,423,o),
(251,431,cs),
(296,438,o),
(319,395,o),
(348,308,c),
(349,303,o),
(356,301,o),
(358,307,c),
(415,435,ls),
(416,438,o),
(417,440,o),
(413,443,cs),
(386,461,o),
(341,478,o),
(281,478,cs),
(138,478,o),
(23,389,o),
(22,235,cs),
(21,101,o),
(120,-10,o),
(242,-9,c)
);
}
);
width = 434;
},
{
layerId = "18664310-B513-4AD7-8363-6A03F31309A0";
shapes = (
{
closed = 1;
nodes = (
(344,-11,o),
(409,28,o),
(446,109,cs),
(449,115,o),
(441,120,o),
(437,114,cs),
(397,52,o),
(342,32,o),
(298,32,cs),
(185,32,o),
(144,166,o),
(138,253,c),
(124,396,o),
(212,450,o),
(267,453,cs),
(313,456,o),
(362,425,o),
(376,333,c),
(376,327,o),
(384,326,o),
(386,332,c),
(433,436,ls),
(434,439,o),
(435,441,o),
(431,444,cs),
(403,462,o),
(346,480,o),
(286,480,cs),
(143,480,o),
(37,389,o),
(40,236,cs),
(43,92,o),
(137,-11,o),
(267,-11,cs)
);
}
);
width = 471;
},
{
layerId = "80C3F940-DAE7-4929-9C43-6EF0A304A7E9";
shapes = (
{
closed = 1;
nodes = (
(343,-12,o),
(411,17,o),
(452,106,c),
(456,112,o),
(446,118,o),
(443,111,cs),
(401,29,o),
(332,6,o),
(282,6,cs),
(168,6,o),
(111,129,o),
(100,216,cs),
(76,410,o),
(218,467,o),
(277,467,cs),
(323,467,o),
(388,443,o),
(392,347,c),
(392,341,o),
(400,341,o),
(402,346,cs),
(443,436,ls),
(444,439,o),
(445,441,o),
(441,444,cs),
(414,463,o),
(348,482,o),
(289,482,cs),
(146,482,o),
(46,390,o),
(51,236,cs),
(56,86,o),
(148,-12,o),
(282,-12,cs)
);
}
);
width = 493;
}
);
unicode = 99;
},
{
glyphname = d;
kernLeft = d;
kernRight = d;
layers = (
{
layerId = "2812E460-E84E-4210-9915-0404F05954BE";
shapes = (
{
closed = 1;
nodes = (
(261,-9,o),
(300,5,o),
(325,26,cs),
(329,30,o),
(332,27,o),
(332,22,cs),
(332,9,ls),
(332,4,o),
(336,0,o),
(341,0,cs),
(498,0,ls),
(503,0,o),
(507,4,o),
(507,9,cs),
(507,697,ls),
(507,702,o),
(503,705,o),
(498,703,cs),
(472,695,o),
(386,666,o),
(299,634,cs),
(294,632,o),
(292,629,o),
(296,624,cs),
(335,566,o),
(332,544,o),
(332,491,cs),
(332,453,ls),
(332,448,o),
(330,446,o),
(325,449,cs),
(305,460,o),
(270,468,o),
(240,468,cs),
(114,468,o),
(39,354,o),
(39,240,c),
(38,129,o),
(99,-9,o),
(226,-9,cs)
);
},
{
closed = 1;
nodes = (
(248,63,o),
(225,148,o),
(220,248,cs),
(216,338,o),
(209,424,o),
(280,424,c),
(286,423,o),
(315,418,o),
(326,405,cs),
(329,401,o),
(331,399,o),
(331,394,cs),
(331,77,ls),
(331,72,o),
(329,74,o),
(327,70,c),
(318,59,o),
(297,60,o),
(296,61,c)
);
}
);
width = 537;
},
{
layerId = "18664310-B513-4AD7-8363-6A03F31309A0";
shapes = (
{
closed = 1;
nodes = (
(317,-11,o),
(358,8,o),
(403,55,cs),
(407,59,o),
(410,55,o),
(410,50,cs),
(410,9,ls),
(410,4,o),
(414,0,o),
(419,0,cs),
(495,0,ls),
(500,0,o),
(504,4,o),
(504,9,cs),
(504,697,ls),
(504,702,o),
(500,705,o),
(495,703,cs),
(472,696,o),
(427,680,o),
(381,664,cs),
(376,662,o),
(375,658,o),
(378,654,cs),
(409,603,o),
(410,573,o),
(410,520,cs),
(410,443,ls),
(410,438,o),
(408,435,o),
(403,438,cs),
(339,470,o),
(307,477,o),
(261,477,cs),
(135,477,o),
(44,375,o),
(46,237,cs),
(47,113,o),
(123,-11,o),
(260,-11,cs)
);
},
{
closed = 1;
nodes = (
(197,20,o),
(154,128,o),
(145,234,cs),
(133,364,o),
(184,448,o),
(264,450,cs),
(327,452,o),
(374,419,o),
(402,384,cs),
(408,377,o),
(410,361,o),
(410,347,cs),
(410,156,ls),
(410,151,o),
(408,118,o),
(406,114,c),
(400,85,o),
(371,31,o),
(298,25,c)
);
}
);
width = 566;
},
{
layerId = "80C3F940-DAE7-4929-9C43-6EF0A304A7E9";
shapes = (
{
closed = 1;
nodes = (
(350,-12,o),
(393,10,o),
(450,72,cs),
(454,76,o),
(457,72,o),
(457,67,cs),
(457,9,ls),
(457,4,o),
(461,0,o),
(466,0,cs),
(493,0,ls),
(498,0,o),
(502,4,o),
(502,9,cs),
(502,697,ls),
(502,702,o),
(498,705,o),
(493,703,cs),
(472,696,o),
(451,689,o),
(430,682,cs),
(425,680,o),
(425,676,o),
(427,672,cs),
(454,625,o),
(457,590,o),
(457,537,cs),
(457,437,ls),
(457,432,o),
(455,429,o),
(450,432,cs),
(360,476,o),
(329,482,o),
(273,482,cs),
(147,482,o),
(47,387,o),
(50,235,cs),
(53,104,o),
(137,-12,o),
(280,-12,cs)
);
},
{
closed = 1;
nodes = (
(167,-6,o),
(112,116,o),
(100,226,cs),
(83,380,o),
(169,463,o),
(255,466,cs),
(352,469,o),
(409,420,o),
(447,372,cs),
(455,362,o),
(457,338,o),
(457,319,cs),
(457,203,ls),
(457,198,o),
(455,145,o),
(454,141,cs),
(449,101,o),
(415,13,o),
(299,4,cs)
);
}
);
width = 583;
}
);
unicode = 100;
},
{
glyphname = e;
kernLeft = e;
kernRight = e;
layers = (
{
layerId = "2812E460-E84E-4210-9915-0404F05954BE";
shapes = (
{
closed = 1;
nodes = (
(336,-10,o),
(415,23,o),
(464,117,cs),
(467,123,o),
(459,130,o),
(454,127,cs),
(411,99,o),
(371,82,o),
(336,83,c),
(279,83,o),
(231,120,o),
(211,193,cs),
(210,198,o),
(212,203,o),
(217,205,cs),
(454,296,ls),
(459,298,o),
(461,303,o),
(460,307,cs),
(439,400,o),
(368,477,o),
(255,477,cs),
(122,477,o),
(21,376,o),
(21,237,cs),
(21,102,o),
(118,-7,o),
(240,-9,cs)
);
},
{
closed = 1;
nodes = (
(206,247,o),
(203,250,o),
(202,255,c),
(202,270,o),
(198,285,o),
(197,303,cs),
(193,377,o),
(207,440,o),
(247,435,cs),
(278,431,o),
(293,353,o),
(297,291,c),
(297,288,o),
(297,284,o),
(292,282,cs),
(269,272,o),
(249,264,o),
(211,249,cs)
);
}
);
width = 470;
},
{
layerId = "18664310-B513-4AD7-8363-6A03F31309A0";
shapes = (
{
closed = 1;
nodes = (
(379,-11,o),
(450,41,o),
(483,123,cs),
(485,128,o),
(477,134,o),
(473,129,c),
(432,60,o),
(372,36,o),
(310,37,cs),
(234,37,o),
(172,92,o),
(150,172,cs),
(149,177,o),
(151,182,o),
(156,184,cs),
(480,305,ls),
(485,307,o),
(487,312,o),
(486,316,cs),
(468,408,o),
(394,480,o),
(281,480,cs),
(131,480,o),
(39,375,o),
(39,236,cs),
(39,93,o),
(145,-10,o),
(274,-11,c)
);
},
{
closed = 1;
nodes = (
(146,208,o),
(143,211,o),
(142,216,cs),
(132,254,o),
(137,297,o),
(141,317,cs),
(158,405,o),
(207,454,o),
(270,454,c),
(344,456,o),
(387,381,o),
(387,325,c),
(386,312,o),
(383,300,o),
(371,294,cs),
(349,283,o),
(189,225,o),
(151,210,cs)
);
}
);
width = 514;
},
{
layerId = "80C3F940-DAE7-4929-9C43-6EF0A304A7E9";
shapes = (
{
closed = 1;
nodes = (
(405,-12,o),
(471,52,o),
(494,126,cs),
(496,131,o),
(488,136,o),
(485,130,cs),
(444,36,o),
(373,9,o),
(295,9,cs),
(207,9,o),
(136,75,o),
(113,159,cs),
(112,164,o),
(114,169,o),
(119,171,cs),
(495,311,ls),
(500,313,o),
(502,318,o),
(501,322,cs),
(486,413,o),
(409,482,o),
(296,482,cs),
(137,482,o),
(50,374,o),
(50,235,cs),
(50,88,o),
(161,-12,o),
(295,-12,cs)
);
},
{
closed = 1;
nodes = (
(110,184,o),
(107,187,o),
(106,192,cs),
(90,245,o),
(100,304,o),
(107,326,cs),
(137,422,o),
(207,462,o),
(284,466,cs),
(383,471,o),
(443,398,o),
(441,346,cs),
(440,327,o),
(435,309,o),
(419,301,cs),
(397,290,o),
(153,201,o),
(115,186,cs)
);
}
);
width = 541;
}
);
unicode = 101;
},
{
glyphname = f;
kernLeft = f;
kernRight = f;
layers = (
{
layerId = "2812E460-E84E-4210-9915-0404F05954BE";
shapes = (
{
closed = 1;
nodes = (
(240,0,ls),
(245,0,o),
(249,4,o),
(249,9,cs),
(249,406,ls),
(249,411,o),
(253,416,o),
(258,416,cs),
(375,416,ls),
(380,416,o),
(384,420,o),
(384,425,cs),
(384,450,ls),
(384,455,o),
(380,459,o),
(375,459,cs),
(258,459,ls),
(253,459,o),
(249,463,o),
(249,468,cs),
(249,572,ls),
(249,623,o),
(261,656,o),
(286,657,cs),
(317,659,o),
(328,629,o),
(351,544,c),
(354,536,o),
(359,538,o),
(361,542,cs),
(424,681,ls),
(425,683,o),
(426,687,o),
(422,689,c),
(383,702,o),
(341,703,o),
(304,703,cs),
(183,703,o),
(74,597,o),
(74,468,cs),
(74,463,o),
(70,459,o),
(65,459,cs),
(14,459,ls),
(9,459,o),
(5,455,o),
(5,450,cs),
(5,425,ls),
(5,420,o),
(9,416,o),
(14,416,cs),
(65,416,ls),
(70,416,o),
(74,411,o),
(74,406,cs),
(74,9,ls),
(74,4,o),
(78,0,o),
(83,0,cs)
);
}
);
width = 346;
},
{
layerId = "18664310-B513-4AD7-8363-6A03F31309A0";
shapes = (
{
closed = 1;
nodes = (
(162,0,ls),
(167,0,o),
(171,4,o),
(171,9,cs),
(171,439,ls),
(171,444,o),
(175,447,o),
(180,447,cs),
(297,447,ls),
(302,447,o),
(306,449,o),
(306,454,cs),
(306,466,ls),
(306,471,o),
(302,473,o),
(297,473,cs),
(180,473,ls),
(175,473,o),
(171,477,o),
(171,482,cs),
(171,572,ls),
(171,623,o),
(182,678,o),
(233,678,c),
(271,679,o),
(291,643,o),
(295,547,c),
(296,540,o),
(302,541,o),
(304,545,cs),
(350,644,ls),
(352,648,o),
(352,651,o),
(348,655,cs),
(309,695,o),
(275,704,o),
(238,704,cs),
(144,704,o),
(77,611,o),
(77,482,cs),
(77,477,o),
(73,473,o),
(68,473,cs),
(17,473,ls),
(12,473,o),
(8,471,o),
(8,466,cs),
(8,454,ls),
(8,449,o),
(12,447,o),
(17,447,cs),
(68,447,ls),
(73,447,o),
(77,444,o),
(77,439,cs),
(77,9,ls),
(77,4,o),
(81,0,o),
(86,0,cs)
);
}
);
width = 273;
},
{
layerId = "80C3F940-DAE7-4929-9C43-6EF0A304A7E9";
shapes = (
{
closed = 1;
nodes = (
(115,0,ls),
(120,0,o),
(124,4,o),
(124,9,cs),
(124,459,ls),
(124,464,o),
(128,466,o),
(133,466,cs),
(250,466,ls),
(255,466,o),
(259,467,o),
(259,472,cs),
(259,476,ls),
(259,481,o),
(255,482,o),
(250,482,cs),
(133,482,ls),
(128,482,o),
(124,486,o),
(124,491,cs),
(124,572,ls),
(124,623,o),
(134,691,o),
(201,691,cs),
(244,691,o),
(269,651,o),
(261,549,c),
(261,543,o),
(268,543,o),
(270,547,cs),
(306,622,ls),
(308,627,o),
(307,630,o),
(304,635,cs),
(264,691,o),
(236,704,o),
(199,704,cs),
(120,704,o),
(79,620,o),
(79,491,cs),
(79,486,o),
(75,482,o),
(70,482,cs),
(19,482,ls),
(14,482,o),
(10,481,o),
(10,476,cs),
(10,472,ls),
(10,467,o),
(14,466,o),
(19,466,cs),
(70,466,ls),
(75,466,o),
(79,464,o),
(79,459,cs),
(79,9,ls),
(79,4,o),
(83,0,o),
(88,0,cs)
);
}
);
width = 229;
}
);
unicode = 102;
},
{
glyphname = g;
kernLeft = g;
kernRight = g;
layers = (
{
anchors = (
{
name = right;
pos = (467,296);
},
{
name = top;
pos = (502,445);
}
);
layerId = "2812E460-E84E-4210-9915-0404F05954BE";
shapes = (
{
closed = 1;
nodes = (
(453,-170,o),
(504,-63,o),
(451,15,cs),
(417,63,o),
(360,75,o),
(266,76,c),
(182,76,l),
(177,77,o),
(178,83,o),
(181,85,c),
(192,102,ls),
(194,106,o),
(201,109,o),
(206,108,cs),
(215,107,o),
(226,106,o),
(237,106,cs),
(345,106,o),
(457,177,o),
(452,296,cs),
(450,348,o),
(425,390,o),
(395,418,cs),
(391,422,o),
(393,425,o),
(399,426,cs),
(417,427,o),
(440,416,o),
(458,392,c),
(462,388,o),
(469,391,o),
(469,396,cs),
(469,504,ls),
(469,509,o),
(465,513,o),
(460,513,c),
(408,510,o),
(378,477,o),
(359,452,cs),
(356,448,o),
(351,447,o),
(346,450,cs),
(315,469,o),
(277,477,o),
(236,477,cs),
(120,477,o),
(22,404,o),
(22,292,cs),
(22,212,o),
(75,155,o),
(129,127,cs),
(134,124,o),
(135,120,o),
(132,116,cs),
(37,-38,ls),
(15,-73,o),
(43,-80,o),
(66,-81,cs),
(96,-82,l),
(103,-82,o),
(104,-87,o),
(98,-90,cs),
(39,-125,o),
(42,-146,o),
(63,-172,c),
(108,-233,o),
(244,-246,o),
(335,-213,cs)
);
},
{
closed = 1;
nodes = (
(262,-192,o),
(203,-180,o),
(170,-150,c),
(151,-136,o),
(140,-116,o),
(147,-92,c),
(149,-81,o),
(184,-79,o),
(263,-85,cs),
(293,-87,o),
(346,-95,o),
(359,-113,cs),
(372,-129,o),
(353,-163,o),
(313,-176,cs)
);
},
{
closed = 1;
nodes = (
(218,147,o),
(198,179,o),
(191,286,cs),
(184,396,o),
(195,431,o),
(226,435,cs),
(256,439,o),
(275,404,o),
(284,298,cs),
(293,187,o),
(278,154,o),
(247,150,cs)
);
}
);
width = 468;
},
{
anchors = (
{
name = right;
pos = (467,296);
},
{
name = top;
pos = (502,445);
}
);
layerId = "18664310-B513-4AD7-8363-6A03F31309A0";
shapes = (
{
closed = 1;
nodes = (
(443,-190,o),
(488,-73,o),
(443,-1,cs),
(415,42,o),
(361,54,o),
(271,57,cs),
(140,60,ls),
(134,60,o),
(132,65,o),
(136,68,cs),
(183,107,ls),
(188,111,o),
(192,114,o),
(197,113,cs),
(206,112,o),
(216,112,o),
(227,112,cs),
(331,112,o),
(428,180,o),
(426,296,cs),
(426,352,o),
(403,394,o),
(369,429,c),
(365,432,o),
(366,436,o),
(370,438,cs),
(384,445,o),
(416,447,o),
(448,423,cs),
(453,419,o),
(458,422,o),
(458,428,cs),
(458,506,ls),
(458,511,o),
(456,514,o),
(451,514,c),
(404,508,o),
(373,480,o),
(348,454,cs),
(345,450,o),
(340,449,o),
(335,452,cs),
(304,471,o),
(268,480,o),
(227,480,cs),
(113,480,o),
(27,404,o),
(27,294,cs),
(27,214,o),
(81,155,o),
(140,127,cs),
(146,124,o),
(147,120,o),
(143,116,cs),
(35,-4,l),
(24,-19,o),
(36,-25,o),
(48,-25,c),
(112,-28,l),
(119,-28,o),
(120,-33,o),
(114,-36,cs),
(55,-67,o),
(37,-100,o),
(53,-146,c),
(81,-217,o),
(200,-242,o),
(306,-219,cs)
);
},
{
closed = 1;
nodes = (
(201,-214,o),
(140,-171,o),
(121,-134,c),
(106,-94,o),
(116,-57,o),
(153,-38,cs),
(173,-27,o),
(215,-29,o),
(273,-32,cs),
(312,-33,o),
(373,-39,o),
(393,-69,cs),
(424,-115,o),
(377,-182,o),
(298,-197,cs)
);
},
{
closed = 1;
nodes = (
(182,131,o),
(129,172,o),
(117,289,cs),
(105,407,o),
(161,453,o),
(215,457,cs),
(272,461,o),
(327,423,o),
(336,302,cs),
(344,191,o),
(297,141,o),
(241,136,cs)
);
}
);
width = 466;
},
{
anchors = (
{
name = right;
pos = (467,296);
},
{
name = top;
pos = (502,445);
}
);
layerId = "80C3F940-DAE7-4929-9C43-6EF0A304A7E9";
shapes = (
{
closed = 1;
nodes = (
(437,-202,o),
(479,-79,o),
(438,-10,cs),
(414,30,o),
(362,41,o),
(274,45,cs),
(115,50,l),
(108,50,o),
(104,54,o),
(109,58,cs),
(178,110,ls),
(184,114,o),
(187,117,o),
(192,116,cs),
(201,115,o),
(210,115,o),
(221,115,cs),
(322,115,o),
(411,182,o),
(411,296,cs),
(411,355,o),
(390,397,o),
(353,435,cs),
(350,438,o),
(350,442,o),
(353,445,cs),
(364,456,o),
(402,465,o),
(442,441,cs),
(448,438,o),
(452,441,o),
(452,447,cs),
(452,507,ls),
(452,512,o),
(451,515,o),
(446,514,cs),
(402,507,o),
(370,482,o),
(342,455,cs),
(338,451,o),
(334,450,o),
(329,453,cs),
(298,472,o),
(262,482,o),
(221,482,cs),
(109,482,o),
(30,404,o),
(30,295,cs),
(30,215,o),
(84,155,o),
(147,127,cs),
(153,124,o),
(154,120,o),
(150,116,cs),
(34,17,ls),
(30,13,o),
(32,8,o),
(37,8,c),
(121,4,l),
(128,4,o),
(129,-1,o),
(123,-4,cs),
(65,-32,o),
(34,-73,o),
(47,-130,cs),
(65,-208,o),
(173,-239,o),
(289,-223,cs)
);
},
{
closed = 1;
nodes = (
(165,-227,o),
(102,-165,o),
(92,-124,cs),
(79,-69,o),
(102,-22,o),
(156,-5,cs),
(187,5,o),
(233,1,o),
(279,0,cs),
(324,-1,o),
(389,-5,o),
(414,-43,cs),
(455,-106,o),
(391,-194,o),
(289,-209,cs)
);
},
{
closed = 1;
nodes = (
(160,121,o),
(88,168,o),
(73,291,cs),
(58,413,o),
(140,466,o),
(208,470,cs),
(281,474,o),
(358,434,o),
(367,305,cs),
(375,194,o),
(309,133,o),
(237,127,cs)
);
}
);
width = 465;
}
);
unicode = 103;
},
{
glyphname = h;
kernLeft = h;
kernRight = h;
layers = (
{
layerId = "2812E460-E84E-4210-9915-0404F05954BE";
shapes = (
{
closed = 1;
nodes = (
(221,0,ls),
(226,0,o),
(230,4,o),
(230,9,cs),
(230,349,ls),
(230,350,o),
(233,352,o),
(236,351,c),
(253,360,o),
(268,362,o),
(275,361,c),
(299,360,o),
(323,336,o),
(323,274,cs),
(323,9,ls),
(323,4,o),
(327,0,o),
(332,0,cs),
(477,0,ls),
(482,0,o),
(486,4,o),
(486,9,cs),
(486,328,ls),
(486,407,o),
(455,479,o),
(387,479,cs),
(317,479,o),
(268,428,o),
(237,400,cs),
(233,396,o),
(230,398,o),
(230,403,cs),
(230,697,ls),
(230,702,o),
(226,705,o),
(221,703,cs),
(196,695,o),
(108,666,o),
(22,634,cs),
(17,632,o),
(16,629,o),
(19,624,cs),
(59,566,o),
(56,544,o),
(56,491,cs),
(56,9,ls),
(56,4,o),
(60,0,o),
(65,0,cs)
);
}
);
width = 532;
},
{
layerId = "18664310-B513-4AD7-8363-6A03F31309A0";
shapes = (
{
closed = 1;
nodes = (
(164,0,ls),
(169,0,o),
(173,4,o),
(173,9,cs),
(173,303,ls),
(173,328,o),
(176,353,o),
(188,370,cs),
(209,398,o),
(242,427,o),
(299,427,cs),
(367,426,o),
(409,370,o),
(409,267,cs),
(409,9,ls),
(409,4,o),
(413,0,o),
(418,0,cs),
(489,0,ls),
(494,0,o),
(498,4,o),
(498,9,cs),
(498,299,ls),
(498,421,o),
(427,481,o),
(341,481,cs),
(260,481,o),
(212,432,o),
(180,399,cs),
(176,395,o),
(173,398,o),
(173,403,cs),
(173,697,ls),
(173,702,o),
(169,705,o),
(164,703,cs),
(139,695,o),
(102,683,o),
(50,664,cs),
(45,662,o),
(45,658,o),
(47,654,cs),
(79,603,o),
(80,573,o),
(80,520,cs),
(80,9,ls),
(80,4,o),
(84,0,o),
(89,0,cs)
);
}
);
width = 566;
},
{
layerId = "80C3F940-DAE7-4929-9C43-6EF0A304A7E9";
shapes = (
{
closed = 1;
nodes = (
(130,0,ls),
(135,0,o),
(139,4,o),
(139,9,cs),
(139,275,ls),
(139,315,o),
(142,353,o),
(159,382,cs),
(182,421,o),
(226,466,o),
(313,466,cs),
(408,466,o),
(460,390,o),
(460,263,cs),
(460,9,ls),
(460,4,o),
(464,0,o),
(469,0,cs),
(496,0,ls),
(501,0,o),
(505,4,o),
(505,9,cs),
(505,282,ls),
(505,430,o),
(410,482,o),
(313,482,cs),
(226,482,o),
(179,435,o),
(146,398,cs),
(142,394,o),
(139,398,o),
(139,403,cs),
(139,697,ls),
(139,702,o),
(135,705,o),
(130,703,cs),
(105,695,o),
(99,693,o),
(67,682,cs),
(62,680,o),
(62,676,o),
(64,672,cs),
(91,625,o),
(94,590,o),
(94,537,cs),
(94,9,ls),
(94,4,o),
(98,0,o),
(103,0,cs)
);
}
);
width = 586;
}
);
unicode = 104;
},
{
glyphname = i;
kernLeft = i;
kernRight = i;
layers = (
{
anchors = (
{
name = left;
pos = (-11,175);
},
{
name = left.1;
pos = (16,141);
},
{
name = left.2;
pos = (0,206);
}
);
layerId = "2812E460-E84E-4210-9915-0404F05954BE";
shapes = (
{
closed = 1;
nodes = (
(220,0,ls),
(225,0,o),
(229,4,o),
(229,9,cs),
(229,472,ls),
(229,477,o),
(225,480,o),
(220,478,cs),
(195,470,o),
(107,440,o),
(21,409,cs),
(16,407,o),
(15,404,o),
(18,399,cs),
(58,340,o),
(55,319,o),
(55,266,cs),
(55,9,ls),
(55,4,o),
(59,0,o),
(64,0,cs)
);
},
{
closed = 1;
nodes = (
(195,503,o),
(235,545,o),
(235,596,cs),
(235,647,o),
(195,689,o),
(144,689,cs),
(92,689,o),
(51,647,o),
(51,596,cs),
(51,545,o),
(92,503,o),
(144,503,cs)
);
}
);
width = 275;
},
{
anchors = (
{
name = left;
pos = (-11,175);
},
{
name = left.1;
pos = (16,141);
},
{
name = left.2;
pos = (0,206);
}
);
layerId = "18664310-B513-4AD7-8363-6A03F31309A0";
shapes = (
{
closed = 1;
nodes = (
(164,0,ls),
(169,0,o),
(173,4,o),
(173,9,cs),
(173,474,ls),
(173,479,o),
(169,482,o),
(164,480,cs),
(139,472,o),
(103,459,o),
(50,441,cs),
(45,439,o),
(44,436,o),
(47,431,cs),
(79,379,o),
(80,350,o),
(80,297,cs),
(80,9,ls),
(80,4,o),
(84,0,o),
(89,0,cs)
);
},
{
closed = 1;
nodes = (
(156,559,o),
(183,587,o),
(183,622,cs),
(183,657,o),
(156,686,o),
(121,686,cs),
(86,686,o),
(58,657,o),
(58,622,cs),
(58,587,o),
(86,559,o),
(121,559,cs)
);
}
);
width = 246;
},
{
anchors = (
{
name = left;
pos = (-11,175);
},
{
name = left.1;
pos = (16,141);
},
{
name = left.2;
pos = (0,206);
}
);
layerId = "80C3F940-DAE7-4929-9C43-6EF0A304A7E9";
shapes = (
{
closed = 1;
nodes = (
(131,0,ls),
(136,0,o),
(140,4,o),
(140,9,cs),
(140,475,ls),
(140,480,o),
(136,483,o),
(131,481,cs),
(106,473,o),
(100,471,o),
(68,460,cs),
(63,458,o),
(62,455,o),
(65,450,cs),
(92,403,o),
(95,368,o),
(95,315,cs),
(95,9,ls),
(95,4,o),
(99,0,o),
(104,0,cs)
);
},
{
closed = 1;
nodes = (
(132,593,o),
(152,612,o),
(152,638,cs),
(152,663,o),
(132,684,o),
(107,684,cs),
(82,684,o),
(62,663,o),
(62,638,cs),
(62,612,o),
(82,593,o),
(107,593,cs)
);
}
);
width = 229;
}
);
unicode = 105;
},
{
glyphname = j;
kernLeft = j;
kernRight = j;
layers = (
{
layerId = "2812E460-E84E-4210-9915-0404F05954BE";
shapes = (
{
closed = 1;
nodes = (
(213,-188,o),
(217,14,o),
(217,144,cs),
(217,472,ls),
(217,477,o),
(213,480,o),
(208,478,cs),
(183,470,o),
(95,441,o),
(9,409,cs),
(4,407,o),
(3,404,o),
(6,399,cs),
(46,341,o),
(43,319,o),
(43,266,cs),
(44,-30,ls),
(44,-129,o),
(41,-187,o),
(-5,-220,cs),
(-13,-225,o),
(2,-234,o),
(15,-231,cs)
);
},
{
closed = 1;
nodes = (
(183,503,o),
(224,544,o),
(224,596,cs),
(224,647,o),
(183,689,o),
(132,689,cs),
(81,689,o),
(39,647,o),
(39,596,cs),
(39,544,o),
(81,503,o),
(132,503,cs)
);
}
);
width = 271;
},
{
layerId = "18664310-B513-4AD7-8363-6A03F31309A0";
shapes = (
{
closed = 1;
nodes = (
(167,-174,o),
(165,17,o),
(165,143,cs),
(165,472,ls),
(165,477,o),
(161,480,o),
(156,478,cs),
(131,470,o),
(94,458,o),
(42,439,cs),
(37,437,o),
(36,434,o),
(39,429,cs),
(71,378,o),
(72,347,o),
(72,294,cs),
(72,23,ls),
(72,-122,o),
(12,-196,o),
(-56,-221,cs),
(-64,-224,o),
(-57,-233,o),
(-46,-230,cs)
);
},
{
closed = 1;
nodes = (
(147,559,o),
(175,588,o),
(175,623,cs),
(175,657,o),
(147,686,o),
(113,686,cs),
(78,686,o),
(50,657,o),
(50,623,cs),
(50,588,o),
(78,559,o),
(113,559,cs)
);
}
);
width = 241;
},
{
layerId = "80C3F940-DAE7-4929-9C43-6EF0A304A7E9";
shapes = (
{
closed = 1;
nodes = (
(139,-166,o),
(134,19,o),
(134,143,cs),
(134,472,ls),
(134,477,o),
(130,480,o),
(125,478,cs),
(100,470,o),
(93,468,o),
(62,457,cs),
(57,455,o),
(56,452,o),
(59,447,cs),
(86,400,o),
(89,364,o),
(89,311,cs),
(89,55,ls),
(89,-118,o),
(-6,-202,o),
(-87,-221,cs),
(-95,-223,o),
(-93,-232,o),
(-82,-229,cs)
);
},
{
closed = 1;
nodes = (
(126,593,o),
(146,614,o),
(146,639,cs),
(146,663,o),
(126,684,o),
(101,684,cs),
(76,684,o),
(56,663,o),
(56,639,cs),
(56,614,o),
(76,593,o),
(101,593,cs)
);
}
);
width = 223;
}
);
unicode = 106;
},
{
glyphname = k;
kernLeft = k;
kernRight = k;
layers = (
{
layerId = "2812E460-E84E-4210-9915-0404F05954BE";
shapes = (
{
closed = 1;
nodes = (
(220,0,ls),
(225,0,o),
(229,4,o),
(229,9,cs),
(229,141,ls),
(229,146,o),
(232,151,o),
(236,156,cs),
(248,173,ls),
(252,178,o),
(257,175,o),
(259,170,cs),
(330,9,l),
(331,4,o),
(337,0,o),
(342,0,cs),
(507,0,ls),
(512,0,o),
(515,4,o),
(513,9,cs),
(380,299,l),
(379,304,o),
(378,308,o),
(382,312,cs),
(520,451,ls),
(524,455,o),
(523,459,o),
(518,459,cs),
(355,459,ls),
(350,459,o),
(348,454,o),
(351,449,cs),
(359,434,o),
(395,387,o),
(347,336,cs),
(236,222,ls),
(232,218,o),
(229,220,o),
(229,225,cs),
(229,697,ls),
(229,702,o),
(225,705,o),
(220,703,cs),
(195,695,o),
(108,666,o),
(21,634,cs),
(16,632,o),
(15,629,o),
(18,624,cs),
(58,566,o),
(55,544,o),
(55,491,cs),
(55,9,ls),
(55,4,o),
(59,0,o),
(64,0,cs)
);
}
);
width = 510;
},
{
layerId = "18664310-B513-4AD7-8363-6A03F31309A0";
shapes = (
{
closed = 1;
nodes = (
(164,0,ls),
(169,0,o),
(173,4,o),
(173,9,cs),
(173,149,ls),
(173,154,o),
(176,159,o),
(180,164,cs),
(238,227,ls),
(242,232,o),
(246,228,o),
(249,224,cs),
(377,9,ls),
(379,5,o),
(384,0,o),
(389,0,cs),
(472,0,ls),
(477,0,o),
(481,4,o),
(478,9,cs),
(313,293,l),
(311,298,o),
(311,302,o),
(315,306,cs),
(469,465,ls),
(473,469,o),
(472,473,o),
(467,473,cs),
(344,473,ls),
(339,473,o),
(337,468,o),
(340,463,cs),
(353,443,o),
(369,403,o),
(334,367,cs),
(180,207,ls),
(176,203,o),
(173,205,o),
(173,210,cs),
(173,697,ls),
(173,702,o),
(169,705,o),
(164,703,cs),
(139,695,o),
(97,681,o),
(50,664,cs),
(44,662,o),
(44,660,o),
(47,654,c),
(79,603,o),
(79,573,o),
(79,520,cs),
(79,9,ls),
(79,4,o),
(83,0,o),
(88,0,cs)
);
}
);
width = 478;
},
{
layerId = "80C3F940-DAE7-4929-9C43-6EF0A304A7E9";
shapes = (
{
closed = 1;
nodes = (
(130,0,ls),
(135,0,o),
(139,4,o),
(139,9,cs),
(139,154,ls),
(139,159,o),
(142,164,o),
(146,169,cs),
(232,259,ls),
(236,264,o),
(240,260,o),
(243,256,cs),
(405,9,ls),
(408,5,o),
(412,0,o),
(417,0,cs),
(451,0,ls),
(456,0,o),
(460,4,o),
(457,9,cs),
(273,289,ls),
(270,294,o),
(271,298,o),
(275,302,cs),
(439,474,ls),
(443,478,o),
(442,482,o),
(437,482,cs),
(337,482,ls),
(332,482,o),
(330,477,o),
(333,472,cs),
(349,448,o),
(354,413,o),
(326,385,cs),
(146,198,ls),
(142,194,o),
(139,196,o),
(139,201,cs),
(139,697,ls),
(139,702,o),
(135,705,o),
(130,703,cs),
(105,695,o),
(90,690,o),
(67,682,cs),
(61,680,o),
(61,678,o),
(64,672,cs),
(91,625,o),
(94,590,o),
(94,537,cs),
(94,9,ls),
(94,4,o),
(98,0,o),
(103,0,cs)
);
}
);
width = 459;
}
);
unicode = 107;
},
{
glyphname = l;
kernLeft = l;
kernRight = l;
layers = (
{
anchors = (
{
name = left;
pos = (-14,186);
}
);
hints = (
{
horizontal = 1;
place = (-4,20);
type = Stem;
},
{
horizontal = 1;
place = (726,20);
type = Stem;
},
{
place = (86,130);
type = Stem;
}
);
layerId = "2812E460-E84E-4210-9915-0404F05954BE";
shapes = (
{
closed = 1;
nodes = (
(220,0,ls),
(225,0,o),
(229,4,o),
(229,9,cs),
(229,697,ls),
(229,702,o),
(225,705,o),
(220,703,cs),
(196,695,o),
(107,666,o),
(21,634,cs),
(16,632,o),
(15,629,o),
(18,624,cs),
(57,567,o),
(55,544,o),
(55,491,cs),
(55,9,ls),
(55,4,o),
(59,0,o),
(64,0,cs)
);
}
);
width = 285;
},
{
anchors = (
{
name = left;
pos = (-14,186);
}
);
hints = (
{
horizontal = 1;
place = (-5,20);
type = Stem;
},
{
horizontal = 1;
place = (726,20);
type = Stem;
},
{
place = (86,130);
type = Stem;
}
);
layerId = "18664310-B513-4AD7-8363-6A03F31309A0";
shapes = (
{
closed = 1;
nodes = (
(164,0,ls),
(169,0,o),
(173,4,o),
(173,9,cs),
(173,697,ls),
(173,702,o),
(169,705,o),
(164,703,cs),
(138,694,o),
(102,683,o),
(50,664,cs),
(45,662,o),
(44,659,o),
(47,654,cs),
(80,598,o),
(79,573,o),
(79,520,cs),
(79,9,ls),
(79,4,o),
(83,0,o),
(88,0,cs)
);
}
);
width = 244;
},
{
anchors = (
{
name = left;
pos = (-14,186);
}
);
hints = (
{
horizontal = 1;
place = (-5,20);
type = Stem;
},
{
horizontal = 1;
place = (726,20);
type = Stem;
},
{
place = (86,130);
type = Stem;
}
);
layerId = "80C3F940-DAE7-4929-9C43-6EF0A304A7E9";
shapes = (
{
closed = 1;
nodes = (
(130,0,ls),
(135,0,o),
(139,4,o),
(139,9,cs),
(139,697,ls),
(139,702,o),
(135,705,o),
(130,703,cs),
(103,694,o),
(99,693,o),
(67,682,cs),
(62,680,o),
(61,677,o),
(64,672,cs),
(94,617,o),
(94,590,o),
(94,537,cs),
(94,9,ls),
(94,4,o),
(98,0,o),
(103,0,cs)
);
}
);
width = 220;
}
);
unicode = 108;
},
{
glyphname = m;
kernLeft = m;
kernRight = m;
layers = (
{
layerId = "2812E460-E84E-4210-9915-0404F05954BE";
shapes = (
{
closed = 1;
nodes = (
(221,0,ls),
(226,0,o),
(230,4,o),
(230,9,cs),
(230,349,ls),
(230,351,o),
(233,351,o),
(235,351,c),
(251,359,o),
(264,361,o),
(272,361,cs),
(297,361,o),
(324,339,o),
(324,272,cs),
(324,9,ls),
(324,4,o),
(328,0,o),
(333,0,cs),
(478,0,ls),
(483,0,o),
(487,4,o),
(487,9,cs),
(487,273,ls),
(487,343,o),
(483,345,o),
(492,351,cs),
(508,360,o),
(522,362,o),
(529,362,cs),
(554,362,o),
(581,340,o),
(581,272,cs),
(581,9,ls),
(581,4,o),
(585,0,o),
(590,0,cs),
(735,0,ls),
(740,0,o),
(744,4,o),
(744,9,cs),
(744,326,ls),
(744,405,o),
(715,479,o),
(644,479,cs),
(574,479,o),
(516,425,o),
(486,396,cs),
(482,392,o),
(478,395,o),
(477,400,c),
(461,447,o),
(431,479,o),
(387,479,cs),
(317,479,o),
(268,428,o),
(237,400,cs),
(233,396,o),
(230,398,o),
(230,403,cs),
(230,472,ls),
(230,477,o),
(226,480,o),
(221,478,cs),
(196,470,o),
(108,440,o),
(22,409,cs),
(17,407,o),
(16,404,o),
(19,399,cs),
(59,340,o),
(56,319,o),
(56,266,cs),
(56,9,ls),
(56,4,o),
(60,0,o),
(65,0,cs)
);
}
);
width = 790;
},
{
layerId = "18664310-B513-4AD7-8363-6A03F31309A0";
shapes = (
{
closed = 1;
nodes = (
(161,0,ls),
(166,0,o),
(170,4,o),
(170,9,cs),
(170,303,ls),
(170,327,o),
(174,355,o),
(184,370,c),
(207,399,o),
(238,427,o),
(293,427,cs),
(364,427,o),
(398,367,o),
(398,279,cs),
(398,9,ls),
(398,4,o),
(402,0,o),
(407,0,cs),
(479,0,ls),
(484,0,o),
(488,4,o),
(488,9,cs),
(488,274,ls),
(488,344,o),
(494,361,o),
(502,370,c),
(522,398,o),
(555,427,o),
(612,427,cs),
(682,427,o),
(716,366,o),
(716,279,cs),
(716,9,ls),
(716,4,o),
(720,0,o),
(725,0,cs),
(796,0,ls),
(801,0,o),
(805,4,o),
(805,9,cs),
(805,307,ls),
(805,428,o),
(726,481,o),
(655,481,cs),
(574,481,o),
(521,431,o),
(481,385,cs),
(477,381,o),
(474,382,o),
(472,387,cs),
(452,441,o),
(408,481,o),
(336,481,cs),
(258,481,o),
(209,432,o),
(177,400,cs),
(173,396,o),
(170,398,o),
(170,403,cs),
(170,474,ls),
(170,479,o),
(166,482,o),
(161,480,cs),
(136,472,o),
(99,459,o),
(47,441,cs),
(42,439,o),
(42,435,o),
(44,431,cs),
(76,379,o),
(77,350,o),
(77,297,cs),
(77,9,ls),
(77,4,o),
(81,0,o),
(86,0,cs)
);
}
);
width = 873;
},
{
layerId = "80C3F940-DAE7-4929-9C43-6EF0A304A7E9";
shapes = (
{
closed = 1;
nodes = (
(125,0,ls),
(130,0,o),
(134,4,o),
(134,9,cs),
(134,275,ls),
(134,313,o),
(139,358,o),
(154,382,cs),
(180,423,o),
(222,466,o),
(305,466,cs),
(404,466,o),
(443,384,o),
(443,283,cs),
(443,9,ls),
(443,4,o),
(447,0,o),
(452,0,cs),
(479,0,ls),
(484,0,o),
(488,4,o),
(488,9,cs),
(488,275,ls),
(488,345,o),
(501,370,o),
(508,382,cs),
(531,421,o),
(575,466,o),
(662,466,cs),
(759,466,o),
(797,381,o),
(797,283,cs),
(797,9,ls),
(797,4,o),
(801,0,o),
(806,0,cs),
(833,0,ls),
(838,0,o),
(842,4,o),
(842,9,cs),
(842,295,ls),
(842,442,o),
(733,482,o),
(662,482,cs),
(574,482,o),
(524,434,o),
(478,379,cs),
(474,375,o),
(471,374,o),
(469,379,cs),
(446,437,o),
(394,482,o),
(305,482,cs),
(222,482,o),
(174,435,o),
(141,400,cs),
(137,396,o),
(134,398,o),
(134,403,cs),
(134,475,ls),
(134,480,o),
(130,483,o),
(125,481,cs),
(100,473,o),
(94,471,o),
(62,460,cs),
(57,458,o),
(57,454,o),
(59,450,cs),
(86,403,o),
(89,368,o),
(89,315,cs),
(89,9,ls),
(89,4,o),
(93,0,o),
(98,0,cs)
);
}
);
width = 923;
}
);
unicode = 109;
},
{
glyphname = n;
kernLeft = n;
kernRight = n;
layers = (
{
layerId = "2812E460-E84E-4210-9915-0404F05954BE";
shapes = (
{
closed = 1;
nodes = (
(221,0,ls),
(226,0,o),
(230,4,o),
(230,9,cs),
(230,349,ls),
(230,350,o),
(233,352,o),
(235,351,c),
(251,359,o),
(266,361,o),
(271,361,cs),
(298,361,o),
(322,339,o),
(322,274,cs),
(322,9,ls),
(322,4,o),
(326,0,o),
(331,0,cs),
(476,0,ls),
(481,0,o),
(485,4,o),
(485,9,cs),
(485,328,ls),
(485,407,o),
(454,479,o),
(387,479,cs),
(317,479,o),
(268,428,o),
(237,400,cs),
(233,396,o),
(230,398,o),
(230,403,cs),
(230,472,ls),
(230,477,o),
(226,480,o),
(221,478,cs),
(196,470,o),
(108,440,o),
(22,409,cs),
(17,407,o),
(16,404,o),
(19,399,cs),
(59,340,o),
(56,319,o),
(56,266,cs),
(56,9,ls),
(56,4,o),
(60,0,o),
(65,0,cs)
);
}
);
width = 532;
},
{
layerId = "18664310-B513-4AD7-8363-6A03F31309A0";
shapes = (
{
closed = 1;
nodes = (
(161,0,ls),
(166,0,o),
(170,4,o),
(170,9,cs),
(170,303,ls),
(170,328,o),
(173,353,o),
(184,370,c),
(205,398,o),
(238,427,o),
(294,427,cs),
(364,427,o),
(405,371,o),
(405,267,cs),
(405,9,ls),
(405,4,o),
(409,0,o),
(414,0,cs),
(485,0,ls),
(490,0,o),
(494,4,o),
(494,9,cs),
(494,299,ls),
(494,421,o),
(423,481,o),
(338,481,cs),
(257,481,o),
(209,432,o),
(177,399,cs),
(173,395,o),
(170,397,o),
(170,403,cs),
(170,474,ls),
(170,479,o),
(166,482,o),
(161,480,cs),
(136,472,o),
(99,459,o),
(47,441,cs),
(42,439,o),
(41,436,o),
(44,431,cs),
(76,379,o),
(77,350,o),
(77,297,cs),
(77,9,ls),
(77,4,o),
(81,0,o),
(86,0,cs)
);
}
);
width = 563;
},
{
layerId = "80C3F940-DAE7-4929-9C43-6EF0A304A7E9";
shapes = (
{
closed = 1;
nodes = (
(125,0,ls),
(130,0,o),
(134,4,o),
(134,9,cs),
(134,275,ls),
(134,315,o),
(137,353,o),
(154,382,cs),
(177,421,o),
(221,466,o),
(308,466,cs),
(403,466,o),
(455,390,o),
(455,263,cs),
(455,9,ls),
(455,4,o),
(459,0,o),
(464,0,cs),
(491,0,ls),
(496,0,o),
(500,4,o),
(500,9,cs),
(500,282,ls),
(500,430,o),
(405,482,o),
(308,482,cs),
(221,482,o),
(174,435,o),
(141,398,cs),
(137,394,o),
(134,397,o),
(134,403,cs),
(134,475,ls),
(134,480,o),
(130,483,o),
(125,481,cs),
(100,473,o),
(94,471,o),
(62,460,cs),
(57,458,o),
(56,455,o),
(59,450,cs),
(86,403,o),
(89,368,o),
(89,315,cs),
(89,9,ls),
(89,4,o),
(93,0,o),
(98,0,cs)
);
}
);
width = 581;
}
);
unicode = 110;
},
{
glyphname = o;
kernLeft = o;
kernRight = o;
layers = (
{
layerId = "2812E460-E84E-4210-9915-0404F05954BE";
shapes = (
{
closed = 1;
nodes = (
(419,-9,o),
(528,90,o),
(528,235,cs),
(528,380,o),
(419,479,o),
(274,479,cs),
(130,479,o),
(21,380,o),
(21,235,cs),
(21,90,o),
(130,-9,o),
(274,-9,cs)
);
},
{
closed = 1;
nodes = (
(239,33,o),
(217,91,o),
(204,227,cs),
(191,365,o),
(201,427,o),
(257,433,cs),
(311,439,o),
(334,379,o),
(347,243,cs),
(360,104,o),
(351,42,o),
(293,37,cs)
);
}
);
width = 550;
},
{
layerId = "18664310-B513-4AD7-8363-6A03F31309A0";
shapes = (
{
closed = 1;
nodes = (
(441,-11,o),
(547,89,o),
(547,235,cs),
(547,381,o),
(441,481,o),
(293,481,cs),
(146,481,o),
(40,381,o),
(40,235,cs),
(40,89,o),
(146,-11,o),
(293,-11,cs)
);
},
{
closed = 1;
nodes = (
(236,10,o),
(154,66,o),
(139,226,cs),
(124,384,o),
(197,448,o),
(274,454,cs),
(358,460,o),
(435,405,o),
(448,244,cs),
(460,87,o),
(387,23,o),
(314,16,cs)
);
}
);
width = 587;
},
{
layerId = "80C3F940-DAE7-4929-9C43-6EF0A304A7E9";
shapes = (
{
closed = 1;
nodes = (
(454,-12,o),
(558,88,o),
(558,235,cs),
(558,382,o),
(454,482,o),
(305,482,cs),
(156,482,o),
(50,382,o),
(50,235,cs),
(50,88,o),
(156,-12,o),
(305,-12,cs)
);
},
{
closed = 1;
nodes = (
(234,-4,o),
(116,52,o),
(100,226,cs),
(84,396,o),
(195,461,o),
(284,466,cs),
(386,472,o),
(496,421,o),
(508,244,cs),
(520,77,o),
(409,11,o),
(326,4,cs)
);
}
);
width = 609;
}
);
unicode = 111;
},
{
glyphname = p;
kernLeft = p;
kernRight = p;
layers = (
{
layerId = "2812E460-E84E-4210-9915-0404F05954BE";
shapes = (
{
closed = 1;
nodes = (
(220,-230,ls),
(225,-230,o),
(229,-226,o),
(229,-221,cs),
(229,7,ls),
(229,12,o),
(231,14,o),
(236,11,cs),
(255,0,o),
(292,-9,o),
(322,-9,cs),
(447,-9,o),
(521,107,o),
(522,221,c),
(522,334,o),
(461,459,o),
(333,459,cs),
(300,459,o),
(264,450,o),
(235,436,cs),
(230,433,o),
(229,435,o),
(229,440,cs),
(229,452,ls),
(229,457,o),
(225,460,o),
(220,458,cs),
(195,450,o),
(108,421,o),
(21,389,cs),
(16,387,o),
(15,384,o),
(18,379,cs),
(58,321,o),
(55,299,o),
(55,246,cs),
(55,-221,ls),
(55,-226,o),
(59,-230,o),
(64,-230,cs)
);
},
{
closed = 1;
nodes = (
(269,35,o),
(252,42,o),
(234,56,cs),
(230,59,o),
(229,62,o),
(229,65,cs),
(229,385,ls),
(229,391,o),
(231,390,o),
(235,394,cs),
(244,402,o),
(254,393,o),
(255,392,c),
(284,390,o),
(324,341,o),
(337,249,cs),
(345,197,o),
(370,39,o),
(280,36,c)
);
}
);
width = 544;
},
{
layerId = "18664310-B513-4AD7-8363-6A03F31309A0";
shapes = (
{
closed = 1;
nodes = (
(164,-230,ls),
(169,-230,o),
(173,-226,o),
(173,-221,cs),
(173,24,ls),
(173,29,o),
(175,31,o),
(180,28,cs),
(243,-4,o),
(277,-11,o),
(323,-11,cs),
(448,-11,o),
(539,92,o),
(537,230,cs),
(535,354,o),
(459,473,o),
(322,473,cs),
(266,473,o),
(226,457,o),
(179,412,cs),
(174,408,o),
(173,411,o),
(173,416,cs),
(173,466,ls),
(173,471,o),
(169,474,o),
(164,472,cs),
(139,464,o),
(97,450,o),
(50,433,cs),
(45,431,o),
(44,428,o),
(47,423,cs),
(79,370,o),
(79,342,o),
(79,289,cs),
(79,-221,ls),
(79,-226,o),
(83,-230,o),
(88,-230,cs)
);
},
{
closed = 1;
nodes = (
(253,14,o),
(211,47,o),
(181,82,cs),
(175,89,o),
(173,98,o),
(173,119,cs),
(173,311,ls),
(173,317,o),
(175,349,o),
(177,353,c),
(183,381,o),
(208,434,o),
(282,438,cs),
(375,443,o),
(424,349,o),
(436,246,cs),
(450,130,o),
(406,19,o),
(318,16,cs)
);
}
);
width = 577;
},
{
layerId = "80C3F940-DAE7-4929-9C43-6EF0A304A7E9";
shapes = (
{
closed = 1;
nodes = (
(130,-230,ls),
(135,-230,o),
(139,-226,o),
(139,-221,cs),
(139,34,ls),
(139,39,o),
(141,41,o),
(146,38,cs),
(236,-6,o),
(268,-12,o),
(323,-12,cs),
(448,-12,o),
(550,83,o),
(546,235,cs),
(543,366,o),
(458,482,o),
(316,482,cs),
(246,482,o),
(203,461,o),
(145,398,cs),
(141,393,o),
(139,397,o),
(139,402,cs),
(139,475,ls),
(139,480,o),
(135,483,o),
(130,481,cs),
(105,473,o),
(90,468,o),
(67,460,cs),
(62,458,o),
(61,455,o),
(64,450,cs),
(92,399,o),
(94,368,o),
(94,315,cs),
(94,-221,ls),
(94,-226,o),
(98,-230,o),
(103,-230,cs)
);
},
{
closed = 1;
nodes = (
(244,1,o),
(187,50,o),
(149,98,cs),
(142,107,o),
(139,119,o),
(139,151,cs),
(139,267,ls),
(139,273,o),
(141,324,o),
(142,329,cs),
(147,369,o),
(181,458,o),
(298,466,cs),
(429,475,o),
(484,354,o),
(496,244,cs),
(513,90,o),
(427,7,o),
(341,4,cs)
);
}
);
width = 597;
}
);
unicode = 112;
},
{
glyphname = q;
kernLeft = q;
kernRight = q;
layers = (
{
layerId = "2812E460-E84E-4210-9915-0404F05954BE";
shapes = (
{
closed = 1;
nodes = (
(485,-230,ls),
(490,-230,o),
(494,-226,o),
(494,-221,cs),
(494,452,ls),
(494,457,o),
(490,460,o),
(485,458,cs),
(376,424,ls),
(370,422,o),
(364,423,o),
(359,425,cs),
(319,443,o),
(289,458,o),
(243,458,cs),
(91,458,o),
(10,324,o),
(28,185,cs),
(46,55,o),
(140,-28,o),
(258,-5,c),
(273,1,o),
(291,3,o),
(312,14,cs),
(317,17,o),
(320,15,o),
(320,10,cs),
(320,-221,ls),
(320,-226,o),
(324,-230,o),
(329,-230,cs)
);
},
{
closed = 1;
nodes = (
(262,65,o),
(221,115,o),
(211,202,cs),
(201,289,o),
(189,413,o),
(267,412,cs),
(285,412,o),
(298,403,o),
(315,392,c),
(318,391,o),
(320,387,o),
(320,382,cs),
(320,67,ls),
(320,61,o),
(317,57,o),
(313,56,cs),
(300,52,o),
(291,56,o),
(289,59,c)
);
}
);
width = 536;
},
{
layerId = "18664310-B513-4AD7-8363-6A03F31309A0";
shapes = (
{
closed = 1;
nodes = (
(496,-230,ls),
(501,-230,o),
(505,-226,o),
(505,-221,cs),
(505,467,ls),
(505,472,o),
(499,475,o),
(496,472,c),
(437,433,ls),
(434,431,o),
(429,430,o),
(425,432,cs),
(378,451,o),
(325,473,o),
(272,473,cs),
(132,473,o),
(38,367,o),
(47,212,cs),
(56,76,o),
(153,-18,o),
(277,-9,c),
(342,-7,o),
(380,29,o),
(404,50,cs),
(408,54,o),
(411,51,o),
(411,46,cs),
(411,-221,ls),
(411,-226,o),
(415,-230,o),
(420,-230,cs)
);
},
{
closed = 1;
nodes = (
(206,23,o),
(162,113,o),
(147,217,cs),
(132,326,o),
(171,445,o),
(265,446,cs),
(330,447,o),
(370,416,o),
(402,381,cs),
(410,373,o),
(411,359,o),
(411,348,cs),
(411,147,ls),
(411,141,o),
(410,123,o),
(407,109,cs),
(397,69,o),
(361,26,o),
(301,25,cs)
);
}
);
width = 571;
},
{
layerId = "80C3F940-DAE7-4929-9C43-6EF0A304A7E9";
shapes = (
{
closed = 1;
nodes = (
(502,-230,ls),
(507,-230,o),
(511,-226,o),
(511,-221,cs),
(511,476,ls),
(511,481,o),
(505,484,o),
(502,480,cs),
(474,439,ls),
(472,436,o),
(468,434,o),
(464,436,cs),
(413,456,o),
(347,482,o),
(290,482,cs),
(156,482,o),
(55,393,o),
(59,228,cs),
(62,89,o),
(161,-12,o),
(289,-12,cs),
(383,-12,o),
(434,44,o),
(459,72,cs),
(463,76,o),
(466,73,o),
(466,68,cs),
(466,-221,ls),
(466,-226,o),
(470,-230,o),
(475,-230,cs)
);
},
{
closed = 1;
nodes = (
(172,-2,o),
(127,112,o),
(109,226,cs),
(90,348,o),
(160,464,o),
(264,466,cs),
(357,468,o),
(413,424,o),
(454,375,cs),
(465,362,o),
(466,342,o),
(466,327,cs),
(466,195,ls),
(466,189,o),
(466,163,o),
(463,141,cs),
(455,79,o),
(403,8,o),
(308,4,cs)
);
}
);
width = 592;
}
);
unicode = 113;
},
{
glyphname = r;
kernLeft = r;
kernRight = r;
layers = (
{
layerId = "2812E460-E84E-4210-9915-0404F05954BE";
shapes = (
{
closed = 1;
nodes = (
(220,0,ls),
(225,0,o),
(229,4,o),
(229,9,cs),
(229,299,ls),
(229,317,o),
(257,345,o),
(296,349,c),
(316,345,o),
(329,337,o),
(355,334,c),
(366,327,o),
(369,330,o),
(368,350,cs),
(367,395,o),
(365,434,o),
(364,475,cs),
(364,481,o),
(364,486,o),
(359,485,cs),
(296,478,o),
(256,422,o),
(233,377,cs),
(230,370,o),
(229,372,o),
(229,377,cs),
(229,472,ls),
(229,477,o),
(225,480,o),
(220,478,cs),
(195,470,o),
(107,440,o),
(21,409,cs),
(16,407,o),
(15,404,o),
(18,399,cs),
(58,340,o),
(55,319,o),
(55,266,cs),
(55,9,ls),
(55,4,o),
(59,0,o),
(64,0,cs)
);
}
);
width = 394;
},
{
layerId = "18664310-B513-4AD7-8363-6A03F31309A0";
shapes = (
{
closed = 1;
nodes = (
(164,0,ls),
(169,0,o),
(173,4,o),
(173,9,cs),
(173,303,ls),
(173,351,o),
(186,375,o),
(207,389,c),
(235,424,o),
(310,434,o),
(336,349,c),
(341,343,o),
(345,342,o),
(347,354,c),
(354,384,o),
(365,428,o),
(368,450,cs),
(369,455,o),
(368,458,o),
(363,459,c),
(289,489,o),
(215,468,o),
(179,409,cs),
(175,403,o),
(173,407,o),
(173,412,cs),
(173,474,ls),
(173,479,o),
(169,482,o),
(164,480,cs),
(139,472,o),
(102,459,o),
(50,441,cs),
(45,439,o),
(44,436,o),
(47,431,cs),
(79,379,o),
(79,350,o),
(79,297,cs),
(79,9,ls),
(79,4,o),
(83,0,o),
(88,0,cs)
);
}
);
width = 380;
},
{
layerId = "80C3F940-DAE7-4929-9C43-6EF0A304A7E9";
shapes = (
{
closed = 1;
nodes = (
(130,0,ls),
(135,0,o),
(139,4,o),
(139,9,cs),
(139,305,ls),
(139,371,o),
(143,393,o),
(154,413,cs),
(187,471,o),
(298,492,o),
(325,358,cs),
(326,352,o),
(331,349,o),
(335,357,cs),
(346,378,o),
(365,424,o),
(370,435,cs),
(372,440,o),
(371,441,o),
(366,444,cs),
(285,496,o),
(191,496,o),
(146,428,cs),
(142,423,o),
(139,428,o),
(139,433,cs),
(139,475,ls),
(139,480,o),
(135,483,o),
(130,481,cs),
(105,473,o),
(99,471,o),
(67,460,cs),
(62,458,o),
(61,455,o),
(64,450,cs),
(91,403,o),
(94,368,o),
(94,315,cs),
(94,9,ls),
(94,4,o),
(98,0,o),
(103,0,cs)
);
}
);
width = 371;
}
);
unicode = 114;
},
{
glyphname = s;
kernLeft = s;
kernRight = s;
layers = (
{
layerId = "2812E460-E84E-4210-9915-0404F05954BE";
shapes = (
{
closed = 1;
nodes = (
(276,-7,o),
(385,41,o),
(385,150,cs),
(385,234,o),
(317,279,o),
(254,316,c),
(228,333,o),
(204,347,o),
(184,363,c),
(175,369,o),
(163,384,o),
(162,399,c),
(162,419,o),
(166,431,o),
(180,440,c),
(191,449,o),
(216,452,o),
(237,437,cs),
(261,421,o),
(294,379,o),
(344,308,cs),
(357,289,o),
(366,290,o),
(363,314,cs),
(359,345,o),
(354,409,o),
(350,430,cs),
(349,435,o),
(346,438,o),
(343,440,cs),
(302,465,o),
(252,480,o),
(208,480,cs),
(164,480,o),
(118,467,o),
(83,442,c),
(50,416,o),
(29,380,o),
(28,332,cs),
(27,301,o),
(32,276,o),
(49,252,cs),
(76,215,o),
(118,190,o),
(157,166,cs),
(179,153,o),
(199,141,o),
(224,121,c),
(238,108,o),
(249,96,o),
(249,80,cs),
(249,68,o),
(246,55,o),
(233,43,c),
(225,34,o),
(212,28,o),
(194,29,cs),
(152,30,o),
(118,90,o),
(48,186,cs),
(35,204,o),
(29,202,o),
(31,181,cs),
(41,49,l),
(41,45,o),
(43,41,o),
(46,39,cs),
(93,3,o),
(139,-7,o),
(191,-7,cs)
);
}
);
width = 407;
},
{
layerId = "18664310-B513-4AD7-8363-6A03F31309A0";
shapes = (
{
closed = 1;
nodes = (
(267,-11,o),
(367,32,o),
(367,134,cs),
(367,210,o),
(307,244,o),
(246,274,cs),
(215,289,o),
(167,313,o),
(145,330,cs),
(115,352,o),
(107,373,o),
(111,399,c),
(113,422,o),
(132,441,o),
(151,450,cs),
(175,461,o),
(205,462,o),
(233,450,cs),
(255,440,o),
(298,408,o),
(318,332,cs),
(322,319,o),
(331,321,o),
(331,333,c),
(337,361,o),
(345,407,o),
(352,433,c),
(352,436,o),
(352,439,o),
(348,441,cs),
(301,471,o),
(236,482,o),
(197,481,cs),
(154,480,o),
(119,467,o),
(87,443,cs),
(59,421,o),
(35,385,o),
(38,338,cs),
(40,305,o),
(52,283,o),
(66,267,cs),
(86,243,o),
(122,222,o),
(163,201,cs),
(187,188,o),
(219,176,o),
(244,160,cs),
(278,139,o),
(291,118,o),
(290,89,c),
(290,68,o),
(279,45,o),
(258,30,cs),
(241,18,o),
(211,13,o),
(188,15,cs),
(141,19,o),
(100,61,o),
(50,156,cs),
(43,168,o),
(36,166,o),
(37,153,cs),
(47,34,l),
(48,29,o),
(49,26,o),
(52,24,cs),
(87,-1,o),
(139,-11,o),
(187,-11,cs)
);
}
);
width = 401;
},
{
layerId = "80C3F940-DAE7-4929-9C43-6EF0A304A7E9";
shapes = (
{
closed = 1;
nodes = (
(262,-12,o),
(356,27,o),
(356,124,cs),
(356,196,o),
(302,223,o),
(241,249,c),
(207,262,o),
(145,293,o),
(121,310,c),
(80,342,o),
(73,366,o),
(80,400,c),
(84,424,o),
(112,447,o),
(134,455,c),
(165,468,o),
(198,469,o),
(232,458,cs),
(251,452,o),
(300,426,o),
(302,346,cs),
(302,338,o),
(310,340,o),
(312,345,cs),
(324,370,o),
(340,406,o),
(353,435,cs),
(354,437,o),
(355,440,o),
(351,443,cs),
(300,474,o),
(226,483,o),
(190,481,cs),
(148,479,o),
(119,468,o),
(89,444,cs),
(64,424,o),
(39,388,o),
(44,342,cs),
(48,307,o),
(65,287,o),
(76,276,cs),
(92,260,o),
(124,241,o),
(168,221,cs),
(192,210,o),
(230,197,o),
(257,183,c),
(303,157,o),
(316,131,o),
(315,95,cs),
(314,68,o),
(299,39,o),
(273,22,cs),
(251,7,o),
(211,4,o),
(184,7,cs),
(134,13,o),
(89,43,o),
(51,139,cs),
(48,146,o),
(40,145,o),
(41,136,cs),
(51,25,ls),
(52,19,o),
(53,17,o),
(56,15,cs),
(84,-3,o),
(138,-12,o),
(185,-12,cs)
);
}
);
width = 397;
}
);
unicode = 115;
},
{
glyphname = t;
kernLeft = t;
kernRight = t;
layers = (
{
layerId = "2812E460-E84E-4210-9915-0404F05954BE";
shapes = (
{
closed = 1;
nodes = (
(267,-9,o),
(308,1,o),
(352,27,c),
(359,32,o),
(354,43,o),
(347,42,cs),
(330,38,o),
(319,38,o),
(311,38,cs),
(270,39,o),
(250,73,o),
(250,145,cs),
(250,406,ls),
(250,411,o),
(254,415,o),
(259,415,cs),
(340,415,ls),
(345,415,o),
(349,420,o),
(349,425,cs),
(349,449,ls),
(349,454,o),
(345,459,o),
(340,459,cs),
(259,459,ls),
(254,459,o),
(250,463,o),
(250,468,cs),
(250,617,ls),
(250,622,o),
(246,625,o),
(241,623,cs),
(214,615,o),
(168,601,o),
(83,572,cs),
(78,570,o),
(78,565,o),
(78,560,cs),
(78,468,ls),
(78,463,o),
(74,459,o),
(69,459,cs),
(14,459,ls),
(9,459,o),
(5,454,o),
(5,449,cs),
(5,425,ls),
(5,420,o),
(9,415,o),
(14,415,cs),
(67,415,ls),
(72,415,o),
(76,411,o),
(76,406,cs),
(76,207,ls),
(76,60,o),
(146,-9,o),
(236,-9,cs)
);
}
);
width = 338;
},
{
layerId = "18664310-B513-4AD7-8363-6A03F31309A0";
shapes = (
{
closed = 1;
nodes = (
(248,-11,o),
(286,4,o),
(317,40,cs),
(321,44,o),
(317,51,o),
(313,48,cs),
(295,33,o),
(276,24,o),
(251,22,c),
(201,21,o),
(171,59,o),
(171,131,cs),
(171,439,ls),
(171,444,o),
(175,448,o),
(180,448,cs),
(290,448,ls),
(295,448,o),
(299,451,o),
(299,456,cs),
(299,467,ls),
(299,472,o),
(295,475,o),
(290,475,cs),
(180,475,ls),
(175,475,o),
(171,479,o),
(171,484,cs),
(171,614,ls),
(171,619,o),
(167,621,o),
(162,617,c),
(146,609,o),
(122,598,o),
(84,581,c),
(79,578,o),
(79,574,o),
(79,569,cs),
(79,484,ls),
(79,479,o),
(75,475,o),
(70,475,cs),
(17,475,ls),
(12,475,o),
(8,472,o),
(8,467,cs),
(8,456,ls),
(8,451,o),
(12,448,o),
(17,448,cs),
(69,448,ls),
(74,448,o),
(78,444,o),
(78,439,cs),
(78,158,ls),
(78,61,o),
(127,-11,o),
(213,-11,cs)
);
}
);
width = 309;
},
{
layerId = "80C3F940-DAE7-4929-9C43-6EF0A304A7E9";
shapes = (
{
closed = 1;
nodes = (
(237,-12,o),
(273,6,o),
(296,48,cs),
(298,51,o),
(295,56,o),
(292,52,cs),
(274,30,o),
(250,15,o),
(215,13,cs),
(160,10,o),
(124,50,o),
(124,122,cs),
(124,459,ls),
(124,464,o),
(128,468,o),
(133,468,cs),
(260,468,ls),
(265,468,o),
(269,469,o),
(269,474,cs),
(269,478,ls),
(269,483,o),
(265,484,o),
(260,484,cs),
(133,484,ls),
(128,484,o),
(124,488,o),
(124,493,cs),
(124,612,ls),
(124,617,o),
(119,618,o),
(115,614,cs),
(105,605,o),
(95,596,o),
(84,586,cs),
(80,583,o),
(79,579,o),
(79,574,cs),
(79,493,ls),
(79,488,o),
(75,484,o),
(70,484,cs),
(19,484,ls),
(14,484,o),
(10,483,o),
(10,478,cs),
(10,474,ls),
(10,469,o),
(14,468,o),
(19,468,cs),
(70,468,ls),
(75,468,o),
(79,464,o),
(79,459,cs),
(79,129,ls),
(79,61,o),
(115,-12,o),
(199,-12,cs)
);
}
);
width = 292;
}
);
unicode = 116;
},
{
glyphname = u;
kernLeft = u;
kernRight = u;
layers = (
{
anchors = (
{
name = left;
pos = (-9,189);
},
{
name = left.1;
pos = (5,209);
},
{
name = right;
pos = (534,178);
}
);
layerId = "2812E460-E84E-4210-9915-0404F05954BE";
shapes = (
{
closed = 1;
nodes = (
(223,-9,o),
(273,42,o),
(303,70,cs),
(306,73,o),
(310,72,o),
(310,67,cs),
(310,-1,ls),
(310,-5,o),
(313,-8,o),
(317,-8,c),
(351,-2,o),
(458,21,o),
(519,40,cs),
(524,42,o),
(526,45,o),
(523,50,cs),
(482,111,o),
(484,129,o),
(484,182,cs),
(484,471,ls),
(484,475,o),
(481,477,o),
(477,477,c),
(440,475,o),
(319,464,o),
(277,460,c),
(271,458,o),
(271,453,o),
(274,450,cs),
(319,396,o),
(310,319,o),
(310,266,cs),
(310,132,ls),
(310,126,o),
(309,124,o),
(309,124,c),
(297,109,o),
(268,109,o),
(269,109,c),
(244,109,o),
(215,132,o),
(215,196,cs),
(215,470,ls),
(215,474,o),
(212,476,o),
(207,476,c),
(164,474,o),
(62,465,o),
(20,461,cs),
(15,460,o),
(13,455,o),
(17,451,cs),
(60,408,o),
(53,319,o),
(53,266,cs),
(53,142,ls),
(53,62,o),
(89,-9,o),
(153,-9,cs)
);
}
);
width = 540;
},
{
anchors = (
{
name = left;
pos = (-10,189);
},
{
name = left.1;
pos = (4,209);
},
{
name = right;
pos = (533,178);
}
);
layerId = "18664310-B513-4AD7-8363-6A03F31309A0";
shapes = (
{
closed = 1;
nodes = (
(297,-11,o),
(345,38,o),
(377,71,cs),
(380,74,o),
(383,74,o),
(383,67,cs),
(383,0,ls),
(383,-5,o),
(387,-7,o),
(391,-7,c),
(415,-2,o),
(467,10,o),
(501,20,cs),
(506,22,o),
(508,24,o),
(504,29,cs),
(475,71,o),
(477,112,o),
(477,165,cs),
(477,472,ls),
(477,478,o),
(475,481,o),
(469,480,cs),
(440,476,o),
(380,470,o),
(351,465,cs),
(345,464,o),
(345,458,o),
(348,455,cs),
(385,415,o),
(384,350,o),
(384,297,cs),
(384,171,ls),
(384,127,o),
(379,113,o),
(371,101,cs),
(360,85,o),
(326,43,o),
(260,43,cs),
(182,43,o),
(159,99,o),
(159,203,cs),
(159,472,ls),
(159,478,o),
(156,480,o),
(150,480,c),
(117,476,o),
(66,470,o),
(37,465,cs),
(32,464,o),
(30,459,o),
(34,455,cs),
(70,419,o),
(70,350,o),
(70,297,cs),
(70,171,ls),
(70,53,o),
(120,-11,o),
(216,-11,cs)
);
}
);
width = 548;
},
{
anchors = (
{
name = left;
pos = (-10,189);
},
{
name = left.1;
pos = (4,209);
},
{
name = right;
pos = (533,178);
}
);
layerId = "80C3F940-DAE7-4929-9C43-6EF0A304A7E9";
shapes = (
{
closed = 1;
nodes = (
(341,-12,o),
(388,35,o),
(421,72,cs),
(424,75,o),
(427,75,o),
(427,67,cs),
(427,0,ls),
(427,-5,o),
(431,-7,o),
(436,-6,cs),
(454,-2,o),
(473,3,o),
(490,8,cs),
(495,10,o),
(497,12,o),
(493,17,cs),
(471,47,o),
(473,102,o),
(473,155,cs),
(473,473,ls),
(473,480,o),
(471,483,o),
(464,482,cs),
(440,477,o),
(416,473,o),
(395,468,cs),
(389,467,o),
(389,461,o),
(392,458,cs),
(424,426,o),
(428,369,o),
(428,316,cs),
(428,195,ls),
(428,128,o),
(421,107,o),
(408,87,cs),
(398,71,o),
(361,4,o),
(254,4,cs),
(145,4,o),
(125,79,o),
(125,207,cs),
(125,473,ls),
(125,480,o),
(123,483,o),
(116,482,cs),
(89,477,o),
(68,473,o),
(47,468,cs),
(42,467,o),
(40,462,o),
(44,458,cs),
(76,426,o),
(80,369,o),
(80,316,cs),
(80,188,ls),
(80,48,o),
(138,-12,o),
(254,-12,cs)
);
}
);
width = 553;
}
);
unicode = 117;
},
{
glyphname = v;
kernLeft = v;
kernRight = v;
layers = (
{
layerId = "2812E460-E84E-4210-9915-0404F05954BE";
shapes = (
{
closed = 1;
nodes = (
(291,-9,ls),
(296,-9,o),
(301,-5,o),
(303,0,cs),
(474,450,ls),
(476,455,o),
(473,459,o),
(468,459,cs),
(319,459,ls),
(314,459,o),
(312,455,o),
(316,451,cs),
(350,410,o),
(383,323,o),
(357,255,cs),
(311,136,ls),
(309,131,o),
(306,132,o),
(304,137,cs),
(186,450,ls),
(184,455,o),
(179,459,o),
(174,459,cs),
(7,459,ls),
(2,459,o),
(-1,455,o),
(1,450,cs),
(170,0,ls),
(172,-5,o),
(177,-9,o),
(182,-9,cs)
);
}
);
width = 479;
},
{
layerId = "18664310-B513-4AD7-8363-6A03F31309A0";
shapes = (
{
closed = 1;
nodes = (
(250,-11,ls),
(255,-11,o),
(260,-7,o),
(262,-2,cs),
(431,464,ls),
(433,469,o),
(430,473,o),
(425,473,cs),
(314,473,ls),
(309,473,o),
(307,470,o),
(311,466,cs),
(360,417,o),
(364,364,o),
(334,279,cs),
(257,65,ls),
(255,60,o),
(251,61,o),
(249,66,cs),
(100,464,ls),
(98,469,o),
(93,473,o),
(88,473,cs),
(7,473,ls),
(2,473,o),
(-1,469,o),
(1,464,cs),
(175,-2,ls),
(177,-7,o),
(182,-11,o),
(187,-11,cs)
);
}
);
width = 433;
},
{
layerId = "80C3F940-DAE7-4929-9C43-6EF0A304A7E9";
shapes = (
{
closed = 1;
nodes = (
(225,-12,ls),
(230,-12,o),
(235,-8,o),
(237,-3,cs),
(405,473,ls),
(407,478,o),
(404,482,o),
(399,482,cs),
(311,482,ls),
(306,482,o),
(304,479,o),
(308,475,cs),
(366,421,o),
(353,388,o),
(320,293,cs),
(225,23,ls),
(223,18,o),
(218,18,o),
(216,23,cs),
(49,473,ls),
(47,478,o),
(42,482,o),
(37,482,cs),
(7,482,ls),
(2,482,o),
(-1,478,o),
(1,473,cs),
(178,-3,ls),
(180,-8,o),
(185,-12,o),
(190,-12,cs)
);
}
);
width = 406;
}
);
unicode = 118;
},
{
glyphname = w;
kernLeft = w;
kernRight = w;
layers = (
{
layerId = "2812E460-E84E-4210-9915-0404F05954BE";
shapes = (
{
closed = 1;
nodes = (
(276,-9,ls),
(281,-9,o),
(286,-5,o),
(288,0,cs),
(362,210,ls),
(364,215,o),
(366,215,o),
(368,210,cs),
(436,0,ls),
(438,-5,o),
(443,-9,o),
(448,-9,cs),
(536,-9,ls),
(541,-9,o),
(546,-5,o),
(548,0,cs),
(698,450,ls),
(700,455,o),
(697,459,o),
(692,459,cs),
(543,459,ls),
(538,459,o),
(536,455,o),
(540,451,cs),
(575,409,o),
(613,320,o),
(589,252,cs),
(555,150,ls),
(553,145,o),
(550,146,o),
(548,151,cs),
(453,450,ls),
(451,455,o),
(446,459,o),
(441,459,cs),
(296,459,ls),
(291,459,o),
(288,455,o),
(290,450,cs),
(340,293,ls),
(342,288,o),
(342,280,o),
(340,275,cs),
(294,151,ls),
(292,146,o),
(289,147,o),
(287,152,cs),
(195,450,ls),
(193,455,o),
(188,459,o),
(183,459,cs),
(18,459,ls),
(13,459,o),
(10,455,o),
(12,450,cs),
(154,0,ls),
(156,-5,o),
(161,-9,o),
(166,-9,cs)
);
}
);
width = 710;
},
{
layerId = "18664310-B513-4AD7-8363-6A03F31309A0";
shapes = (
{
closed = 1;
nodes = (
(256,-11,ls),
(261,-11,o),
(267,-7,o),
(268,-2,cs),
(346,270,ls),
(347,275,o),
(350,275,o),
(352,270,cs),
(449,-2,ls),
(451,-7,o),
(456,-11,o),
(461,-11,cs),
(517,-11,ls),
(522,-11,o),
(525,-7,o),
(527,-2,cs),
(679,464,ls),
(681,469,o),
(678,473,o),
(673,473,cs),
(562,473,ls),
(557,473,o),
(555,469,o),
(559,465,cs),
(603,420,o),
(620,373,o),
(588,278,cs),
(521,71,ls),
(519,66,o),
(516,67,o),
(514,72,cs),
(375,464,ls),
(373,469,o),
(368,473,o),
(363,473,cs),
(290,473,ls),
(285,473,o),
(282,469,o),
(284,464,cs),
(330,331,ls),
(332,326,o),
(331,318,o),
(330,313,cs),
(262,71,ls),
(261,66,o),
(257,67,o),
(255,72,cs),
(103,464,ls),
(101,469,o),
(96,473,o),
(91,473,cs),
(10,473,ls),
(5,473,o),
(2,469,o),
(4,464,cs),
(182,-2,ls),
(184,-7,o),
(189,-11,o),
(194,-11,cs)
);
}
);
width = 683;
},
{
layerId = "80C3F940-DAE7-4929-9C43-6EF0A304A7E9";
shapes = (
{
closed = 1;
nodes = (
(244,-12,ls),
(249,-12,o),
(255,-8,o),
(256,-3,cs),
(336,306,ls),
(337,311,o),
(340,311,o),
(342,306,cs),
(457,-3,ls),
(459,-8,o),
(464,-12,o),
(469,-12,cs),
(505,-12,ls),
(510,-12,o),
(512,-8,o),
(514,-3,cs),
(668,473,ls),
(670,478,o),
(667,482,o),
(662,482,cs),
(574,482,ls),
(569,482,o),
(567,478,o),
(571,474,cs),
(620,426,o),
(624,405,o),
(588,293,cs),
(501,24,ls),
(499,18,o),
(496,20,o),
(494,25,cs),
(328,473,ls),
(326,478,o),
(321,482,o),
(316,482,cs),
(286,482,ls),
(281,482,o),
(278,478,o),
(280,473,cs),
(324,354,ls),
(326,349,o),
(325,341,o),
(324,336,cs),
(243,23,ls),
(242,18,o),
(238,19,o),
(236,24,cs),
(48,473,ls),
(46,478,o),
(41,482,o),
(36,482,cs),
(5,482,ls),
(0,482,o),
(-3,478,o),
(-1,473,cs),
(199,-3,ls),
(201,-8,o),
(206,-12,o),
(211,-12,cs)
);
}
);
width = 667;
}
);
unicode = 119;
},
{
glyphname = x;
kernLeft = x;
kernRight = x;
layers = (
{
layerId = "2812E460-E84E-4210-9915-0404F05954BE";
shapes = (
{
closed = 1;
nodes = (
(147,0,ls),
(152,0,o),
(155,3,o),
(151,7,cs),
(136,26,o),
(128,87,o),
(148,115,cs),
(176,154,ls),
(182,163,o),
(190,163,o),
(196,153,cs),
(287,8,ls),
(290,3,o),
(296,0,o),
(301,0,cs),
(484,0,ls),
(489,0,o),
(492,2,o),
(489,7,cs),
(332,258,ls),
(326,267,o),
(327,280,o),
(333,288,cs),
(459,452,l),
(463,456,o),
(461,459,o),
(456,459,cs),
(330,459,ls),
(325,459,o),
(321,456,o),
(325,452,cs),
(341,435,o),
(352,379,o),
(331,352,c),
(311,324,ls),
(305,316,o),
(296,316,o),
(290,326,cs),
(209,449,l),
(206,455,o),
(198,459,o),
(193,459,cs),
(10,459,ls),
(6,459,o),
(4,456,o),
(6,451,c),
(153,221,ls),
(160,211,o),
(159,199,o),
(152,190,cs),
(17,7,ls),
(13,2,o),
(15,0,o),
(20,0,cs)
);
}
);
width = 497;
},
{
layerId = "18664310-B513-4AD7-8363-6A03F31309A0";
shapes = (
{
closed = 1;
nodes = (
(117,0,ls),
(122,0,o),
(124,4,o),
(119,8,cs),
(100,27,o),
(94,77,o),
(116,105,cs),
(186,194,ls),
(190,200,o),
(196,200,o),
(200,194,cs),
(333,8,ls),
(336,3,o),
(341,0,o),
(346,0,cs),
(437,0,ls),
(443,0,o),
(446,3,o),
(443,7,cs),
(272,250,ls),
(267,257,o),
(266,265,o),
(271,271,cs),
(422,466,ls),
(425,470,o),
(424,474,o),
(419,474,cs),
(317,474,ls),
(312,474,o),
(310,471,o),
(313,466,cs),
(331,442,o),
(333,397,o),
(311,369,cs),
(257,297,ls),
(252,290,o),
(244,290,o),
(239,297,cs),
(118,468,l),
(115,471,o),
(111,474,o),
(107,474,cs),
(13,474,ls),
(8,474,o),
(5,471,o),
(9,465,cs),
(171,237,ls),
(175,231,o),
(174,223,o),
(171,218,c),
(11,7,ls),
(7,2,o),
(9,0,o),
(14,0,cs)
);
}
);
width = 446;
},
{
layerId = "80C3F940-DAE7-4929-9C43-6EF0A304A7E9";
shapes = (
{
closed = 1;
nodes = (
(98,0,ls),
(103,0,o),
(104,4,o),
(100,8,cs),
(78,28,o),
(74,71,o),
(97,99,cs),
(192,218,ls),
(195,222,o),
(199,222,o),
(203,218,c),
(360,8,ls),
(364,3,o),
(368,0,o),
(373,0,cs),
(409,0,ls),
(415,0,o),
(418,3,o),
(415,7,cs),
(236,245,ls),
(232,251,o),
(230,256,o),
(234,261,cs),
(400,475,ls),
(402,478,o),
(402,482,o),
(397,482,cs),
(309,482,ls),
(304,482,o),
(303,479,o),
(306,474,cs),
(325,446,o),
(322,408,o),
(300,379,cs),
(225,281,ls),
(220,275,o),
(213,275,o),
(209,280,cs),
(63,479,l),
(61,481,o),
(59,482,o),
(55,482,cs),
(15,482,ls),
(9,482,o),
(6,479,o),
(11,474,c),
(182,246,ls),
(185,242,o),
(184,238,o),
(182,235,cs),
(7,7,ls),
(3,2,o),
(5,0,o),
(11,0,cs)
);
}
);
width = 416;
}
);
unicode = 120;
},
{
glyphname = y;
kernLeft = y;
kernRight = y;
layers = (
{
layerId = "2812E460-E84E-4210-9915-0404F05954BE";
shapes = (
{
closed = 1;
nodes = (
(146,-207,o),
(193,-151,o),
(242,-46,cs),
(476,450,ls),
(478,455,o),
(476,459,o),
(471,459,cs),
(344,459,ls),
(339,459,o),
(337,456,o),
(341,452,cs),
(361,431,o),
(390,372,o),
(364,317,cs),
(307,204,ls),
(305,199,o),
(301,200,o),
(299,205,cs),
(193,450,ls),
(191,455,o),
(186,459,o),
(181,459,cs),
(11,459,ls),
(6,459,o),
(3,455,o),
(5,450,cs),
(202,-15,ls),
(204,-20,o),
(202,-25,o),
(200,-30,cs),
(191,-50,l),
(171,-89,o),
(92,-119,o),
(22,-102,c),
(17,-100,o),
(14,-103,o),
(15,-108,c),
(55,-222,ls),
(57,-227,o),
(63,-231,o),
(68,-230,cs)
);
}
);
width = 481;
},
{
layerId = "18664310-B513-4AD7-8363-6A03F31309A0";
shapes = (
{
closed = 1;
nodes = (
(137,-221,o),
(175,-186,o),
(223,-65,cs),
(437,464,ls),
(439,469,o),
(437,473,o),
(432,473,cs),
(328,473,ls),
(323,473,o),
(321,470,o),
(325,466,cs),
(345,445,o),
(372,383,o),
(350,328,cs),
(255,84,ls),
(253,79,o),
(249,80,o),
(247,85,cs),
(102,464,ls),
(100,469,o),
(95,473,o),
(90,473,cs),
(7,473,ls),
(2,473,o),
(-1,469,o),
(1,464,cs),
(198,-40,ls),
(200,-45,o),
(198,-50,o),
(196,-55,cs),
(188,-75,ls),
(159,-150,o),
(94,-168,o),
(28,-134,cs),
(23,-131,o),
(20,-132,o),
(19,-137,c),
(21,-222,ls),
(21,-226,o),
(24,-230,o),
(28,-230,c)
);
}
);
width = 437;
},
{
layerId = "80C3F940-DAE7-4929-9C43-6EF0A304A7E9";
shapes = (
{
closed = 1;
nodes = (
(132,-230,o),
(164,-207,o),
(212,-76,cs),
(413,473,ls),
(415,478,o),
(413,482,o),
(408,482,cs),
(319,482,ls),
(314,482,o),
(312,479,o),
(316,475,cs),
(336,454,o),
(361,390,o),
(341,335,cs),
(224,12,ls),
(222,7,o),
(218,8,o),
(216,13,cs),
(47,473,ls),
(45,478,o),
(40,482,o),
(35,482,cs),
(5,482,ls),
(0,482,o),
(-3,478,o),
(-1,473,cs),
(195,-55,ls),
(197,-60,o),
(195,-65,o),
(193,-70,cs),
(186,-90,ls),
(152,-187,o),
(95,-198,o),
(31,-153,cs),
(27,-150,o),
(23,-150,o),
(22,-154,cs),
(0,-222,ls),
(-1,-226,o),
(0,-230,o),
(4,-230,cs)
);
}
);
width = 410;
}
);
unicode = 121;
},
{
glyphname = z;
kernLeft = z;
kernRight = z;
layers = (
{
layerId = "2812E460-E84E-4210-9915-0404F05954BE";
shapes = (
{
closed = 1;
nodes = (
(421,0,ls),
(427,0,o),
(431,4,o),
(433,9,cs),
(475,143,ls),
(477,148,o),
(469,148,o),
(466,144,cs),
(418,82,o),
(313,43,o),
(267,43,cs),
(236,43,ls),
(231,43,o),
(229,46,o),
(232,51,cs),
(439,451,ls),
(442,456,o),
(440,459,o),
(435,459,cs),
(66,459,ls),
(61,459,o),
(59,454,o),
(58,451,cs),
(28,319,ls),
(27,314,o),
(32,314,o),
(35,319,cs),
(65,368,o),
(151,416,o),
(221,416,c),
(217,416,l),
(222,416,o),
(224,413,o),
(221,408,cs),
(2,8,ls),
(-1,3,o),
(1,0,o),
(6,0,cs)
);
}
);
width = 470;
},
{
layerId = "18664310-B513-4AD7-8363-6A03F31309A0";
shapes = (
{
closed = 1;
nodes = (
(384,0,ls),
(390,0,o),
(395,4,o),
(396,9,cs),
(424,112,l),
(425,118,o),
(418,118,o),
(415,114,cs),
(369,47,o),
(290,28,o),
(243,28,cs),
(150,28,ls),
(145,28,o),
(143,32,o),
(146,37,cs),
(398,465,ls),
(401,470,o),
(399,473,o),
(394,473,cs),
(70,473,ls),
(65,473,o),
(63,468,o),
(62,465,cs),
(40,364,ls),
(39,358,o),
(44,357,o),
(47,362,cs),
(78,413,o),
(135,446,o),
(207,446,cs),
(273,446,ls),
(279,446,o),
(281,442,o),
(278,437,cs),
(21,8,ls),
(18,3,o),
(20,0,o),
(25,0,cs)
);
}
);
width = 435;
},
{
layerId = "80C3F940-DAE7-4929-9C43-6EF0A304A7E9";
shapes = (
{
closed = 1;
nodes = (
(362,0,ls),
(368,0,o),
(373,4,o),
(374,9,cs),
(393,94,ls),
(394,100,o),
(388,100,o),
(385,96,cs),
(340,26,o),
(276,20,o),
(228,20,cs),
(98,20,ls),
(93,20,o),
(91,24,o),
(94,29,cs),
(373,474,ls),
(376,479,o),
(374,482,o),
(369,482,cs),
(73,482,ls),
(68,482,o),
(65,477,o),
(64,474,cs),
(47,390,ls),
(46,385,o),
(51,383,o),
(54,388,cs),
(86,439,o),
(126,463,o),
(199,463,cs),
(308,463,ls),
(313,463,o),
(315,460,o),
(312,455,cs),
(32,8,ls),
(29,3,o),
(31,0,o),
(36,0,cs)
);
}
);
width = 414;
}
);
unicode = 122;
},
{
glyphname = exclam;
layers = (
{
hints = (
{
horizontal = 1;
place = (-18,134);
type = Stem;
},
{
horizontal = 1;
place = (698,20);
type = Stem;
},
{
place = (297,130);
type = Stem;
}
);
layerId = "2812E460-E84E-4210-9915-0404F05954BE";
shapes = (
{
closed = 1;
nodes = (
(132,223,ls),
(137,223,o),
(141,227,o),
(143,232,c),
(153,305,o),
(163,372,o),
(188,442,cs),
(203,485,o),
(221,547,o),
(220,592,cs),
(220,646,o),
(183,692,o),
(128,692,cs),
(74,692,o),
(35,645,o),
(35,592,cs),
(34,547,o),
(52,484,o),
(67,440,cs),
(69,434,l),
(95,364,o),
(101,303,o),
(113,232,c),
(113,229,o),
(114,227,o),
(116,226,cs),
(118,224,o),
(121,223,o),
(123,223,cs)
);
},
{
closed = 1;
nodes = (
(178,-8,o),
(216,28,o),
(216,74,cs),
(216,122,o),
(177,161,o),
(130,161,cs),
(81,161,o),
(40,123,o),
(40,77,cs),
(40,30,o),
(81,-8,o),
(130,-8,cs)
);
}
);
width = 255;
},
{
hints = (
{
horizontal = 1;
place = (-19,134);
type = Stem;
},
{
horizontal = 1;
place = (698,20);
type = Stem;
},
{
place = (308,130);
type = Stem;
}
);
layerId = "18664310-B513-4AD7-8363-6A03F31309A0";
shapes = (
{
closed = 1;
nodes = (
(118,201,ls),
(121,201,o),
(124,205,o),
(125,210,cs),
(132,281,o),
(138,356,o),
(153,427,cs),
(163,471,o),
(176,527,o),
(179,573,c),
(180,612,o),
(163,670,o),
(115,670,cs),
(70,670,o),
(49,614,o),
(51,573,cs),
(54,529,o),
(68,476,o),
(76,434,c),
(77,424,l),
(91,354,o),
(97,286,o),
(104,218,c),
(104,214,o),
(105,211,o),
(106,208,cs),
(107,205,o),
(109,201,o),
(112,201,cs)
);
},
{
closed = 1;
nodes = (
(151,-7,o),
(177,20,o),
(177,52,cs),
(177,86,o),
(151,114,o),
(116,114,cs),
(82,114,o),
(51,87,o),
(51,54,cs),
(51,21,o),
(82,-7,o),
(116,-7,cs)
);
}
);
width = 229;
},
{
hints = (
{
horizontal = 1;
place = (-19,134);
type = Stem;
},
{
horizontal = 1;
place = (698,20);
type = Stem;
},
{
place = (315,130);
type = Stem;
}
);
layerId = "80C3F940-DAE7-4929-9C43-6EF0A304A7E9";
shapes = (
{
closed = 1;
nodes = (
(109,188,ls),
(112,188,o),
(114,192,o),
(114,197,c),
(119,267,o),
(123,347,o),
(133,418,cs),
(139,462,o),
(149,516,o),
(154,561,cs),
(157,592,o),
(152,657,o),
(107,657,cs),
(67,657,o),
(57,596,o),
(61,561,cs),
(65,518,o),
(77,471,o),
(81,430,cs),
(82,418,ls),
(88,349,o),
(95,276,o),
(99,209,c),
(99,205,o),
(100,201,o),
(100,197,cs),
(100,194,o),
(102,188,o),
(106,188,cs)
);
},
{
closed = 1;
nodes = (
(135,-6,o),
(155,15,o),
(155,39,cs),
(155,64,o),
(135,86,o),
(108,86,cs),
(82,86,o),
(59,64,o),
(59,40,cs),
(59,16,o),
(82,-6,o),
(108,-6,cs)
);
}
);
width = 213;
}
);
unicode = 33;
},
{
glyphname = quotedbl;
kernLeft = quotedbl2;
kernRight = quotedbl;
layers = (
{
hints = (
{
horizontal = 1;
place = (403,301);
type = Stem;
}
);
layerId = "2812E460-E84E-4210-9915-0404F05954BE";
shapes = (
{
closed = 1;
nodes = (
(322,400,o),
(330,404,o),
(331,409,cs),
(377,644,ls),
(382,669,o),
(359,704,o),
(310,704,cs),
(260,704,o),
(239,669,o),
(244,644,cs),
(290,409,ls),
(291,404,o),
(298,400,o),
(310,400,cs)
);
},
{
closed = 1;
nodes = (
(120,400,o),
(128,404,o),
(129,409,cs),
(175,644,ls),
(180,669,o),
(158,704,o),
(109,704,cs),
(59,704,o),
(37,669,o),
(41,644,c),
(88,409,l),
(88,404,o),
(97,400,o),
(109,400,cs)
);
}
);
width = 418;
},
{
hints = (
{
horizontal = 1;
place = (403,301);
type = Stem;
}
);
layerId = "18664310-B513-4AD7-8363-6A03F31309A0";
shapes = (
{
closed = 1;
nodes = (
(113,416,o),
(117,420,o),
(118,425,cs),
(155,648,ls),
(159,672,o),
(145,705,o),
(106,705,cs),
(66,705,o),
(52,672,o),
(56,648,cs),
(94,425,l),
(94,420,o),
(99,416,o),
(106,416,cs)
);
},
{
closed = 1;
nodes = (
(275,416,o),
(280,420,o),
(281,425,cs),
(317,648,l),
(322,672,o),
(308,705,o),
(269,705,cs),
(228,705,o),
(216,672,o),
(220,648,cs),
(256,425,ls),
(257,420,o),
(261,416,o),
(269,416,cs)
);
}
);
width = 373;
},
{
hints = (
{
horizontal = 1;
place = (403,301);
type = Stem;
}
);
layerId = "80C3F940-DAE7-4929-9C43-6EF0A304A7E9";
shapes = (
{
closed = 1;
nodes = (
(109,427,o),
(111,430,o),
(112,435,cs),
(142,651,l),
(146,674,o),
(137,706,o),
(104,706,cs),
(70,706,o),
(62,674,o),
(66,651,c),
(97,435,ls),
(98,430,o),
(100,427,o),
(104,427,cs)
);
},
{
closed = 1;
nodes = (
(247,427,o),
(250,430,o),
(251,435,cs),
(281,651,l),
(285,674,o),
(277,706,o),
(243,706,cs),
(209,706,o),
(202,674,o),
(205,651,cs),
(236,435,ls),
(237,430,o),
(239,427,o),
(243,427,cs)
);
}
);
width = 346;
}
);
unicode = 34;
},
{
glyphname = numbersign;
layers = (
{
hints = (
{
horizontal = 1;
place = (183,65);
type = Stem;
},
{
horizontal = 1;
place = (502,65);
type = Stem;
}
);
layerId = "2812E460-E84E-4210-9915-0404F05954BE";
shapes = (
{
closed = 1;
nodes = (
(150,0,ls),
(155,0,o),
(160,4,o),
(162,9,cs),
(227,203,ls),
(229,208,o),
(234,212,o),
(239,212,cs),
(471,212,ls),
(476,212,o),
(479,208,o),
(477,203,cs),
(411,9,ls),
(409,4,o),
(412,0,o),
(417,0,cs),
(445,0,ls),
(450,0,o),
(455,4,o),
(457,9,cs),
(522,202,ls),
(524,207,o),
(529,211,o),
(534,211,cs),
(771,211,ls),
(776,211,o),
(780,216,o),
(780,221,cs),
(780,245,ls),
(780,250,o),
(776,254,o),
(771,254,cs),
(549,254,ls),
(543,254,o),
(540,258,o),
(542,263,cs),
(611,464,ls),
(613,469,o),
(618,473,o),
(623,473,cs),
(860,473,ls),
(865,473,o),
(869,477,o),
(869,482,cs),
(869,507,ls),
(869,512,o),
(865,516,o),
(860,516,cs),
(637,516,ls),
(632,516,o),
(629,520,o),
(631,525,cs),
(693,709,ls),
(695,714,o),
(692,718,o),
(687,718,cs),
(661,718,ls),
(656,718,o),
(650,714,o),
(648,709,cs),
(585,525,ls),
(583,520,o),
(578,516,o),
(573,516,cs),
(341,516,ls),
(336,516,o),
(333,520,o),
(335,525,cs),
(399,709,ls),
(401,714,o),
(398,718,o),
(392,718,cs),
(366,718,ls),
(361,718,o),
(356,714,o),
(354,709,cs),
(290,525,ls),
(288,520,o),
(283,516,o),
(278,516,cs),
(118,516,ls),
(113,516,o),
(109,512,o),
(109,507,cs),
(109,482,ls),
(109,477,o),
(113,473,o),
(118,473,cs),
(264,473,ls),
(269,473,o),
(272,469,o),
(270,464,cs),
(202,263,ls),
(200,258,o),
(195,254,o),
(189,254,cs),
(29,254,ls),
(24,254,o),
(20,250,o),
(20,245,cs),
(20,222,ls),
(20,217,o),
(24,212,o),
(29,212,cs),
(176,212,ls),
(181,212,o),
(184,208,o),
(182,203,cs),
(116,9,ls),
(114,4,o),
(117,0,o),
(122,0,cs)
);
},
{
closed = 1;
nodes = (
(254,254,ls),
(249,254,o),
(246,258,o),
(248,263,cs),
(316,464,ls),
(318,469,o),
(323,473,o),
(328,473,cs),
(560,473,ls),
(565,473,o),
(568,469,o),
(566,464,cs),
(497,263,ls),
(495,258,o),
(490,254,o),
(485,254,cs)
);
}
);
width = 889;
},
{
hints = (
{
horizontal = 1;
place = (183,65);
type = Stem;
},
{
horizontal = 1;
place = (502,65);
type = Stem;
}
);
layerId = "18664310-B513-4AD7-8363-6A03F31309A0";
shapes = (
{
closed = 1;
nodes = (
(141,0,ls),
(146,0,o),
(150,4,o),
(152,8,c),
(211,192,l),
(213,196,o),
(217,200,o),
(222,200,cs),
(441,200,ls),
(446,200,o),
(448,196,o),
(447,192,cs),
(387,8,l),
(385,4,o),
(388,0,o),
(392,0,cs),
(407,0,ls),
(412,0,o),
(416,4,o),
(418,8,c),
(477,191,l),
(479,195,o),
(483,199,o),
(488,199,cs),
(676,199,ls),
(680,199,o),
(684,203,o),
(684,207,cs),
(684,221,ls),
(684,225,o),
(680,229,o),
(676,229,cs),
(501,229,ls),
(496,229,o),
(493,233,o),
(495,237,c),
(557,419,l),
(559,423,o),
(563,427,o),
(568,427,cs),
(756,427,ls),
(760,427,o),
(764,431,o),
(764,435,cs),
(764,448,ls),
(764,452,o),
(760,456,o),
(756,456,cs),
(581,456,ls),
(576,456,o),
(574,461,o),
(575,465,cs),
(631,639,ls),
(633,644,o),
(631,648,o),
(626,648,cs),
(612,648,ls),
(608,648,o),
(603,644,o),
(601,639,cs),
(544,465,l),
(542,461,o),
(538,456,o),
(533,456,cs),
(314,456,ls),
(309,456,o),
(307,461,o),
(309,465,c),
(366,639,l),
(367,644,o),
(365,648,o),
(360,648,cs),
(346,648,ls),
(342,648,o),
(337,644,o),
(335,639,cs),
(278,465,l),
(276,461,o),
(272,456,o),
(267,456,cs),
(123,456,ls),
(118,456,o),
(114,452,o),
(114,448,cs),
(114,435,ls),
(114,431,o),
(118,427,o),
(123,427,cs),
(254,427,ls),
(259,427,o),
(262,423,o),
(260,419,c),
(198,237,l),
(196,233,o),
(192,229,o),
(187,229,cs),
(43,229,ls),
(38,229,o),
(34,225,o),
(34,221,cs),
(34,208,ls),
(34,204,o),
(38,200,o),
(43,200,cs),
(175,200,ls),
(180,200,o),
(183,196,o),
(181,192,c),
(121,8,l),
(119,4,o),
(122,0,o),
(126,0,cs)
);
},
{
closed = 1;
nodes = (
(235,229,ls),
(230,229,o),
(228,233,o),
(229,237,cs),
(291,419,l),
(293,423,o),
(298,427,o),
(302,427,cs),
(521,427,ls),
(526,427,o),
(529,423,o),
(527,419,c),
(465,237,l),
(463,233,o),
(459,229,o),
(454,229,cs)
);
}
);
width = 798;
},
{
hints = (
{
horizontal = 1;
place = (183,65);
type = Stem;
},
{
horizontal = 1;
place = (502,65);
type = Stem;
}
);
layerId = "80C3F940-DAE7-4929-9C43-6EF0A304A7E9";
shapes = (
{
closed = 1;
nodes = (
(136,0,ls),
(140,0,o),
(145,3,o),
(146,8,c),
(201,185,l),
(203,189,o),
(207,193,o),
(212,193,cs),
(423,193,ls),
(427,193,o),
(430,189,o),
(428,185,c),
(372,8,l),
(371,3,o),
(373,0,o),
(378,0,cs),
(384,0,ls),
(389,0,o),
(393,3,o),
(395,8,cs),
(450,184,l),
(452,188,o),
(456,192,o),
(460,192,cs),
(618,192,ls),
(623,192,o),
(626,195,o),
(626,200,cs),
(626,206,ls),
(626,211,o),
(623,214,o),
(618,214,cs),
(472,214,ls),
(468,214,o),
(465,218,o),
(467,222,c),
(525,391,l),
(526,396,o),
(531,399,o),
(535,399,cs),
(693,399,ls),
(698,399,o),
(701,403,o),
(701,407,cs),
(701,412,ls),
(701,416,o),
(698,420,o),
(693,420,cs),
(547,420,ls),
(543,420,o),
(540,425,o),
(542,429,c),
(594,598,l),
(596,602,o),
(593,606,o),
(589,606,cs),
(583,606,ls),
(579,606,o),
(575,602,o),
(573,598,c),
(520,429,l),
(518,425,o),
(513,420,o),
(509,420,cs),
(298,420,ls),
(293,420,o),
(291,425,o),
(292,429,cs),
(346,598,ls),
(347,602,o),
(345,606,o),
(341,606,cs),
(335,606,ls),
(330,606,o),
(326,602,o),
(324,598,c),
(271,429,l),
(269,425,o),
(265,420,o),
(261,420,cs),
(126,420,ls),
(121,420,o),
(118,416,o),
(118,412,cs),
(118,407,ls),
(118,403,o),
(121,399,o),
(126,399,cs),
(249,399,ls),
(253,399,o),
(255,396,o),
(254,391,c),
(196,222,l),
(194,218,o),
(190,214,o),
(186,214,cs),
(51,214,ls),
(46,214,o),
(43,211,o),
(43,206,cs),
(43,200,ls),
(43,196,o),
(46,193,o),
(51,193,cs),
(175,193,ls),
(179,193,o),
(181,189,o),
(180,185,cs),
(124,8,ls),
(122,3,o),
(125,0,o),
(129,0,cs)
);
},
{
closed = 1;
nodes = (
(224,214,ls),
(219,214,o),
(217,218,o),
(218,222,cs),
(276,391,ls),
(278,396,o),
(282,399,o),
(286,399,cs),
(498,399,ls),
(502,399,o),
(505,396,o),
(503,391,cs),
(446,222,l),
(444,218,o),
(440,214,o),
(435,214,cs)
);
}
);
width = 744;
}
);
unicode = 35;
},
{
glyphname = dollar;
kernRight = S;
layers = (
{
hints = (
{
horizontal = 1;
place = (-59,33);
type = Stem;
},
{
horizontal = 1;
place = (692,34);
type = Stem;
},
{
place = (739,149);
type = Stem;
},
{
place = (783,54);
type = Stem;
},
{
place = (1029,149);
type = Stem;
},
{
place = (266,94);
type = Stem;
},
{
place = (270,90);
type = Stem;
}
);
layerId = "2812E460-E84E-4210-9915-0404F05954BE";
shapes = (
{
closed = 1;
nodes = (
(413,-19,o),
(541,30,o),
(542,177,c),
(542,301,o),
(454,359,o),
(376,426,cs),
(335,462,o),
(301,489,o),
(280,513,cs),
(262,533,o),
(253,555,o),
(249,578,c),
(245,619,o),
(262,646,o),
(284,660,cs),
(300,670,o),
(317,675,o),
(337,675,cs),
(366,675,o),
(387,666,o),
(407,650,c),
(444,623,o),
(472,567,o),
(508,483,c),
(508,481,o),
(510,480,o),
(512,480,cs),
(515,480,o),
(517,482,o),
(517,485,c),
(516,511,o),
(513,604,o),
(509,658,c),
(509,662,o),
(505,669,o),
(501,672,cs),
(439,713,o),
(372,719,o),
(312,719,cs),
(197,719,o),
(66,652,o),
(64,522,c),
(64,420,o),
(143,355,o),
(209,297,cs),
(260,252,o),
(307,217,o),
(327,192,c),
(349,168,o),
(360,149,o),
(363,127,cs),
(365,112,o),
(366,100,o),
(362,87,cs),
(356,70,o),
(346,57,o),
(336,49,cs),
(319,34,o),
(299,26,o),
(274,25,c),
(186,24,o),
(90,103,o),
(36,284,cs),
(35,287,o),
(31,291,o),
(28,291,cs),
(24,291,o),
(22,287,o),
(22,283,c),
(34,85,l),
(34,80,o),
(38,72,o),
(43,69,c),
(115,14,o),
(197,-19,o),
(277,-19,cs)
);
},
{
closed = 1;
nodes = (
(271,-79,ls),
(278,-80,o),
(283,-72,o),
(285,-60,c),
(369,760,ls),
(370,772,o),
(366,781,o),
(359,782,cs),
(338,785,l),
(331,784,o),
(326,778,o),
(324,764,c),
(240,-55,ls),
(239,-68,o),
(243,-77,o),
(250,-77,c)
);
}
);
width = 564;
},
{
hints = (
{
horizontal = 1;
place = (124,63);
type = Stem;
},
{
horizontal = 1;
place = (407,60);
type = Stem;
},
{
place = (277,56);
type = Stem;
},
{
place = (294,20);
type = Stem;
},
{
place = (386,56);
type = Stem;
},
{
place = (100,35);
type = Stem;
},
{
place = (101,34);
type = Stem;
}
);
layerId = "18664310-B513-4AD7-8363-6A03F31309A0";
shapes = (
{
closed = 1;
nodes = (
(387,-19,o),
(498,49,o),
(494,188,cs),
(491,292,o),
(404,345,o),
(304,407,cs),
(248,440,o),
(200,470,o),
(177,502,cs),
(158,529,o),
(148,566,o),
(160,602,c),
(169,640,o),
(193,662,o),
(219,675,cs),
(240,685,o),
(268,689,o),
(290,689,c),
(317,688,o),
(343,681,o),
(368,663,cs),
(405,637,o),
(426,599,o),
(460,529,cs),
(461,526,o),
(464,525,o),
(466,525,cs),
(469,525,o),
(471,528,o),
(471,531,c),
(470,540,o),
(464,640,o),
(463,660,c),
(462,666,o),
(461,671,o),
(456,674,cs),
(388,712,o),
(336,718,o),
(280,719,cs),
(187,721,o),
(57,664,o),
(62,527,cs),
(66,434,o),
(146,381,o),
(231,331,cs),
(288,296,o),
(337,264,o),
(361,240,cs),
(383,219,o),
(399,193,o),
(403,168,cs),
(407,143,o),
(403,117,o),
(394,95,cs),
(386,75,o),
(373,54,o),
(352,39,cs),
(323,17,o),
(288,12,o),
(254,14,cs),
(173,18,o),
(109,70,o),
(51,200,c),
(49,203,o),
(46,207,o),
(42,207,cs),
(38,207,o),
(36,203,o),
(36,198,c),
(45,56,l),
(45,51,o),
(48,46,o),
(53,43,cs),
(121,3,o),
(183,-17,o),
(252,-18,cs)
);
},
{
closed = 1;
nodes = (
(241,-68,ls),
(248,-69,o),
(253,-61,o),
(255,-49,c),
(333,744,ls),
(334,756,o),
(330,765,o),
(323,765,c),
(312,767,l),
(305,767,o),
(300,760,o),
(298,747,c),
(219,-46,ls),
(218,-58,o),
(222,-66,o),
(229,-67,cs)
);
}
);
width = 530;
},
{
hints = (
{
place = (234,81);
type = Stem;
},
{
place = (236,75);
type = Stem;
}
);
layerId = "80C3F940-DAE7-4929-9C43-6EF0A304A7E9";
shapes = (
{
closed = 1;
nodes = (
(372,-19,o),
(472,60,o),
(465,194,cs),
(460,287,o),
(374,337,o),
(261,395,cs),
(196,427,o),
(139,458,o),
(115,495,cs),
(95,527,o),
(85,572,o),
(106,616,cs),
(123,652,o),
(151,671,o),
(180,684,cs),
(204,694,o),
(238,698,o),
(262,697,cs),
(287,696,o),
(317,690,o),
(345,671,cs),
(382,646,o),
(398,618,o),
(431,557,cs),
(433,553,o),
(436,552,o),
(438,552,cs),
(442,552,o),
(443,555,o),
(443,558,c),
(443,558,o),
(435,661,o),
(435,661,c),
(434,669,o),
(435,672,o),
(429,675,cs),
(357,711,o),
(315,717,o),
(261,719,cs),
(181,722,o),
(52,671,o),
(61,530,cs),
(67,442,o),
(148,396,o),
(244,351,cs),
(305,323,o),
(355,292,o),
(381,269,cs),
(404,250,o),
(422,219,o),
(427,192,cs),
(432,162,o),
(425,127,o),
(413,100,cs),
(404,78,o),
(389,52,o),
(362,33,cs),
(326,7,o),
(281,3,o),
(242,7,cs),
(165,15,o),
(120,50,o),
(60,150,cs),
(58,153,o),
(55,156,o),
(51,156,cs),
(47,156,o),
(45,153,o),
(45,147,c),
(52,38,l),
(52,33,o),
(54,30,o),
(59,28,cs),
(125,-4,o),
(175,-16,o),
(237,-17,cs)
);
},
{
closed = 1;
nodes = (
(223,-62,l),
(230,-62,o),
(235,-55,o),
(237,-43,c),
(312,734,ls),
(313,747,o),
(309,755,o),
(302,755,c),
(296,756,ls),
(289,757,o),
(284,749,o),
(283,737,cs),
(207,-40,ls),
(206,-52,o),
(210,-60,o),
(217,-61,cs)
);
}
);
width = 510;
}
);
unicode = 36;
},
{
glyphname = percent;
layers = (
{
hints = (
{
horizontal = 1;
place = (-22,39);
type = Stem;
},
{
horizontal = 1;
place = (214,39);
type = Stem;
},
{
horizontal = 1;
place = (395,39);
type = Stem;
},
{
horizontal = 1;
place = (553,39);
type = Stem;
},
{
place = (-29,105);
type = Stem;
},
{
place = (248,105);
type = Stem;
},
{
place = (528,105);
type = Stem;
},
{
place = (806,105);
type = Stem;
}
);
layerId = "2812E460-E84E-4210-9915-0404F05954BE";
shapes = (
{
closed = 1;
nodes = (
(166,-29,ls),
(170,-32,o),
(175,-31,o),
(178,-27,cs),
(682,638,ls),
(685,642,o),
(684,647,o),
(680,650,cs),
(660,666,ls),
(656,669,o),
(651,668,o),
(648,664,cs),
(144,-1,ls),
(141,-5,o),
(142,-10,o),
(146,-13,cs)
);
},
{
closed = 1;
nodes = (
(302,314,o),
(378,389,o),
(378,483,cs),
(378,575,o),
(303,650,o),
(211,650,cs),
(118,650,o),
(42,575,o),
(42,483,cs),
(42,389,o),
(118,314,o),
(211,314,cs)
);
},
{
closed = 1;
nodes = (
(183,343,o),
(160,398,o),
(160,483,cs),
(159,567,o),
(182,621,o),
(211,621,cs),
(239,621,o),
(259,566,o),
(260,483,cs),
(261,398,o),
(240,344,o),
(211,343,c)
);
},
{
closed = 1;
nodes = (
(703,-12,o),
(779,63,o),
(779,156,cs),
(779,249,o),
(704,324,o),
(612,324,cs),
(519,324,o),
(443,249,o),
(443,156,cs),
(443,63,o),
(519,-12,o),
(612,-12,cs)
);
},
{
closed = 1;
nodes = (
(584,17,o),
(561,72,o),
(561,156,cs),
(560,241,o),
(583,295,o),
(612,295,cs),
(640,295,o),
(661,240,o),
(662,156,cs),
(663,72,o),
(641,18,o),
(612,17,c)
);
}
);
width = 822;
},
{
hints = (
{
horizontal = 1;
place = (-22,39);
type = Stem;
},
{
horizontal = 1;
place = (214,39);
type = Stem;
},
{
horizontal = 1;
place = (395,39);
type = Stem;
},
{
horizontal = 1;
place = (553,39);
type = Stem;
},
{
place = (-34,105);
type = Stem;
},
{
place = (243,105);
type = Stem;
},
{
place = (523,105);
type = Stem;
},
{
place = (801,105);
type = Stem;
}
);
layerId = "18664310-B513-4AD7-8363-6A03F31309A0";
shapes = (
{
closed = 1;
nodes = (
(150,-24,ls),
(154,-27,o),
(159,-26,o),
(162,-22,cs),
(666,643,ls),
(669,647,o),
(668,652,o),
(664,655,cs),
(654,662,ls),
(650,665,o),
(645,664,o),
(642,660,cs),
(138,-5,ls),
(135,-9,o),
(136,-14,o),
(140,-17,cs)
);
},
{
closed = 1;
nodes = (
(303,323,o),
(368,392,o),
(368,479,cs),
(368,565,o),
(304,634,o),
(213,634,cs),
(122,634,o),
(56,565,o),
(56,479,cs),
(56,392,o),
(122,323,o),
(213,323,cs)
);
},
{
closed = 1;
nodes = (
(162,347,o),
(135,401,o),
(135,479,cs),
(134,557,o),
(161,610,o),
(213,610,cs),
(264,610,o),
(288,556,o),
(289,479,cs),
(290,401,o),
(264,347,o),
(213,347,cs)
);
},
{
closed = 1;
nodes = (
(679,-6,o),
(742,64,o),
(742,149,cs),
(742,235,o),
(679,304,o),
(588,304,cs),
(497,304,o),
(432,235,o),
(432,149,cs),
(432,64,o),
(497,-6,o),
(588,-6,cs)
);
},
{
closed = 1;
nodes = (
(537,18,o),
(511,71,o),
(511,149,cs),
(510,227,o),
(537,280,o),
(588,280,cs),
(639,280,o),
(663,226,o),
(664,149,cs),
(665,71,o),
(640,19,o),
(588,18,cs)
);
}
);
width = 799;
},
{
hints = (
{
horizontal = 1;
place = (-22,39);
type = Stem;
},
{
horizontal = 1;
place = (214,39);
type = Stem;
},
{
horizontal = 1;
place = (395,39);
type = Stem;
},
{
horizontal = 1;
place = (553,39);
type = Stem;
},
{
place = (-37,105);
type = Stem;
},
{
place = (240,105);
type = Stem;
},
{
place = (520,105);
type = Stem;
},
{
place = (798,105);
type = Stem;
}
);
layerId = "80C3F940-DAE7-4929-9C43-6EF0A304A7E9";
shapes = (
{
closed = 1;
nodes = (
(140,-21,ls),
(145,-24,o),
(149,-23,o),
(152,-19,cs),
(656,646,ls),
(659,650,o),
(659,655,o),
(654,658,cs),
(651,660,ls),
(646,663,o),
(642,662,o),
(639,658,cs),
(135,-7,ls),
(132,-11,o),
(132,-16,o),
(137,-19,cs)
);
},
{
closed = 1;
nodes = (
(304,328,o),
(362,394,o),
(362,477,cs),
(362,559,o),
(304,625,o),
(214,625,cs),
(124,625,o),
(65,559,o),
(65,477,cs),
(65,394,o),
(124,328,o),
(214,328,cs)
);
},
{
closed = 1;
nodes = (
(149,349,o),
(120,403,o),
(120,477,cs),
(119,551,o),
(149,604,o),
(214,604,cs),
(279,604,o),
(306,550,o),
(307,477,cs),
(308,403,o),
(279,349,o),
(214,349,cs)
);
},
{
closed = 1;
nodes = (
(664,-2,o),
(720,64,o),
(720,145,cs),
(720,226,o),
(664,292,o),
(574,292,cs),
(484,292,o),
(426,226,o),
(426,145,cs),
(426,64,o),
(484,-2,o),
(574,-2,cs)
);
},
{
closed = 1;
nodes = (
(509,19,o),
(481,71,o),
(481,145,cs),
(480,219,o),
(509,271,o),
(574,271,cs),
(639,271,o),
(664,218,o),
(665,145,cs),
(666,71,o),
(639,19,o),
(574,19,cs)
);
}
);
width = 785;
}
);
unicode = 37;
},
{
glyphname = ampersand;
layers = (
{
hints = (
{
horizontal = 1;
place = (-23,72);
type = Stem;
},
{
horizontal = 1;
place = (395,39);
type = Stem;
},
{
horizontal = 1;
place = (634,39);
type = Stem;
},
{
place = (91,130);
type = Stem;
},
{
place = (417,68);
type = Stem;
},
{
place = (742,301);
type = Stem;
}
);
layerId = "2812E460-E84E-4210-9915-0404F05954BE";
shapes = (
{
closed = 1;
nodes = (
(510,-52,o),
(514,-52,o),
(518,-48,cs),
(549,-18,o),
(621,52,o),
(662,92,cs),
(667,96,o),
(666,100,o),
(661,103,cs),
(619,124,o),
(582,144,o),
(564,162,cs),
(560,166,o),
(560,172,o),
(564,176,cs),
(595,210,o),
(646,284,o),
(658,352,c),
(664,393,o),
(661,437,o),
(645,470,cs),
(643,475,o),
(638,476,o),
(633,474,cs),
(505,420,ls),
(500,418,o),
(500,413,o),
(503,409,cs),
(521,387,o),
(538,359,o),
(545,332,c),
(552,309,o),
(564,266,o),
(535,208,cs),
(532,203,o),
(529,202,o),
(525,206,cs),
(479,253,o),
(392,350,o),
(358,388,cs),
(354,392,o),
(355,397,o),
(360,400,cs),
(402,426,o),
(464,468,o),
(463,542,cs),
(463,623,o),
(389,679,o),
(283,679,c),
(180,680,o),
(91,605,o),
(97,500,cs),
(101,437,o),
(130,394,o),
(158,354,cs),
(161,350,o),
(160,345,o),
(156,341,cs),
(122,305,o),
(48,235,o),
(47,143,cs),
(47,48,o),
(105,-22,o),
(209,-21,cs),
(296,-21,o),
(370,19,o),
(413,42,cs),
(418,45,o),
(423,45,o),
(427,41,cs),
(442,23,o),
(476,-15,o),
(506,-48,cs)
);
},
{
closed = 1;
nodes = (
(350,47,o),
(275,46,o),
(215,131,cs),
(166,200,o),
(175,262,o),
(189,305,c),
(192,309,o),
(195,309,o),
(199,305,cs),
(389,89,ls),
(393,85,o),
(392,78,o),
(388,75,cs)
);
},
{
closed = 1;
nodes = (
(323,435,o),
(318,436,o),
(314,439,cs),
(288,462,o),
(226,530,o),
(219,579,cs),
(212,632,o),
(264,641,o),
(280,641,cs),
(328,640,o),
(380,598,o),
(371,528,cs),
(364,466,o),
(339,450,o),
(328,438,c)
);
}
);
width = 705;
},
{
hints = (
{
horizontal = 1;
place = (-23,72);
type = Stem;
},
{
horizontal = 1;
place = (395,39);
type = Stem;
},
{
horizontal = 1;
place = (634,39);
type = Stem;
},
{
place = (96,130);
type = Stem;
},
{
place = (422,68);
type = Stem;
},
{
place = (747,301);
type = Stem;
}
);
layerId = "18664310-B513-4AD7-8363-6A03F31309A0";
shapes = (
{
closed = 1;
nodes = (
(596,-31,o),
(601,-31,o),
(604,-26,cs),
(623,3,o),
(658,48,o),
(680,81,cs),
(683,85,o),
(681,88,o),
(676,89,c),
(616,87,o),
(566,112,o),
(545,131,cs),
(541,135,o),
(541,141,o),
(545,145,cs),
(581,184,o),
(637,270,o),
(650,343,cs),
(658,392,o),
(653,449,o),
(637,484,cs),
(635,489,o),
(630,490,o),
(625,487,cs),
(541,444,ls),
(537,442,o),
(536,437,o),
(539,433,cs),
(560,404,o),
(576,361,o),
(579,329,c),
(581,288,o),
(568,221,o),
(526,164,c),
(522,160,o),
(518,159,o),
(514,163,cs),
(461,212,o),
(347,319,o),
(304,362,cs),
(300,366,o),
(301,369,o),
(306,371,cs),
(359,392,o),
(450,445,o),
(452,520,cs),
(454,599,o),
(388,661,o),
(278,658,cs),
(175,655,o),
(107,586,o),
(113,500,cs),
(117,441,o),
(151,397,o),
(184,358,cs),
(187,354,o),
(186,350,o),
(182,347,c),
(115,313,o),
(44,246,o),
(45,152,cs),
(46,49,o),
(131,-23,o),
(250,-20,cs),
(345,-18,o),
(422,30,o),
(465,67,cs),
(469,71,o),
(474,71,o),
(478,67,cs),
(501,46,o),
(540,4,o),
(592,-29,cs)
);
},
{
closed = 1;
nodes = (
(369,16,o),
(219,15,o),
(155,105,cs),
(97,188,o),
(126,286,o),
(204,327,c),
(208,330,o),
(214,329,o),
(218,325,cs),
(448,101,ls),
(452,97,o),
(452,92,o),
(448,88,cs)
);
},
{
closed = 1;
nodes = (
(277,391,o),
(271,392,o),
(267,396,cs),
(225,434,o),
(187,486,o),
(185,540,cs),
(182,595,o),
(225,630,o),
(278,633,cs),
(339,635,o),
(399,587,o),
(394,515,cs),
(390,451,o),
(335,410,o),
(282,393,cs)
);
}
);
width = 724;
},
{
hints = (
{
horizontal = 1;
place = (-23,72);
type = Stem;
},
{
horizontal = 1;
place = (395,39);
type = Stem;
},
{
horizontal = 1;
place = (634,39);
type = Stem;
},
{
place = (99,130);
type = Stem;
},
{
place = (425,68);
type = Stem;
},
{
place = (750,301);
type = Stem;
}
);
layerId = "80C3F940-DAE7-4929-9C43-6EF0A304A7E9";
shapes = (
{
closed = 1;
nodes = (
(648,-19,o),
(653,-18,o),
(655,-13,cs),
(668,16,o),
(680,46,o),
(691,74,cs),
(693,79,o),
(690,81,o),
(685,80,cs),
(614,65,o),
(557,93,o),
(534,113,cs),
(530,116,o),
(530,122,o),
(534,126,cs),
(572,168,o),
(631,262,o),
(645,337,cs),
(655,391,o),
(648,456,o),
(632,492,cs),
(630,497,o),
(625,498,o),
(620,495,cs),
(563,459,ls),
(559,456,o),
(557,451,o),
(560,447,cs),
(583,414,o),
(599,362,o),
(599,327,cs),
(599,276,o),
(571,194,o),
(520,138,cs),
(516,134,o),
(511,133,o),
(507,137,cs),
(450,188,o),
(320,301,o),
(271,346,cs),
(267,350,o),
(268,352,o),
(273,354,cs),
(333,372,o),
(441,431,o),
(445,507,cs),
(449,585,o),
(387,650,o),
(275,645,cs),
(172,640,o),
(117,575,o),
(122,500,cs),
(126,443,o),
(164,399,o),
(199,361,cs),
(203,357,o),
(202,353,o),
(197,351,cs),
(111,318,o),
(42,252,o),
(44,158,cs),
(46,49,o),
(147,-23,o),
(275,-19,cs),
(374,-16,o),
(453,37,o),
(496,82,cs),
(500,86,o),
(505,86,o),
(509,83,cs),
(536,60,o),
(579,16,o),
(643,-17,cs)
);
},
{
closed = 1;
nodes = (
(381,-3,o),
(186,-4,o),
(119,90,cs),
(55,181,o),
(96,301,o),
(213,340,cs),
(218,342,o),
(225,341,o),
(229,337,cs),
(483,108,ls),
(487,104,o),
(488,100,o),
(484,96,cs)
);
},
{
closed = 1;
nodes = (
(250,365,o),
(243,366,o),
(239,370,cs),
(187,417,o),
(164,459,o),
(164,517,cs),
(164,573,o),
(202,623,o),
(277,628,cs),
(345,632,o),
(411,580,o),
(408,507,cs),
(405,442,o),
(333,386,o),
(255,366,cs)
);
}
);
width = 736;
}
);
unicode = 38;
},
{
glyphname = quotesingle;
kernLeft = quotedbl2;
kernRight = quotedbl;
layers = (
{
hints = (
{
horizontal = 1;
place = (403,301);
type = Stem;
}
);
layerId = "2812E460-E84E-4210-9915-0404F05954BE";
shapes = (
{
closed = 1;
nodes = (
(133,400,o),
(140,405,o),
(141,410,cs),
(187,645,ls),
(192,670,o),
(170,705,o),
(121,705,cs),
(70,705,o),
(49,670,o),
(53,645,c),
(100,410,ls),
(101,405,o),
(109,400,o),
(121,400,cs)
);
}
);
width = 240;
},
{
hints = (
{
horizontal = 1;
place = (403,301);
type = Stem;
}
);
layerId = "18664310-B513-4AD7-8363-6A03F31309A0";
shapes = (
{
closed = 1;
nodes = (
(125,413,o),
(128,417,o),
(129,422,cs),
(166,645,ls),
(170,670,o),
(156,702,o),
(117,702,cs),
(78,702,o),
(65,669,o),
(68,645,c),
(104,422,ls),
(105,417,o),
(110,413,o),
(117,413,cs)
);
}
);
width = 233;
},
{
hints = (
{
horizontal = 1;
place = (403,301);
type = Stem;
}
);
layerId = "80C3F940-DAE7-4929-9C43-6EF0A304A7E9";
shapes = (
{
closed = 1;
nodes = (
(120,421,o),
(121,424,o),
(122,429,cs),
(153,645,ls),
(157,670,o),
(147,700,o),
(115,700,cs),
(83,700,o),
(74,669,o),
(77,645,cs),
(107,429,ls),
(108,424,o),
(110,421,o),
(115,421,cs)
);
}
);
width = 229;
}
);
unicode = 39;
},
{
glyphname = parenleft;
kernRight = parenleft;
layers = (
{
hints = (
{
place = (44,140);
type = Stem;
}
);
layerId = "2812E460-E84E-4210-9915-0404F05954BE";
shapes = (
{
closed = 1;
nodes = (
(356,-151,o),
(360,-150,o),
(363,-145,cs),
(370,-135,ls),
(373,-130,o),
(371,-125,o),
(367,-122,cs),
(272,-48,o),
(194,119,o),
(194,285,c),
(195,435,o),
(211,581,o),
(354,678,cs),
(358,681,o),
(359,687,o),
(357,692,cs),
(352,702,ls),
(350,707,o),
(344,709,o),
(339,707,cs),
(182,629,o),
(40,479,o),
(40,285,cs),
(40,92,o),
(222,-87,o),
(351,-150,c)
);
}
);
width = 375;
},
{
hints = (
{
place = (41,140);
type = Stem;
}
);
layerId = "18664310-B513-4AD7-8363-6A03F31309A0";
shapes = (
{
closed = 1;
nodes = (
(357,-164,o),
(360,-164,o),
(363,-159,cs),
(367,-153,ls),
(370,-148,o),
(368,-145,o),
(364,-142,cs),
(241,-52,o),
(148,100,o),
(147,286,c),
(147,471,o),
(230,621,o),
(358,708,cs),
(362,711,o),
(364,714,o),
(361,719,cs),
(358,725,ls),
(356,730,o),
(352,731,o),
(347,728,cs),
(200,641,o),
(54,480,o),
(54,286,cs),
(54,93,o),
(213,-80,o),
(352,-162,c)
);
}
);
width = 386;
},
{
hints = (
{
place = (39,140);
type = Stem;
}
);
layerId = "80C3F940-DAE7-4929-9C43-6EF0A304A7E9";
shapes = (
{
closed = 1;
nodes = (
(357,-172,o),
(360,-172,o),
(363,-167,cs),
(365,-164,ls),
(368,-159,o),
(366,-157,o),
(362,-154,cs),
(222,-54,o),
(120,89,o),
(119,286,cs),
(118,492,o),
(242,645,o),
(361,726,cs),
(365,729,o),
(367,730,o),
(364,735,cs),
(362,739,ls),
(360,744,o),
(357,744,o),
(352,741,cs),
(211,648,o),
(63,480,o),
(63,286,cs),
(63,93,o),
(208,-76,o),
(352,-169,cs)
);
}
);
width = 393;
}
);
unicode = 40;
},
{
glyphname = parenright;
kernLeft = parenright;
layers = (
{
hints = (
{
place = (327,140);
type = Stem;
}
);
layerId = "2812E460-E84E-4210-9915-0404F05954BE";
shapes = (
{
closed = 1;
nodes = (
(154,-85,o),
(333,93,o),
(334,285,c),
(334,479,o),
(191,629,o),
(34,707,cs),
(29,709,o),
(24,708,o),
(22,703,cs),
(17,692,ls),
(15,687,o),
(16,681,o),
(20,678,cs),
(157,584,o),
(180,442,o),
(179,285,c),
(179,118,o),
(103,-47,o),
(7,-122,cs),
(3,-125,o),
(1,-130,o),
(4,-135,cs),
(11,-145,ls),
(14,-150,o),
(18,-151,o),
(23,-149,cs)
);
}
);
width = 375;
},
{
hints = (
{
place = (341,140);
type = Stem;
}
);
layerId = "18664310-B513-4AD7-8363-6A03F31309A0";
shapes = (
{
closed = 1;
nodes = (
(162,-91,o),
(332,89,o),
(331,284,cs),
(330,478,o),
(187,638,o),
(38,727,cs),
(33,730,o),
(30,729,o),
(27,724,cs),
(24,718,ls),
(21,713,o),
(23,710,o),
(27,707,cs),
(176,609,o),
(237,441,o),
(238,284,cs),
(240,101,o),
(139,-59,o),
(21,-143,cs),
(17,-146,o),
(15,-149,o),
(18,-154,cs),
(22,-160,ls),
(25,-165,o),
(29,-165,o),
(34,-163,c)
);
}
);
width = 386;
},
{
hints = (
{
place = (350,140);
type = Stem;
}
);
layerId = "80C3F940-DAE7-4929-9C43-6EF0A304A7E9";
shapes = (
{
closed = 1;
nodes = (
(167,-94,o),
(331,87,o),
(329,284,cs),
(327,478,o),
(184,643,o),
(40,739,cs),
(36,742,o),
(33,742,o),
(30,737,cs),
(28,733,ls),
(25,728,o),
(27,727,o),
(31,724,cs),
(187,624,o),
(271,441,o),
(273,284,cs),
(276,91,o),
(161,-66,o),
(30,-156,cs),
(26,-159,o),
(24,-161,o),
(27,-166,cs),
(29,-169,ls),
(32,-174,o),
(35,-174,o),
(40,-171,cs)
);
}
);
width = 393;
}
);
unicode = 41;
},
{
glyphname = asterisk;
layers = (
{
hints = (
{
horizontal = 1;
place = (706,20);
type = Stem;
},
{
place = (205,55);
type = Stem;
}
);
layerId = "2812E460-E84E-4210-9915-0404F05954BE";
shapes = (
{
closed = 1;
nodes = (
(255,324,o),
(266,323,o),
(266,354,cs),
(266,378,o),
(233,385,o),
(228,499,c),
(228,504,o),
(231,507,o),
(236,503,c),
(335,443,o),
(324,411,o),
(347,398,cs),
(371,384,o),
(377,388,o),
(397,424,cs),
(418,462,o),
(418,468,o),
(394,483,cs),
(372,496,o),
(348,468,o),
(244,522,cs),
(239,524,o),
(239,527,o),
(244,530,cs),
(347,586,o),
(370,560,o),
(393,575,c),
(417,589,o),
(417,595,o),
(396,632,c),
(374,668,o),
(368,672,o),
(345,657,c),
(323,644,o),
(334,610,o),
(236,548,cs),
(231,545,o),
(228,547,o),
(228,552,c),
(232,668,o),
(266,677,o),
(266,703,cs),
(266,730,o),
(260,734,o),
(218,734,cs),
(176,734,o),
(170,730,o),
(170,703,cs),
(170,677,o),
(205,668,o),
(209,551,c),
(209,546,o),
(206,544,o),
(201,547,cs),
(102,608,o),
(114,641,o),
(91,654,cs),
(65,670,o),
(57,658,o),
(40,626,cs),
(22,594,o),
(16,585,o),
(44,570,c),
(66,557,o),
(87,582,o),
(190,529,cs),
(195,527,o),
(195,524,o),
(190,521,cs),
(87,467,o),
(66,495,o),
(44,482,cs),
(17,466,o),
(24,456,o),
(43,424,cs),
(61,393,o),
(66,382,o),
(92,398,cs),
(114,411,o),
(103,442,o),
(201,504,c),
(206,508,o),
(209,505,o),
(209,500,c),
(205,387,o),
(170,378,o),
(170,354,cs),
(170,323,o),
(182,324,o),
(218,324,cs)
);
}
);
width = 436;
},
{
hints = (
{
horizontal = 1;
place = (706,20);
type = Stem;
},
{
place = (189,55);
type = Stem;
}
);
layerId = "18664310-B513-4AD7-8363-6A03F31309A0";
shapes = (
{
closed = 1;
nodes = (
(231,360,o),
(241,360,o),
(241,386,cs),
(241,406,o),
(213,412,o),
(209,508,c),
(209,512,o),
(212,514,o),
(216,511,cs),
(299,461,o),
(290,434,o),
(309,423,cs),
(330,411,o),
(334,414,o),
(351,445,cs),
(369,477,o),
(369,482,o),
(349,494,cs),
(330,505,o),
(310,482,o),
(223,527,cs),
(218,529,o),
(218,531,o),
(223,534,cs),
(309,581,o),
(329,559,o),
(348,571,cs),
(368,583,o),
(368,589,o),
(350,619,cs),
(332,649,o),
(327,653,o),
(307,641,cs),
(289,629,o),
(298,601,o),
(216,549,cs),
(212,546,o),
(209,548,o),
(209,552,c),
(212,649,o),
(241,657,o),
(241,679,cs),
(241,701,o),
(236,705,o),
(201,705,cs),
(166,705,o),
(160,701,o),
(160,679,cs),
(160,657,o),
(190,649,o),
(193,551,c),
(193,547,o),
(191,545,o),
(186,548,cs),
(103,599,o),
(113,627,o),
(94,638,cs),
(72,651,o),
(66,642,o),
(51,615,cs),
(36,588,o),
(31,580,o),
(54,567,cs),
(73,556,o),
(91,577,o),
(177,533,cs),
(181,531,o),
(181,529,o),
(177,526,c),
(91,481,o),
(73,504,o),
(54,493,cs),
(32,480,o),
(38,471,o),
(54,445,cs),
(69,419,o),
(73,409,o),
(95,423,cs),
(113,434,o),
(104,460,o),
(186,512,cs),
(191,515,o),
(193,513,o),
(193,509,c),
(190,413,o),
(160,406,o),
(160,386,cs),
(160,360,o),
(171,360,o),
(201,360,cs)
);
}
);
width = 402;
},
{
hints = (
{
horizontal = 1;
place = (706,20);
type = Stem;
},
{
place = (180,55);
type = Stem;
}
);
layerId = "80C3F940-DAE7-4929-9C43-6EF0A304A7E9";
shapes = (
{
closed = 1;
nodes = (
(218,382,o),
(226,382,o),
(226,405,cs),
(226,423,o),
(201,428,o),
(198,513,c),
(198,517,o),
(200,518,o),
(204,516,cs),
(278,472,o),
(269,448,o),
(286,438,cs),
(304,427,o),
(308,430,o),
(324,457,c),
(339,485,o),
(339,490,o),
(321,501,cs),
(305,511,o),
(287,490,o),
(210,530,cs),
(206,532,o),
(206,534,o),
(210,536,cs),
(286,578,o),
(304,558,o),
(321,569,cs),
(338,580,o),
(338,585,o),
(323,611,cs),
(307,638,o),
(302,641,o),
(284,631,cs),
(268,621,o),
(277,595,o),
(204,549,cs),
(200,547,o),
(198,548,o),
(198,552,c),
(201,638,o),
(226,645,o),
(226,664,cs),
(226,684,o),
(221,688,o),
(191,688,cs),
(159,688,o),
(155,684,o),
(155,664,cs),
(155,645,o),
(181,638,o),
(184,551,c),
(184,548,o),
(181,546,o),
(178,548,cs),
(104,594,o),
(113,618,o),
(96,628,cs),
(76,640,o),
(71,631,o),
(58,608,cs),
(45,584,o),
(40,577,o),
(61,565,cs),
(77,556,o),
(93,575,o),
(169,535,c),
(173,534,o),
(173,532,o),
(169,529,c),
(93,489,o),
(77,510,o),
(61,500,cs),
(41,488,o),
(46,481,o),
(60,457,cs),
(74,434,o),
(77,425,o),
(97,438,cs),
(113,448,o),
(105,471,o),
(178,517,cs),
(181,519,o),
(184,518,o),
(184,514,c),
(181,429,o),
(155,423,o),
(155,405,cs),
(155,382,o),
(164,382,o),
(191,382,cs)
);
}
);
width = 381;
}
);
unicode = 42;
},
{
glyphname = plus;
layers = (
{
hints = (
{
horizontal = 1;
place = (253,65);
type = Stem;
},
{
place = (205,62);
type = Stem;
}
);
layerId = "2812E460-E84E-4210-9915-0404F05954BE";
shapes = (
{
closed = 1;
nodes = (
(276,152,ls),
(281,152,o),
(285,156,o),
(285,161,cs),
(285,309,ls),
(285,314,o),
(289,318,o),
(294,318,cs),
(452,318,ls),
(457,318,o),
(461,322,o),
(461,327,cs),
(461,355,ls),
(461,360,o),
(457,364,o),
(452,364,cs),
(294,364,ls),
(289,364,o),
(285,368,o),
(285,373,cs),
(285,521,ls),
(285,526,o),
(281,530,o),
(276,530,cs),
(243,530,ls),
(238,530,o),
(234,526,o),
(234,521,cs),
(234,373,ls),
(234,368,o),
(230,364,o),
(225,364,cs),
(69,364,ls),
(64,364,o),
(60,360,o),
(60,355,cs),
(60,327,ls),
(60,322,o),
(64,318,o),
(69,318,cs),
(225,318,ls),
(230,318,o),
(234,314,o),
(234,309,cs),
(234,161,ls),
(234,156,o),
(238,152,o),
(243,152,cs)
);
}
);
width = 475;
},
{
hints = (
{
horizontal = 1;
place = (253,65);
type = Stem;
},
{
place = (219,62);
type = Stem;
}
);
layerId = "18664310-B513-4AD7-8363-6A03F31309A0";
shapes = (
{
closed = 1;
nodes = (
(267,152,ls),
(272,152,o),
(277,156,o),
(277,161,cs),
(277,318,ls),
(277,323,o),
(281,327,o),
(286,327,cs),
(452,327,ls),
(457,327,o),
(461,331,o),
(461,336,cs),
(461,348,ls),
(461,353,o),
(457,357,o),
(452,357,cs),
(286,357,ls),
(281,357,o),
(277,361,o),
(277,366,cs),
(277,521,ls),
(277,526,o),
(272,530,o),
(267,530,cs),
(252,530,ls),
(247,530,o),
(243,526,o),
(243,521,cs),
(243,366,ls),
(243,361,o),
(239,357,o),
(234,357,cs),
(69,357,ls),
(64,357,o),
(60,353,o),
(60,348,cs),
(60,336,ls),
(60,331,o),
(64,327,o),
(69,327,cs),
(234,327,ls),
(239,327,o),
(243,323,o),
(243,318,cs),
(243,161,ls),
(243,156,o),
(247,152,o),
(252,152,cs)
);
}
);
width = 504;
},
{
hints = (
{
horizontal = 1;
place = (253,65);
type = Stem;
},
{
place = (228,62);
type = Stem;
}
);
layerId = "80C3F940-DAE7-4929-9C43-6EF0A304A7E9";
shapes = (
{
closed = 1;
nodes = (
(262,152,ls),
(267,152,o),
(272,156,o),
(272,161,cs),
(272,323,ls),
(272,328,o),
(276,332,o),
(281,332,cs),
(452,332,ls),
(457,332,o),
(461,336,o),
(461,341,cs),
(461,344,ls),
(461,349,o),
(457,353,o),
(452,353,cs),
(281,353,ls),
(276,353,o),
(272,357,o),
(272,362,cs),
(272,521,ls),
(272,526,o),
(267,530,o),
(262,530,cs),
(258,530,ls),
(253,530,o),
(248,526,o),
(248,521,cs),
(248,362,ls),
(248,357,o),
(244,353,o),
(239,353,cs),
(69,353,ls),
(64,353,o),
(60,349,o),
(60,344,cs),
(60,341,ls),
(60,336,o),
(64,332,o),
(69,332,cs),
(239,332,ls),
(244,332,o),
(248,328,o),
(248,323,cs),
(248,161,ls),
(248,156,o),
(253,152,o),
(258,152,cs)
);
}
);
width = 521;
}
);
unicode = 43;
},
{
glyphname = comma;
kernLeft = comma2;
kernRight = comma;
layers = (
{
hints = (
{
horizontal = 1;
place = (131,149);
type = Stem;
},
{
place = (41,160);
type = Stem;
}
);
layerId = "2812E460-E84E-4210-9915-0404F05954BE";
shapes = (
{
closed = 1;
nodes = (
(163,-144,o),
(211,-69,o),
(211,19,cs),
(211,85,o),
(172,135,o),
(117,135,cs),
(71,135,o),
(38,96,o),
(36,54,cs),
(34,8,o),
(70,-30,o),
(122,-20,cs),
(128,-19,o),
(129,-29,o),
(128,-44,cs),
(126,-99,o),
(85,-141,o),
(48,-166,cs),
(44,-169,o),
(43,-175,o),
(46,-179,cs),
(59,-196,ls),
(62,-200,o),
(68,-201,o),
(73,-198,cs)
);
}
);
width = 246;
},
{
hints = (
{
horizontal = 1;
place = (131,149);
type = Stem;
},
{
place = (46,160);
type = Stem;
}
);
layerId = "18664310-B513-4AD7-8363-6A03F31309A0";
shapes = (
{
closed = 1;
nodes = (
(152,-114,o),
(195,-54,o),
(195,19,cs),
(195,74,o),
(162,115,o),
(117,115,cs),
(79,115,o),
(49,83,o),
(50,48,cs),
(52,9,o),
(85,-16,o),
(121,-1,cs),
(127,1,o),
(131,-5,o),
(132,-18,c),
(140,-69,o),
(106,-110,o),
(64,-140,c),
(61,-143,o),
(59,-146,o),
(62,-150,cs),
(68,-157,ls),
(70,-160,o),
(73,-161,o),
(78,-158,cs)
);
}
);
width = 244;
},
{
hints = (
{
horizontal = 1;
place = (131,149);
type = Stem;
},
{
place = (49,160);
type = Stem;
}
);
layerId = "80C3F940-DAE7-4929-9C43-6EF0A304A7E9";
shapes = (
{
closed = 1;
nodes = (
(146,-96,o),
(185,-45,o),
(185,19,cs),
(185,67,o),
(156,103,o),
(117,103,cs),
(84,103,o),
(55,75,o),
(59,45,cs),
(63,10,o),
(95,-7,o),
(120,10,c),
(126,13,o),
(132,10,o),
(135,-2,cs),
(147,-51,o),
(118,-92,o),
(74,-125,cs),
(71,-127,o),
(69,-129,o),
(72,-132,c),
(73,-134,l),
(75,-136,o),
(77,-137,o),
(81,-135,cs)
);
}
);
width = 243;
}
);
unicode = 44;
},
{
glyphname = hyphen;
layers = (
{
hints = (
{
horizontal = 1;
place = (186,72);
type = Stem;
},
{
place = (45,286);
type = Stem;
}
);
layerId = "2812E460-E84E-4210-9915-0404F05954BE";
shapes = (
{
closed = 1;
nodes = (
(345,304,ls),
(350,304,o),
(354,308,o),
(354,313,cs),
(354,361,ls),
(354,366,o),
(350,370,o),
(345,370,cs),
(69,370,ls),
(64,370,o),
(60,366,o),
(60,361,cs),
(60,313,ls),
(60,308,o),
(64,304,o),
(69,304,cs)
);
}
);
width = 369;
},
{
hints = (
{
horizontal = 1;
place = (186,72);
type = Stem;
},
{
place = (36,286);
type = Stem;
}
);
layerId = "18664310-B513-4AD7-8363-6A03F31309A0";
shapes = (
{
closed = 1;
nodes = (
(345,315,ls),
(349,315,o),
(353,319,o),
(353,323,cs),
(353,348,ls),
(353,352,o),
(349,356,o),
(345,356,cs),
(68,356,ls),
(64,356,o),
(60,352,o),
(60,348,cs),
(60,323,ls),
(60,319,o),
(64,315,o),
(68,315,cs)
);
}
);
width = 396;
},
{
hints = (
{
horizontal = 1;
place = (186,72);
type = Stem;
},
{
place = (30,286);
type = Stem;
}
);
layerId = "80C3F940-DAE7-4929-9C43-6EF0A304A7E9";
shapes = (
{
closed = 1;
nodes = (
(345,322,ls),
(349,322,o),
(352,325,o),
(352,329,cs),
(352,340,ls),
(352,344,o),
(349,347,o),
(345,347,cs),
(68,347,ls),
(64,347,o),
(61,344,o),
(61,340,cs),
(61,329,ls),
(61,325,o),
(64,322,o),
(68,322,cs)
);
}
);
width = 412;
}
);
unicode = 45;
},
{
glyphname = period;
kernLeft = comma2;
kernRight = comma;
layers = (
{
hints = (
{
horizontal = 1;
place = (-18,149);
type = Stem;
},
{
place = (38,150);
type = Stem;
}
);
layerId = "2812E460-E84E-4210-9915-0404F05954BE";
shapes = (
{
closed = 1;
nodes = (
(156,-21,o),
(191,16,o),
(191,57,cs),
(191,100,o),
(156,135,o),
(113,135,cs),
(71,135,o),
(35,100,o),
(35,57,cs),
(35,16,o),
(71,-21,o),
(113,-21,cs)
);
}
);
width = 226;
},
{
hints = (
{
horizontal = 1;
place = (-19,149);
type = Stem;
},
{
place = (37,150);
type = Stem;
}
);
layerId = "18664310-B513-4AD7-8363-6A03F31309A0";
shapes = (
{
closed = 1;
nodes = (
(148,-13,o),
(176,17,o),
(176,51,cs),
(176,85,o),
(148,114,o),
(113,114,cs),
(79,114,o),
(50,85,o),
(50,51,cs),
(50,17,o),
(79,-13,o),
(113,-13,cs)
);
}
);
width = 226;
},
{
hints = (
{
horizontal = 1;
place = (-19,149);
type = Stem;
},
{
place = (36,150);
type = Stem;
}
);
layerId = "80C3F940-DAE7-4929-9C43-6EF0A304A7E9";
shapes = (
{
closed = 1;
nodes = (
(143,-8,o),
(167,18,o),
(167,47,cs),
(167,76,o),
(143,101,o),
(113,101,cs),
(84,101,o),
(59,76,o),
(59,47,cs),
(59,18,o),
(84,-8,o),
(113,-8,cs)
);
}
);
width = 226;
}
);
unicode = 46;
},
{
glyphname = slash;
layers = (
{
layerId = "2812E460-E84E-4210-9915-0404F05954BE";
shapes = (
{
closed = 1;
nodes = (
(48,-28,ls),
(53,-28,o),
(58,-24,o),
(60,-19,cs),
(274,716,ls),
(276,721,o),
(273,725,o),
(268,725,cs),
(230,725,ls),
(225,725,o),
(220,721,o),
(218,716,cs),
(4,-19,ls),
(2,-24,o),
(5,-28,o),
(10,-28,cs)
);
}
);
width = 279;
},
{
layerId = "18664310-B513-4AD7-8363-6A03F31309A0";
shapes = (
{
closed = 1;
nodes = (
(41,-28,ls),
(46,-28,o),
(51,-24,o),
(53,-19,cs),
(267,716,ls),
(269,721,o),
(266,725,o),
(261,725,cs),
(244,725,ls),
(239,725,o),
(234,721,o),
(232,716,cs),
(18,-19,ls),
(16,-24,o),
(19,-28,o),
(24,-28,cs)
);
}
);
width = 286;
},
{
layerId = "80C3F940-DAE7-4929-9C43-6EF0A304A7E9";
shapes = (
{
closed = 1;
nodes = (
(37,-28,ls),
(42,-28,o),
(47,-24,o),
(49,-19,cs),
(263,716,ls),
(265,721,o),
(262,725,o),
(257,725,cs),
(253,725,ls),
(248,725,o),
(243,721,o),
(241,716,cs),
(27,-19,ls),
(25,-24,o),
(28,-28,o),
(33,-28,cs)
);
}
);
width = 290;
}
);
unicode = 47;
},
{
glyphname = colon;
layers = (
{
hints = (
{
horizontal = 1;
place = (-18,149);
type = Stem;
},
{
horizontal = 1;
place = (415,149);
type = Stem;
},
{
place = (39,150);
type = Stem;
}
);
layerId = "2812E460-E84E-4210-9915-0404F05954BE";
shapes = (
{
closed = 1;
nodes = (
(156,265,o),
(191,301,o),
(191,343,cs),
(191,386,o),
(156,421,o),
(113,421,cs),
(71,421,o),
(35,386,o),
(35,343,cs),
(35,301,o),
(71,265,o),
(113,265,cs)
);
},
{
closed = 1;
nodes = (
(156,-30,o),
(191,6,o),
(191,48,cs),
(191,91,o),
(156,126,o),
(113,126,cs),
(71,126,o),
(35,91,o),
(35,48,cs),
(35,6,o),
(71,-30,o),
(113,-30,cs)
);
}
);
width = 226;
},
{
hints = (
{
horizontal = 1;
place = (-19,149);
type = Stem;
},
{
horizontal = 1;
place = (415,149);
type = Stem;
},
{
place = (35,150);
type = Stem;
}
);
layerId = "18664310-B513-4AD7-8363-6A03F31309A0";
shapes = (
{
closed = 1;
nodes = (
(147,264,o),
(176,293,o),
(176,327,cs),
(176,362,o),
(147,390,o),
(113,390,cs),
(79,390,o),
(50,362,o),
(50,327,cs),
(50,293,o),
(79,264,o),
(113,264,cs)
);
},
{
closed = 1;
nodes = (
(147,25,o),
(176,55,o),
(176,88,cs),
(176,123,o),
(147,151,o),
(113,151,cs),
(79,151,o),
(50,123,o),
(50,88,cs),
(50,55,o),
(79,25,o),
(113,25,cs)
);
}
);
width = 225;
},
{
hints = (
{
horizontal = 1;
place = (-19,149);
type = Stem;
},
{
horizontal = 1;
place = (415,149);
type = Stem;
},
{
place = (33,150);
type = Stem;
}
);
layerId = "80C3F940-DAE7-4929-9C43-6EF0A304A7E9";
shapes = (
{
closed = 1;
nodes = (
(142,263,o),
(167,288,o),
(167,317,cs),
(167,347,o),
(142,372,o),
(113,372,cs),
(84,372,o),
(58,347,o),
(58,317,cs),
(58,288,o),
(84,263,o),
(113,263,cs)
);
},
{
closed = 1;
nodes = (
(142,58,o),
(167,84,o),
(167,112,cs),
(167,142,o),
(142,167,o),
(113,167,cs),
(84,167,o),
(58,142,o),
(58,112,cs),
(58,84,o),
(84,58,o),
(113,58,cs)
);
}
);
width = 225;
}
);
unicode = 58;
},
{
glyphname = semicolon;
layers = (
{
hints = (
{
horizontal = 1;
place = (-19,149);
type = Stem;
},
{
horizontal = 1;
place = (415,149);
type = Stem;
},
{
place = (39,150);
type = Stem;
}
);
layerId = "2812E460-E84E-4210-9915-0404F05954BE";
shapes = (
{
closed = 1;
nodes = (
(163,-152,o),
(212,-78,o),
(212,10,cs),
(212,77,o),
(172,127,o),
(117,127,cs),
(72,127,o),
(37,87,o),
(36,46,cs),
(35,-1,o),
(71,-38,o),
(122,-28,cs),
(128,-27,o),
(128,-36,o),
(128,-52,cs),
(127,-108,o),
(85,-149,o),
(48,-175,cs),
(44,-178,o),
(43,-183,o),
(46,-187,cs),
(59,-204,ls),
(62,-208,o),
(68,-209,o),
(73,-206,cs)
);
},
{
closed = 1;
nodes = (
(160,266,o),
(195,301,o),
(195,344,cs),
(195,386,o),
(160,421,o),
(117,421,cs),
(75,421,o),
(39,386,o),
(39,344,cs),
(39,301,o),
(75,266,o),
(117,266,cs)
);
}
);
width = 247;
},
{
hints = (
{
horizontal = 1;
place = (-20,149);
type = Stem;
},
{
horizontal = 1;
place = (415,149);
type = Stem;
},
{
place = (56,150);
type = Stem;
}
);
layerId = "18664310-B513-4AD7-8363-6A03F31309A0";
shapes = (
{
closed = 1;
nodes = (
(153,-81,o),
(193,-19,o),
(193,53,cs),
(193,108,o),
(161,148,o),
(116,148,cs),
(79,148,o),
(51,116,o),
(50,82,cs),
(49,44,o),
(83,18,o),
(121,32,cs),
(127,34,o),
(132,25,o),
(133,12,cs),
(137,-33,o),
(107,-79,o),
(63,-105,cs),
(59,-108,o),
(59,-112,o),
(61,-116,c),
(68,-124,ls),
(70,-127,o),
(74,-128,o),
(79,-125,cs)
);
},
{
closed = 1;
nodes = (
(151,262,o),
(180,291,o),
(180,326,cs),
(180,360,o),
(151,389,o),
(116,389,cs),
(81,389,o),
(52,360,o),
(52,326,cs),
(52,291,o),
(81,262,o),
(116,262,cs)
);
}
);
width = 243;
},
{
hints = (
{
horizontal = 1;
place = (-20,149);
type = Stem;
},
{
horizontal = 1;
place = (415,149);
type = Stem;
},
{
place = (66,150);
type = Stem;
}
);
layerId = "80C3F940-DAE7-4929-9C43-6EF0A304A7E9";
shapes = (
{
closed = 1;
nodes = (
(146,-39,o),
(182,17,o),
(182,79,cs),
(182,126,o),
(154,161,o),
(115,161,cs),
(83,161,o),
(59,133,o),
(58,104,cs),
(57,71,o),
(90,53,o),
(120,67,cs),
(127,70,o),
(134,62,o),
(136,51,cs),
(143,12,o),
(120,-37,o),
(72,-64,cs),
(68,-66,o),
(68,-69,o),
(71,-72,c),
(73,-75,ls),
(75,-78,o),
(79,-79,o),
(82,-77,cs)
);
},
{
closed = 1;
nodes = (
(145,260,o),
(170,285,o),
(170,315,cs),
(170,345,o),
(145,370,o),
(115,370,cs),
(85,370,o),
(60,345,o),
(60,315,cs),
(60,285,o),
(85,260,o),
(115,260,cs)
);
}
);
width = 241;
}
);
unicode = 59;
},
{
glyphname = less;
layers = (
{
hints = (
{
horizontal = 1;
place = (437,20);
type = Stem;
}
);
layerId = "2812E460-E84E-4210-9915-0404F05954BE";
shapes = (
{
closed = 1;
nodes = (
(430,-3,ls),
(435,-5,o),
(440,-4,o),
(442,1,cs),
(452,23,ls),
(454,28,o),
(453,33,o),
(448,35,cs),
(86,207,ls),
(81,209,o),
(81,212,o),
(86,215,cs),
(449,409,ls),
(454,412,o),
(456,417,o),
(453,421,cs),
(440,443,ls),
(437,447,o),
(433,448,o),
(428,447,c),
(38,242,l),
(33,240,o),
(30,234,o),
(30,229,cs),
(30,191,ls),
(30,186,o),
(33,180,o),
(38,178,cs)
);
}
);
width = 484;
},
{
hints = (
{
horizontal = 1;
place = (437,20);
type = Stem;
}
);
layerId = "18664310-B513-4AD7-8363-6A03F31309A0";
shapes = (
{
closed = 1;
nodes = (
(449,7,ls),
(454,5,o),
(459,6,o),
(461,11,cs),
(466,21,ls),
(468,26,o),
(467,31,o),
(462,33,cs),
(86,206,ls),
(81,208,o),
(81,211,o),
(86,214,cs),
(463,408,ls),
(468,411,o),
(471,414,o),
(467,420,c),
(462,430,l),
(458,436,o),
(455,436,o),
(450,434,cs),
(52,231,ls),
(47,228,o),
(44,223,o),
(44,218,cs),
(44,201,ls),
(44,196,o),
(47,190,o),
(52,188,cs)
);
}
);
width = 513;
},
{
hints = (
{
horizontal = 1;
place = (437,20);
type = Stem;
}
);
layerId = "80C3F940-DAE7-4929-9C43-6EF0A304A7E9";
shapes = (
{
closed = 1;
nodes = (
(461,13,ls),
(466,11,o),
(471,12,o),
(473,17,cs),
(474,20,ls),
(476,25,o),
(475,30,o),
(470,32,cs),
(86,206,ls),
(81,208,o),
(81,211,o),
(86,214,cs),
(472,408,ls),
(477,411,o),
(480,412,o),
(476,420,cs),
(475,422,ls),
(471,430,o),
(468,429,o),
(463,426,cs),
(61,224,ls),
(56,221,o),
(53,216,o),
(53,211,cs),
(53,207,ls),
(53,202,o),
(56,196,o),
(61,194,cs)
);
}
);
width = 531;
}
);
unicode = 60;
},
{
glyphname = equal;
layers = (
{
hints = (
{
horizontal = 1;
place = (114,65);
type = Stem;
},
{
horizontal = 1;
place = (328,65);
type = Stem;
}
);
layerId = "2812E460-E84E-4210-9915-0404F05954BE";
shapes = (
{
closed = 1;
nodes = (
(389,264,ls),
(394,264,o),
(398,268,o),
(398,273,cs),
(398,305,ls),
(398,310,o),
(394,314,o),
(389,314,cs),
(39,314,ls),
(34,314,o),
(30,310,o),
(30,305,cs),
(30,273,ls),
(30,268,o),
(34,264,o),
(39,264,cs)
);
},
{
closed = 1;
nodes = (
(389,112,ls),
(394,112,o),
(398,116,o),
(398,121,cs),
(398,153,ls),
(398,158,o),
(394,162,o),
(389,162,cs),
(39,162,ls),
(34,162,o),
(30,158,o),
(30,153,cs),
(30,121,ls),
(30,116,o),
(34,112,o),
(39,112,cs)
);
}
);
width = 428;
},
{
hints = (
{
horizontal = 1;
place = (114,65);
type = Stem;
},
{
horizontal = 1;
place = (328,65);
type = Stem;
}
);
layerId = "18664310-B513-4AD7-8363-6A03F31309A0";
shapes = (
{
closed = 1;
nodes = (
(410,282,ls),
(415,282,o),
(419,286,o),
(419,291,cs),
(419,305,ls),
(419,310,o),
(415,314,o),
(410,314,cs),
(53,314,ls),
(48,314,o),
(44,310,o),
(44,305,cs),
(44,291,ls),
(44,286,o),
(48,282,o),
(53,282,cs)
);
},
{
closed = 1;
nodes = (
(410,116,ls),
(415,116,o),
(419,120,o),
(419,125,cs),
(419,139,ls),
(419,144,o),
(415,148,o),
(410,148,cs),
(53,148,ls),
(48,148,o),
(44,144,o),
(44,139,cs),
(44,125,ls),
(44,120,o),
(48,116,o),
(53,116,cs)
);
}
);
width = 464;
},
{
hints = (
{
horizontal = 1;
place = (114,65);
type = Stem;
},
{
horizontal = 1;
place = (328,65);
type = Stem;
}
);
layerId = "80C3F940-DAE7-4929-9C43-6EF0A304A7E9";
shapes = (
{
closed = 1;
nodes = (
(423,293,ls),
(428,293,o),
(432,297,o),
(432,302,cs),
(432,305,ls),
(432,310,o),
(428,314,o),
(423,314,cs),
(62,314,ls),
(57,314,o),
(53,310,o),
(53,305,cs),
(53,302,ls),
(53,297,o),
(57,293,o),
(62,293,cs)
);
},
{
closed = 1;
nodes = (
(423,118,ls),
(428,118,o),
(432,122,o),
(432,127,cs),
(432,130,ls),
(432,135,o),
(428,139,o),
(423,139,cs),
(62,139,ls),
(57,139,o),
(53,135,o),
(53,130,cs),
(53,127,ls),
(53,122,o),
(57,118,o),
(62,118,cs)
);
}
);
width = 485;
}
);
unicode = 61;
},
{
glyphname = greater;
layers = (
{
hints = (
{
horizontal = 1;
place = (437,20);
type = Stem;
}
);
layerId = "2812E460-E84E-4210-9915-0404F05954BE";
shapes = (
{
closed = 1;
nodes = (
(446,178,ls),
(451,180,o),
(454,186,o),
(454,191,cs),
(454,229,ls),
(454,234,o),
(451,240,o),
(446,242,c),
(57,446,l),
(52,448,o),
(48,447,o),
(45,442,cs),
(31,421,ls),
(28,416,o),
(30,412,o),
(35,409,cs),
(398,215,ls),
(403,212,o),
(403,209,o),
(398,207,cs),
(36,35,ls),
(31,33,o),
(30,28,o),
(32,23,cs),
(42,1,ls),
(44,-4,o),
(49,-5,o),
(54,-3,cs)
);
}
);
width = 485;
},
{
hints = (
{
horizontal = 1;
place = (437,20);
type = Stem;
}
);
layerId = "18664310-B513-4AD7-8363-6A03F31309A0";
shapes = (
{
closed = 1;
nodes = (
(460,189,ls),
(465,191,o),
(468,197,o),
(468,202,cs),
(468,218,ls),
(468,223,o),
(465,229,o),
(460,231,cs),
(63,434,ls),
(58,437,o),
(54,436,o),
(51,430,c),
(45,421,ls),
(42,416,o),
(44,412,o),
(49,409,cs),
(427,215,ls),
(432,212,o),
(432,209,o),
(427,207,cs),
(51,34,ls),
(46,32,o),
(45,27,o),
(47,22,cs),
(51,12,ls),
(53,7,o),
(58,6,o),
(63,8,cs)
);
}
);
width = 514;
},
{
hints = (
{
horizontal = 1;
place = (437,20);
type = Stem;
}
);
layerId = "80C3F940-DAE7-4929-9C43-6EF0A304A7E9";
shapes = (
{
closed = 1;
nodes = (
(469,195,ls),
(474,197,o),
(477,203,o),
(477,208,cs),
(477,212,ls),
(477,217,o),
(474,222,o),
(469,225,cs),
(67,427,ls),
(62,430,o),
(58,429,o),
(55,423,cs),
(54,421,ls),
(51,416,o),
(53,412,o),
(58,409,cs),
(444,215,ls),
(449,212,o),
(449,209,o),
(444,207,cs),
(60,33,ls),
(55,31,o),
(54,26,o),
(56,21,cs),
(57,18,ls),
(59,13,o),
(64,12,o),
(69,14,cs)
);
}
);
width = 531;
}
);
unicode = 62;
},
{
glyphname = question;
layers = (
{
hints = (
{
horizontal = 1;
place = (-44,140);
type = Stem;
},
{
horizontal = 1;
place = (798,118);
type = Stem;
},
{
place = (125,106);
type = Stem;
},
{
place = (415,71);
type = Stem;
},
{
horizontal = 1;
place = (-2,142);
type = Stem;
},
{
place = (85,140);
type = Stem;
}
);
layerId = "2812E460-E84E-4210-9915-0404F05954BE";
shapes = (
{
closed = 1;
nodes = (
(137,214,ls),
(141,214,o),
(141,217,o),
(141,221,c),
(144,268,o),
(146,279,o),
(191,302,cs),
(343,380,o),
(387,435,o),
(389,499,cs),
(391,644,o),
(293,708,o),
(182,702,cs),
(119,699,o),
(60,668,o),
(19,602,cs),
(16,597,o),
(19,593,o),
(24,591,cs),
(131,543,ls),
(136,541,o),
(142,542,o),
(143,547,c),
(149,619,o),
(189,654,o),
(239,651,cs),
(281,648,o),
(308,609,o),
(299,567,cs),
(283,492,o),
(94,460,o),
(100,411,cs),
(102,396,o),
(125,251,o),
(131,220,cs),
(132,215,o),
(132,214,o),
(135,214,cs)
);
},
{
closed = 1;
nodes = (
(197,-5,o),
(230,28,o),
(230,68,cs),
(230,109,o),
(197,142,o),
(156,142,cs),
(116,142,o),
(82,109,o),
(82,68,cs),
(82,28,o),
(116,-5,o),
(156,-5,cs)
);
}
);
width = 409;
},
{
hints = (
{
horizontal = 1;
place = (83,111);
type = Stem;
},
{
horizontal = 1;
place = (300,128);
type = Stem;
},
{
place = (47,40);
type = Stem;
},
{
place = (156,27);
type = Stem;
},
{
horizontal = 1;
place = (-2,142);
type = Stem;
},
{
place = (95,140);
type = Stem;
}
);
layerId = "18664310-B513-4AD7-8363-6A03F31309A0";
shapes = (
{
closed = 1;
nodes = (
(151,214,ls),
(155,214,o),
(155,217,o),
(155,221,c),
(158,268,o),
(151,308,o),
(197,331,cs),
(334,401,o),
(370,442,o),
(376,506,cs),
(384,622,o),
(303,702,o),
(192,696,cs),
(129,693,o),
(74,668,o),
(33,602,cs),
(30,597,o),
(33,594,o),
(38,591,c),
(108,559,ls),
(113,557,o),
(118,558,o),
(120,563,c),
(140,643,o),
(202,668,o),
(245,662,cs),
(299,654,o),
(322,610,o),
(317,568,cs),
(304,448,o),
(115,426,o),
(121,377,cs),
(123,362,o),
(139,251,o),
(145,220,cs),
(146,215,o),
(146,214,o),
(149,214,cs)
);
},
{
closed = 1;
nodes = (
(198,10,o),
(224,37,o),
(224,68,cs),
(224,100,o),
(198,127,o),
(166,127,cs),
(134,127,o),
(107,100,o),
(107,68,cs),
(107,37,o),
(134,10,o),
(166,10,cs)
);
}
);
width = 410;
},
{
hints = (
{
horizontal = 1;
place = (1,134);
type = Stem;
},
{
place = (159,93);
type = Stem;
},
{
horizontal = 1;
place = (-2,142);
type = Stem;
},
{
place = (101,140);
type = Stem;
}
);
layerId = "80C3F940-DAE7-4929-9C43-6EF0A304A7E9";
shapes = (
{
closed = 1;
nodes = (
(159,214,ls),
(163,214,o),
(163,217,o),
(163,221,c),
(166,268,o),
(154,325,o),
(200,348,cs),
(328,413,o),
(360,446,o),
(368,510,cs),
(380,609,o),
(309,699,o),
(198,693,cs),
(135,690,o),
(82,668,o),
(41,602,cs),
(38,597,o),
(41,594,o),
(46,591,c),
(94,569,ls),
(99,567,o),
(104,568,o),
(106,573,cs),
(134,658,o),
(210,676,o),
(248,669,cs),
(310,658,o),
(331,611,o),
(328,569,cs),
(317,421,o),
(127,406,o),
(133,357,cs),
(135,342,o),
(147,251,o),
(153,220,cs),
(154,215,o),
(154,214,o),
(157,214,cs)
);
},
{
closed = 1;
nodes = (
(199,19,o),
(221,42,o),
(221,68,cs),
(221,95,o),
(199,118,o),
(172,118,cs),
(145,118,o),
(123,95,o),
(123,68,cs),
(123,42,o),
(145,19,o),
(172,19,cs)
);
}
);
width = 411;
}
);
unicode = 63;
},
